<?xml version="1.0" encoding="UTF-8" standalone="no"?>
<!-- Generator: Adobe Illustrator 17.0.2, SVG Export Plug-In . SVG Version: 6.00 Build 0)  -->

<svg
   xmlns:dc="http://purl.org/dc/elements/1.1/"
   xmlns:cc="http://creativecommons.org/ns#"
   xmlns:rdf="http://www.w3.org/1999/02/22-rdf-syntax-ns#"
   xmlns:svg="http://www.w3.org/2000/svg"
   xmlns="http://www.w3.org/2000/svg"
   xmlns:sodipodi="http://sodipodi.sourceforge.net/DTD/sodipodi-0.dtd"
   xmlns:inkscape="http://www.inkscape.org/namespaces/inkscape"
   version="1.1"
   x="0px"
   y="0px"
   width="106px"
   height="106px"
   viewBox="-3 -3.2 106 106"
   style="enable-background:new -3 -3.2 106 106;"
   xml:space="preserve"
   id="svg2"
   inkscape:version="0.48.4 r9939"
   sodipodi:docname="bitcoin-alt.svg"><metadata
     id="metadata18"><rdf:RDF><cc:Work
         rdf:about=""><dc:format>image/svg+xml</dc:format><dc:type
           rdf:resource="http://purl.org/dc/dcmitype/StillImage" /><dc:title></dc:title></cc:Work></rdf:RDF></metadata><defs
     id="defs16" /><sodipodi:namedview
     pagecolor="#ffffff"
     bordercolor="#666666"
     borderopacity="1"
     objecttolerance="10"
     gridtolerance="10"
     guidetolerance="10"
     inkscape:pageopacity="0"
     inkscape:pageshadow="2"
     inkscape:window-width="640"
     inkscape:window-height="480"
     id="namedview14"
     showgrid="false"
     inkscape:zoom="2.2264151"
     inkscape:cx="53"
     inkscape:cy="53"
     inkscape:window-x="0"
     inkscape:window-y="30"
     inkscape:window-maximized="0"
     inkscape:current-layer="svg2" /><g
     id="Grid" /><g
     id="btc-alt"
     style="fill:#ffffff"><g
       id="g6"
       style="fill:#ffffff"><g
         id="g8"
         style="fill:#ffffff"><path
           d="M66.5,47.2c3.6-1.9,5.9-5.1,5.4-10.6c-0.7-7.4-7.1-9.9-15.3-10.6l0-10.3h-6.3l0,10c-1.7,0-3.3,0-5,0.1l0-10.1h-6.3     l0,10.3c-1.4,0-2.7,0.1-4,0.1v0l-8.7,0l0,6.7c0,0,4.6-0.1,4.6,0c2.5,0,3.4,1.5,3.6,2.8l0,11.7c0.2,0,0.4,0,0.7,0     c-0.2,0-0.4,0-0.7,0v16.5c-0.1,0.8-0.6,2.1-2.4,2.1c0.1,0.1-4.6,0-4.6,0l-1.2,7.5h8.2c1.5,0,3,0,4.5,0l0,10.4l6.3,0l0-10.3     c1.7,0,3.4,0.1,5,0.1l0,10.3l6.3,0l0-10.4c10.6-0.6,18-3.3,18.9-13.2C76.3,52.2,72.5,48.7,66.5,47.2z M45.5,33.2     c3.5,0,14.7-1.1,14.7,6.3c0,7.1-11.1,6.3-14.7,6.3V33.2z M45.5,65.9l0-13.8c4.3,0,17.6-1.2,17.6,6.9     C63.1,66.8,49.7,65.9,45.5,65.9z"
           id="path10"
           style="fill:#ffffff" /></g></g><path
       d="M50,7.8c23.2,0,42,18.8,42,42s-18.8,42-42,42S8,72.9,8,49.8C8,26.6,26.8,7.8,50,7.8 M50-0.2c-27.6,0-50,22.4-50,50   s22.4,50,50,50c27.6,0,50-22.4,50-50S77.6-0.2,50-0.2L50-0.2z"
       id="path12"
       style="fill:#ffffff" /></g></svg>