<?xml version="1.0" encoding="UTF-8" standalone="no"?>
<!-- Generator: Adobe Illustrator 17.0.2, SVG Export Plug-In . SVG Version: 6.00 Build 0)  -->

<svg
   xmlns:dc="http://purl.org/dc/elements/1.1/"
   xmlns:cc="http://creativecommons.org/ns#"
   xmlns:rdf="http://www.w3.org/1999/02/22-rdf-syntax-ns#"
   xmlns:svg="http://www.w3.org/2000/svg"
   xmlns="http://www.w3.org/2000/svg"
   xmlns:sodipodi="http://sodipodi.sourceforge.net/DTD/sodipodi-0.dtd"
   xmlns:inkscape="http://www.inkscape.org/namespaces/inkscape"
   version="1.1"
   x="0px"
   y="0px"
   width="106px"
   height="106px"
   viewBox="-3 -3.2 106 106"
   style="enable-background:new -3 -3.2 106 106;"
   xml:space="preserve"
   id="svg2"
   inkscape:version="0.48.4 r9939"
   sodipodi:docname="litecoin-alt.svg"><metadata
     id="metadata14"><rdf:RDF><cc:Work
         rdf:about=""><dc:format>image/svg+xml</dc:format><dc:type
           rdf:resource="http://purl.org/dc/dcmitype/StillImage" /><dc:title></dc:title></cc:Work></rdf:RDF></metadata><defs
     id="defs12" /><sodipodi:namedview
     pagecolor="#ffffff"
     bordercolor="#666666"
     borderopacity="1"
     objecttolerance="10"
     gridtolerance="10"
     guidetolerance="10"
     inkscape:pageopacity="0"
     inkscape:pageshadow="2"
     inkscape:window-width="640"
     inkscape:window-height="480"
     id="namedview10"
     showgrid="false"
     inkscape:zoom="2.2264151"
     inkscape:cx="53"
     inkscape:cy="53"
     inkscape:window-x="0"
     inkscape:window-y="30"
     inkscape:window-maximized="0"
     inkscape:current-layer="ltc-alt" /><g
     id="Grid" /><g
     id="ltc-alt"><polygon
       points="46.9,65.9 50.3,52.9 58.5,49.9 60.6,42.2 60.5,42.1 52.4,45 58.2,23.2 41.8,23.2 34.2,51.7 27.9,54 25.8,61.9    32.1,59.5 27.6,76.3 71.4,76.3 74.2,65.9  "
       id="polygon6"
       style="fill:#ffffff" /><path
       d="M50,7.8c23.2,0,42,18.8,42,42s-18.8,42-42,42S8,72.9,8,49.8C8,26.6,26.8,7.8,50,7.8 M50-0.2c-27.6,0-50,22.4-50,50   s22.4,50,50,50c27.6,0,50-22.4,50-50S77.6-0.2,50-0.2L50-0.2z"
       id="path8"
       style="fill:#ffffff" /></g></svg>