<?xml version="1.0" encoding="UTF-8" standalone="no"?>
<!DOCTYPE svg PUBLIC "-//W3C//DTD SVG 1.1//EN" "http://www.w3.org/Graphics/SVG/1.1/DTD/svg11.dtd">
<svg version="1.1" xmlns="http://www.w3.org/2000/svg" xmlns:xlink="http://www.w3.org/1999/xlink" preserveAspectRatio="xMidYMid meet" viewBox="0 0 640 640" width="640" height="640"><defs><path d="M-295.71 46.48C-297 44.31 -295.77 41.2 -292.96 39.53C-290.16 37.86 -286.84 38.27 -285.54 40.44C-284.14 42.8 -272.92 61.66 -271.52 64.02C-270.23 66.19 -271.46 69.3 -274.27 70.97C-277.07 72.64 -280.39 72.23 -281.68 70.06C-284.49 65.35 -294.3 48.84 -295.71 46.48Z" id="d3vBjNV1Q"></path><path d="M60.29 243.41C60.29 376.71 173.56 486.9 310.59 486.9C447.62 486.9 558.94 376.71 558.94 243.41C558.94 110.1 447.62 1.8 310.59 1.8C173.56 1.8 60.29 110.1 60.29 243.41Z" id="j2m2Vh4ix"></path><path d="M308.38 484.02C308.38 435.79 308.38 50.02 308.38 1.8C444.16 1.8 554.47 109.45 554.47 241.97C554.47 374.48 444.16 484.02 308.38 484.02Z" id="b1UOJjk2K1"></path><path d="M317.28 39.21L321.45 39.41L325.6 39.69L329.74 40.05L333.86 40.48L337.96 41L342.04 41.59L346.11 42.26L350.15 43.01L354.17 43.83L358.16 44.73L362.14 45.71L366.09 46.76L370.01 47.89L373.91 49.09L377.78 50.37L381.62 51.72L385.44 53.15L389.22 54.65L392.97 56.22L396.69 57.86L400.38 59.58L404.04 61.37L407.66 63.23L411.24 65.16L414.79 67.17L418.3 69.24L421.78 71.38L425.21 73.6L428.61 75.88L431.96 78.23L435.27 80.66L438.54 83.15L441.77 85.7L444.95 88.33L448.09 91.02L451.18 93.78L454.23 96.61L457.22 99.5L460.16 102.45L463.03 105.45L465.83 108.49L468.57 111.58L471.24 114.72L473.83 117.89L476.36 121.11L478.82 124.38L481.21 127.68L483.53 131.02L485.78 134.4L487.96 137.82L490.06 141.28L492.1 144.78L494.06 148.31L495.95 151.87L497.77 155.47L499.51 159.1L501.18 162.77L502.78 166.46L504.3 170.19L505.75 173.94L507.12 177.72L508.42 181.54L509.64 185.37L510.79 189.24L511.86 193.13L512.85 197.04L513.76 200.97L514.6 204.93L515.36 208.91L516.04 212.91L516.64 216.93L517.16 220.97L517.61 225.03L517.97 229.1L518.26 233.19L518.46 237.29L518.58 241.41L518.62 245.54L518.58 249.68L518.46 253.8L518.26 257.9L517.97 261.99L517.61 266.06L517.16 270.12L516.64 274.16L516.04 278.18L515.36 282.18L514.6 286.16L513.76 290.12L512.85 294.05L511.86 297.96L510.79 301.85L509.64 305.72L508.42 309.55L507.12 313.36L505.75 317.15L504.3 320.9L502.78 324.63L501.18 328.32L499.51 331.99L497.77 335.62L495.95 339.22L494.06 342.78L492.1 346.31L490.06 349.81L487.96 353.26L485.78 356.68L483.53 360.07L481.21 363.41L478.82 366.71L476.36 369.97L473.83 373.19L471.24 376.37L468.57 379.51L465.83 382.59L463.03 385.64L460.16 388.63L457.22 391.58L454.23 394.48L451.18 397.3L448.09 400.06L444.95 402.76L441.77 405.38L438.54 407.94L435.27 410.43L431.96 412.85L428.61 415.21L425.21 417.49L421.78 419.7L418.3 421.85L414.79 423.92L411.24 425.93L407.66 427.86L404.04 429.72L400.38 431.51L396.69 433.23L392.97 434.87L389.22 436.44L385.44 437.94L381.62 439.37L377.78 440.72L373.91 442L370.01 443.2L366.09 444.33L362.14 445.38L358.16 446.36L354.17 447.26L350.15 448.08L346.11 448.83L342.04 449.5L337.96 450.09L333.86 450.61L329.74 451.04L325.6 451.4L321.45 451.68L317.28 451.88L313.1 452L308.9 452.04L304.7 452L300.52 451.88L296.35 451.68L292.2 451.4L288.06 451.04L283.94 450.61L279.84 450.09L275.76 449.5L271.7 448.83L267.65 448.08L263.63 447.26L259.64 446.36L255.66 445.38L251.71 444.33L247.79 443.2L243.89 442L240.02 440.72L236.18 439.37L232.37 437.94L228.58 436.44L224.83 434.87L221.11 433.23L217.42 431.51L213.76 429.72L210.14 427.86L206.56 425.93L203.01 423.92L199.5 421.85L196.02 419.7L192.59 417.49L189.19 415.21L185.84 412.85L182.53 410.43L179.26 407.94L176.03 405.38L172.85 402.76L169.71 400.06L166.62 397.3L163.57 394.48L160.58 391.58L157.64 388.63L154.77 385.64L151.97 382.59L149.23 379.51L146.56 376.37L143.97 373.19L141.44 369.97L138.98 366.71L136.59 363.41L134.27 360.07L132.02 356.68L129.84 353.26L127.74 349.81L125.7 346.31L123.74 342.78L121.85 339.22L120.03 335.62L118.29 331.99L116.62 328.32L115.02 324.63L113.5 320.9L112.05 317.15L110.68 313.36L109.38 309.55L108.16 305.72L107.01 301.85L105.94 297.96L104.95 294.05L104.04 290.12L103.2 286.16L102.44 282.18L101.76 278.18L101.16 274.16L100.64 270.12L100.19 266.06L99.83 261.99L99.55 257.9L99.34 253.8L99.22 249.68L99.18 245.54L99.22 241.41L99.34 237.29L99.55 233.19L99.83 229.1L100.19 225.03L100.64 220.97L101.16 216.93L101.76 212.91L102.44 208.91L103.2 204.93L104.04 200.97L104.95 197.04L105.94 193.13L107.01 189.24L108.16 185.37L109.38 181.54L110.68 177.72L112.05 173.94L113.5 170.19L115.02 166.46L116.62 162.77L118.29 159.1L120.03 155.47L121.85 151.87L123.74 148.31L125.7 144.78L127.74 141.28L129.84 137.82L132.02 134.4L134.27 131.02L136.59 127.68L138.98 124.38L141.44 121.11L143.97 117.89L146.56 114.72L149.23 111.58L151.97 108.49L154.77 105.45L157.64 102.45L160.58 99.5L163.57 96.61L166.62 93.78L169.71 91.02L172.85 88.33L176.03 85.7L179.26 83.15L182.53 80.66L185.84 78.23L189.19 75.88L192.59 73.6L196.02 71.38L199.5 69.24L203.01 67.17L206.56 65.16L210.14 63.23L213.76 61.37L217.42 59.58L221.11 57.86L224.83 56.22L228.58 54.65L232.37 53.15L236.18 51.72L240.02 50.37L243.89 49.09L247.79 47.89L251.71 46.76L255.66 45.71L259.64 44.73L263.63 43.83L267.65 43.01L271.7 42.26L275.76 41.59L279.84 41L283.94 40.48L288.06 40.05L292.2 39.69L296.35 39.41L300.52 39.21L304.7 39.09L308.9 39.05L313.1 39.09L317.28 39.21ZM293.48 60.75L285.9 61.51L278.41 62.57L271.01 63.91L263.72 65.54L256.53 67.44L249.46 69.61L242.51 72.04L235.69 74.74L229 77.68L222.46 80.87L216.05 84.3L209.8 87.96L203.71 91.86L197.78 95.97L192.02 100.3L186.44 104.84L181.04 109.58L175.83 114.52L170.81 119.65L165.99 124.97L161.39 130.46L156.99 136.13L152.81 141.97L148.86 147.97L145.14 154.13L141.65 160.43L138.42 166.88L135.42 173.46L132.69 180.18L130.22 187.02L128.01 193.98L126.08 201.06L124.43 208.24L123.07 215.52L122 222.9L121.22 230.37L120.76 237.92L120.6 245.54L120.76 253.17L121.22 260.72L122 268.19L123.07 275.57L124.43 282.85L126.08 290.03L128.01 297.11L130.22 304.07L132.69 310.91L135.42 317.63L138.42 324.21L141.65 330.66L145.14 336.96L148.86 343.12L152.81 349.12L156.99 354.95L161.39 360.63L165.99 366.12L170.81 371.44L175.83 376.57L181.04 381.51L186.44 386.25L192.02 390.79L197.78 395.12L203.71 399.23L209.8 403.12L216.05 406.79L222.46 410.22L229 413.41L235.69 416.35L242.51 419.04L249.46 421.48L256.53 423.65L263.72 425.55L271.01 427.18L278.41 428.52L285.9 429.57L293.48 430.33L301.15 430.8L308.9 430.95L316.65 430.8L324.32 430.33L331.9 429.57L339.39 428.52L346.79 427.18L354.08 425.55L361.27 423.65L368.34 421.48L375.29 419.04L382.11 416.35L388.8 413.41L395.34 410.22L401.75 406.79L408 403.12L414.09 399.23L420.02 395.12L425.78 390.79L431.36 386.25L436.76 381.51L441.97 376.57L446.99 371.44L451.81 366.12L456.42 360.63L460.81 354.95L464.99 349.12L468.94 343.12L472.66 336.96L476.15 330.66L479.39 324.21L482.38 317.63L485.11 310.91L487.58 304.07L489.79 297.11L491.72 290.03L493.37 282.85L494.73 275.57L495.8 268.19L496.58 260.72L497.05 253.17L497.2 245.54L497.05 237.92L496.58 230.37L495.8 222.9L494.73 215.52L493.37 208.24L491.72 201.06L489.79 193.98L487.58 187.02L485.11 180.18L482.38 173.46L479.39 166.88L476.15 160.43L472.66 154.13L468.94 147.97L464.99 141.97L460.81 136.13L456.42 130.46L451.81 124.97L446.99 119.65L441.97 114.52L436.76 109.58L431.36 104.84L425.78 100.3L420.02 95.97L414.09 91.86L408 87.96L401.75 84.3L395.34 80.87L388.8 77.68L382.11 74.74L375.29 72.04L368.34 69.61L361.27 67.44L354.08 65.54L346.79 63.91L339.39 62.57L331.9 61.51L324.32 60.75L316.65 60.29L308.9 60.14L301.15 60.29L293.48 60.75Z" id="c3KK5bEPp"></path><path d="M264.76 246.98L189.15 168.21L234.01 121.47L309.62 200.25L385.22 121.47L430.08 168.21L354.47 246.98L430.08 325.76L385.22 372.49L309.61 293.72L234.01 372.49L189.15 325.76L264.76 246.98Z" id="avzkKJzNC"></path><path d="M178.48 122.52L233.84 122.52L233.84 214.81L178.48 214.81L178.48 122.52Z" id="fq1if8jlX"></path><path d="M383.71 272.78L430.08 272.78L430.08 372.49L383.71 372.49L383.71 272.78Z" id="c1dydzRm79"></path><path d="M333.51 121.02L432.23 121.02L432.23 167.7L333.51 167.7L333.51 121.02Z" id="dnobB1Yhi"></path><path d="M189.15 323.19L284.94 323.19L284.94 372.49L189.15 372.49L189.15 323.19Z" id="j3d4E31P4"></path><path d="M304.08 456.33C304 454.42 301.89 452.95 299.38 453.06C296.86 453.16 294.88 454.79 294.96 456.7C295.05 458.78 295.75 475.4 295.84 477.48C295.92 479.39 298.03 480.86 300.55 480.76C303.07 480.66 305.04 479.02 304.96 477.11C304.79 472.95 304.17 458.41 304.08 456.33Z" id="gw7FnsLXa"></path><path d="M522.46 243.66C520.51 243.66 518.93 245.67 518.93 248.14C518.93 250.62 520.51 252.62 522.46 252.62C524.58 252.62 541.52 252.62 543.64 252.62C545.59 252.62 547.17 250.62 547.17 248.14C547.17 245.67 545.59 243.66 543.64 243.66C539.4 243.66 524.58 243.66 522.46 243.66Z" id="ai26Dh9Lj"></path><path d="M315.07 456.33C314.99 454.42 312.88 452.95 310.36 453.06C307.84 453.16 305.87 454.79 305.95 456.7C306.04 458.78 306.74 475.4 306.83 477.48C306.91 479.39 309.02 480.86 311.54 480.76C314.05 480.66 316.03 479.02 315.95 477.11C315.77 472.95 315.16 458.41 315.07 456.33Z" id="c5jzGdkR9B"></path><path d="M325.57 456.28C325.46 454.37 323.34 452.93 320.82 453.06C318.3 453.2 316.35 454.86 316.46 456.77C316.58 458.85 317.51 475.46 317.63 477.54C317.74 479.45 319.87 480.89 322.38 480.75C324.9 480.61 326.85 478.95 326.75 477.04C326.51 472.89 325.69 458.35 325.57 456.28Z" id="avTFFHlQ3"></path><path d="M323.38 15.47C323.46 13.55 321.48 11.92 318.96 11.82C316.45 11.71 314.34 13.18 314.26 15.09C314.17 17.17 313.46 33.79 313.37 35.87C313.29 37.78 315.27 39.42 317.78 39.52C320.3 39.62 322.41 38.16 322.49 36.24C322.67 32.09 323.29 17.54 323.38 15.47Z" id="b4bGU69UNr"></path><path d="M334.68 16.5C334.89 14.6 333.02 12.85 330.51 12.59C328.01 12.33 325.81 13.66 325.61 15.57C325.38 17.63 323.62 34.18 323.39 36.25C323.19 38.15 325.06 39.9 327.57 40.16C330.07 40.42 332.27 39.09 332.47 37.18C332.92 33.05 334.46 18.57 334.68 16.5Z" id="b41a2i3vd4"></path><path d="M312.71 14.94C312.74 13.02 310.73 11.44 308.21 11.39C305.69 11.34 303.62 12.86 303.58 14.77C303.54 16.85 303.22 33.48 303.18 35.56C303.14 37.48 305.16 39.06 307.68 39.11C310.2 39.16 312.27 37.64 312.31 35.73C312.39 31.57 312.67 17.02 312.71 14.94Z" id="c1kpWTX9Qk"></path><path d="M522.46 254.12C520.51 254.12 518.93 256.12 518.93 258.6C518.93 261.07 520.51 263.08 522.46 263.08C524.58 263.08 541.52 263.08 543.64 263.08C545.59 263.08 547.17 261.07 547.17 258.6C547.17 256.12 545.59 254.12 543.64 254.12C539.4 254.12 524.58 254.12 522.46 254.12Z" id="adY2tXvga"></path><path d="M521.49 232.92C519.54 232.92 517.96 234.93 517.96 237.4C517.96 239.87 519.54 241.88 521.49 241.88C523.61 241.88 540.56 241.88 542.67 241.88C544.62 241.88 546.2 239.87 546.2 237.4C546.2 234.93 544.62 232.92 542.67 232.92C538.44 232.92 523.61 232.92 521.49 232.92Z" id="b5lpqUySu"></path><path d="M521.17 222.87C519.22 222.94 517.72 225.01 517.82 227.48C517.92 229.95 519.58 231.9 521.53 231.82C523.65 231.74 540.58 231.08 542.69 231C544.64 230.92 546.14 228.85 546.04 226.38C545.94 223.91 544.28 221.96 542.33 222.04C538.1 222.21 523.28 222.78 521.17 222.87Z" id="baReZT8Hg"></path><path d="M519.88 212.8C517.94 212.96 516.54 215.09 516.75 217.56C516.96 220.02 518.7 221.89 520.65 221.73C522.76 221.56 539.64 220.16 541.75 219.99C543.7 219.83 545.1 217.7 544.89 215.23C544.68 212.77 542.93 210.9 540.99 211.06C536.77 211.41 521.99 212.63 519.88 212.8Z" id="eVsU0HBhr"></path><path d="M517.6 202.67C515.67 202.92 514.37 205.12 514.71 207.57C515.04 210.02 516.88 211.8 518.82 211.55C520.91 211.27 537.71 209.06 539.81 208.78C541.74 208.52 543.03 206.33 542.7 203.88C542.36 201.42 540.52 199.64 538.59 199.9C534.39 200.45 519.7 202.39 517.6 202.67Z" id="aLk66C31X"></path><path d="M516.87 201.56C514.94 201.83 513.09 200.05 512.75 197.6C512.4 195.15 513.68 192.95 515.61 192.68C517.71 192.4 534.49 190.09 536.59 189.8C538.52 189.54 540.36 191.31 540.71 193.76C541.06 196.21 539.78 198.41 537.85 198.68C533.66 199.25 518.97 201.27 516.87 201.56Z" id="a2jmxWZhX"></path><path d="M513.98 191.46C512.06 191.78 510.16 190.06 509.74 187.62C509.32 185.18 510.54 182.94 512.46 182.62C514.55 182.28 531.26 179.5 533.35 179.16C535.27 178.84 537.17 180.56 537.59 183C538.01 185.44 536.79 187.67 534.87 187.99C530.69 188.69 516.07 191.11 513.98 191.46Z" id="a1a5FmEJZi"></path><path d="M510.82 180.91C508.91 181.31 506.93 179.68 506.4 177.26C505.87 174.84 506.98 172.55 508.89 172.15C510.96 171.71 527.52 168.2 529.59 167.76C531.5 167.35 533.47 168.99 534.01 171.41C534.54 173.82 533.43 176.11 531.52 176.52C527.38 177.4 512.89 180.47 510.82 180.91Z" id="a99uscQ8V"></path><path d="M506.8 170.82C504.91 171.28 502.88 169.71 502.27 167.31C501.67 164.91 502.7 162.59 504.6 162.13C506.65 161.62 523.09 157.6 525.15 157.1C527.04 156.64 529.07 158.21 529.68 160.61C530.29 163.01 529.25 165.33 527.36 165.8C523.25 166.8 508.86 170.32 506.8 170.82Z" id="batJVvM1y"></path><path d="M502.74 160.9C500.85 161.38 498.81 159.83 498.17 157.44C497.54 155.04 498.55 152.71 500.44 152.22C502.49 151.7 518.88 147.5 520.93 146.97C522.82 146.49 524.86 148.04 525.5 150.44C526.14 152.83 525.12 155.16 523.24 155.65C519.14 156.7 504.79 160.37 502.74 160.9Z" id="c2869C39So"></path><path d="M498.3 151.41C496.43 151.95 494.34 150.46 493.62 148.09C492.91 145.72 493.85 143.35 495.72 142.81C497.75 142.22 514 137.52 516.03 136.93C517.9 136.39 520 137.87 520.71 140.25C521.42 142.62 520.49 144.98 518.62 145.53C514.55 146.7 500.33 150.82 498.3 151.41Z" id="f1irw6WsGc"></path><path d="M487.37 133.12C485.54 133.78 483.35 132.43 482.49 130.11C481.62 127.78 482.4 125.37 484.23 124.71C486.22 123.99 502.13 118.26 504.12 117.55C505.95 116.89 508.13 118.24 509 120.56C509.87 122.88 509.09 125.3 507.26 125.96C503.28 127.39 489.36 132.4 487.37 133.12Z" id="c4pPxrrP6p"></path><path d="M493.19 142.51C491.35 143.14 489.19 141.75 488.36 139.42C487.54 137.08 488.36 134.67 490.2 134.05C492.2 133.36 508.21 127.91 510.21 127.23C512.06 126.61 514.22 127.99 515.05 130.33C515.87 132.67 515.05 135.07 513.21 135.7C509.2 137.06 495.19 141.83 493.19 142.51Z" id="d1Fjc9WdqK"></path><path d="M481.45 124.49C479.68 125.28 477.4 124.08 476.37 121.82C475.34 119.56 475.95 117.1 477.72 116.32C479.66 115.47 495.12 108.67 497.06 107.82C498.84 107.03 501.11 108.23 502.14 110.49C503.17 112.75 502.57 115.21 500.79 116C496.92 117.7 483.39 123.64 481.45 124.49Z" id="ep0nD5xdR"></path><path d="M474.44 115.4C472.67 116.21 470.38 115.04 469.32 112.79C468.26 110.55 468.83 108.07 470.6 107.27C472.53 106.4 487.91 99.41 489.83 98.54C491.6 97.73 493.89 98.9 494.95 101.15C496.01 103.4 495.43 105.87 493.66 106.67C489.82 108.42 476.36 114.53 474.44 115.4Z" id="aJ195p0Dv"></path><path d="M467.4 107.06C465.67 107.94 463.33 106.87 462.17 104.68C461 102.48 461.46 99.99 463.19 99.1C465.07 98.14 480.11 90.47 481.99 89.51C483.72 88.63 486.06 89.7 487.23 91.89C488.39 94.09 487.93 96.58 486.2 97.47C482.44 99.38 469.28 106.1 467.4 107.06Z" id="edTWCnsKQ"></path><path d="M459.44 99.1C457.74 100.04 455.36 99.05 454.12 96.9C452.88 94.74 453.25 92.23 454.95 91.29C456.79 90.27 471.55 82.09 473.4 81.07C475.09 80.13 477.47 81.11 478.71 83.27C479.95 85.42 479.58 87.93 477.88 88.87C474.19 90.92 461.28 98.07 459.44 99.1Z" id="a2oJX3D1FY"></path><path d="M451.06 91.41C449.39 92.4 446.98 91.48 445.68 89.36C444.38 87.24 444.68 84.72 446.35 83.73C448.17 82.66 462.68 74.07 464.49 73C466.16 72.01 468.57 72.93 469.87 75.05C471.17 77.17 470.87 79.69 469.2 80.67C465.58 82.82 452.88 90.33 451.06 91.41Z" id="g1UGpIhpzV"></path><path d="M460.14 73C461.78 71.96 461.99 69.43 460.62 67.36C459.25 65.28 456.81 64.44 455.17 65.48C453.4 66.62 439.18 75.67 437.41 76.81C435.77 77.85 435.56 80.38 436.93 82.45C438.3 84.53 440.74 85.36 442.38 84.32C445.93 82.06 458.37 74.13 460.14 73Z" id="cF8D5PUu"></path><path d="M451.15 65.43C452.72 64.29 452.78 61.75 451.29 59.76C449.79 57.77 447.31 57.07 445.74 58.21C444.03 59.44 430.39 69.31 428.69 70.54C427.12 71.68 427.06 74.22 428.55 76.21C430.05 78.2 432.53 78.9 434.1 77.76C437.51 75.29 449.45 66.66 451.15 65.43Z" id="i165r0ld9S"></path><path d="M432.11 51.22C433.47 49.84 433.1 47.33 431.29 45.61C429.49 43.89 426.92 43.6 425.56 44.98C424.09 46.47 412.28 58.41 410.81 59.9C409.45 61.27 409.82 63.79 411.63 65.51C413.44 67.23 416 67.52 417.36 66.14C420.31 63.16 430.64 52.71 432.11 51.22Z" id="e35VN5neXW"></path><path d="M422.33 45.18C423.59 43.72 423.05 41.24 421.12 39.64C419.2 38.04 416.62 37.93 415.36 39.39C413.99 40.98 403.04 53.68 401.67 55.27C400.41 56.73 400.95 59.21 402.88 60.81C404.8 62.4 407.38 62.52 408.64 61.06C411.38 57.88 420.96 46.77 422.33 45.18Z" id="a3o2cG4pBx"></path><path d="M380.35 26.45C381.07 24.67 379.76 22.49 377.42 21.57C375.08 20.65 372.59 21.35 371.87 23.13C371.09 25.06 364.82 40.52 364.03 42.45C363.31 44.23 364.62 46.41 366.97 47.33C369.31 48.24 371.79 47.54 372.51 45.77C374.08 41.9 379.57 28.38 380.35 26.45Z" id="i4UKyRDvPE"></path><path d="M369.38 23.12C369.97 21.3 368.51 19.21 366.11 18.45C363.71 17.69 361.28 18.55 360.69 20.38C360.04 22.36 354.85 38.19 354.2 40.17C353.6 41.99 355.07 44.09 357.46 44.84C359.86 45.6 362.29 44.74 362.89 42.92C364.19 38.96 368.73 25.1 369.38 23.12Z" id="a8Byvdlkz"></path><path d="M358.07 19.95C358.53 18.09 356.92 16.11 354.47 15.52C352.02 14.93 349.66 15.97 349.2 17.82C348.7 19.84 344.67 36 344.17 38.03C343.71 39.88 345.32 41.87 347.76 42.46C350.21 43.04 352.57 42.01 353.04 40.15C354.04 36.11 357.56 21.97 358.07 19.95Z" id="afgcS4pnj"></path><path d="M346.55 18.16C346.92 16.28 345.21 14.38 342.74 13.91C340.26 13.44 337.96 14.58 337.59 16.46C337.18 18.5 333.96 34.83 333.56 36.87C333.19 38.75 334.89 40.66 337.37 41.13C339.84 41.6 342.15 40.46 342.52 38.58C343.33 34.5 346.15 20.2 346.55 18.16Z" id="bnSnxpmBU"></path><path d="M391.37 30.34C392.23 28.63 391.11 26.35 388.85 25.25C386.59 24.15 384.06 24.64 383.19 26.36C382.25 28.22 374.71 43.12 373.77 44.98C372.9 46.7 374.03 48.98 376.29 50.08C378.55 51.18 381.08 50.68 381.95 48.97C383.83 45.24 390.42 32.21 391.37 30.34Z" id="d57oVCnDWc"></path><path d="M401.89 35.12C402.92 33.49 402.01 31.12 399.86 29.81C397.72 28.51 395.15 28.78 394.13 30.41C393.01 32.18 384.1 46.33 382.99 48.1C381.97 49.72 382.87 52.1 385.02 53.4C387.16 54.7 389.73 54.44 390.76 52.81C392.98 49.27 400.78 36.89 401.89 35.12Z" id="c1np0Mekkg"></path><path d="M412.07 39.68C413.17 38.11 412.38 35.69 410.3 34.29C408.22 32.89 405.64 33.04 404.54 34.62C403.34 36.33 393.76 50.05 392.56 51.76C391.46 53.34 392.25 55.76 394.33 57.16C396.41 58.56 398.98 58.41 400.09 56.83C402.48 53.4 410.87 41.4 412.07 39.68Z" id="aeFhXo6w1"></path><path d="M441.68 58.06C443.13 56.78 442.94 54.25 441.26 52.41C439.57 50.57 437.03 50.11 435.58 51.39C434 52.78 421.41 63.91 419.83 65.3C418.38 66.58 418.57 69.11 420.26 70.95C421.94 72.79 424.49 73.24 425.94 71.96C429.08 69.18 440.11 59.45 441.68 58.06Z" id="b5CgACxjkZ"></path><path d="M301.74 14.99C301.72 13.07 299.66 11.54 297.14 11.56C294.62 11.58 292.59 13.15 292.61 15.07C292.63 17.14 292.78 33.78 292.8 35.86C292.81 37.77 294.87 39.31 297.39 39.29C299.91 39.26 301.94 37.69 301.92 35.78C301.89 31.62 301.75 17.06 301.74 14.99Z" id="cH48tjrBy"></path><path d="M280.42 16.36C280.24 14.45 282.14 12.73 284.65 12.51C287.16 12.29 289.34 13.65 289.51 15.56C289.7 17.63 291.21 34.2 291.4 36.27C291.58 38.18 289.68 39.9 287.17 40.13C284.66 40.35 282.48 38.98 282.31 37.07C281.93 32.93 280.61 18.43 280.42 16.36Z" id="a7v2bhtUFp"></path><path d="M269.51 17.79C269.35 15.88 271.25 14.17 273.76 13.96C276.28 13.75 278.44 15.13 278.61 17.03C278.79 19.1 280.22 35.68 280.4 37.75C280.56 39.66 278.66 41.38 276.15 41.59C273.64 41.79 271.47 40.42 271.3 38.51C270.94 34.37 269.69 19.86 269.51 17.79Z" id="a1oM8t4cIr"></path><path d="M259.17 19.8C259.01 17.89 260.91 16.17 263.42 15.96C265.93 15.75 268.1 17.13 268.27 19.04C268.45 21.11 269.88 37.69 270.05 39.76C270.22 41.67 268.32 43.38 265.8 43.59C263.29 43.8 261.12 42.42 260.96 40.52C260.6 36.37 259.35 21.87 259.17 19.8Z" id="iHRN2sFpI"></path><path d="M258.18 21.34C258.04 19.43 255.88 18.03 253.37 18.21C250.86 18.39 248.93 20.08 249.07 21.99C249.23 24.06 250.46 40.66 250.61 42.73C250.75 44.64 252.91 46.04 255.42 45.86C257.93 45.68 259.86 43.99 259.72 42.08C259.41 37.93 258.33 23.41 258.18 21.34Z" id="a47TlQAvpv"></path><path d="M238.56 24.86C238.42 22.95 240.34 21.26 242.85 21.07C245.36 20.89 247.52 22.29 247.66 24.2C247.82 26.27 249.09 42.86 249.24 44.93C249.39 46.84 247.47 48.54 244.95 48.72C242.44 48.91 240.29 47.51 240.14 45.6C239.82 41.45 238.72 26.94 238.56 24.86Z" id="aKJNxJOG6"></path><path d="M227.76 28.48C227.58 26.58 229.46 24.84 231.97 24.6C234.48 24.36 236.66 25.71 236.85 27.62C237.05 29.69 238.69 46.25 238.89 48.32C239.08 50.22 237.2 51.96 234.69 52.2C232.18 52.44 229.99 51.08 229.8 49.18C229.4 45.04 227.97 30.55 227.76 28.48Z" id="c10TqX65yM"></path><path d="M217.23 32.23C216.99 30.33 218.82 28.54 221.32 28.23C223.82 27.92 226.05 29.21 226.29 31.11C226.55 33.17 228.67 49.68 228.94 51.74C229.18 53.64 227.35 55.43 224.85 55.74C222.35 56.05 220.12 54.76 219.88 52.86C219.35 48.74 217.5 34.29 217.23 32.23Z" id="d1nFiltct7"></path><path d="M206.43 36.94C206.1 35.05 207.84 33.18 210.32 32.76C212.81 32.34 215.09 33.52 215.42 35.41C215.78 37.46 218.67 53.85 219.04 55.9C219.37 57.79 217.62 59.66 215.14 60.08C212.66 60.5 210.37 59.31 210.04 57.43C209.32 53.33 206.79 38.99 206.43 36.94Z" id="b43Y2JxGPL"></path><path d="M196.26 42.16C195.89 40.28 197.59 38.37 200.07 37.9C202.54 37.43 204.85 38.57 205.22 40.45C205.63 42.49 208.86 58.82 209.27 60.86C209.64 62.74 207.93 64.65 205.46 65.12C202.98 65.59 200.68 64.45 200.3 62.57C199.5 58.49 196.67 44.2 196.26 42.16Z" id="c5Oixp41c"></path><path d="M186.11 48.24C185.67 46.37 187.29 44.4 189.75 43.83C192.2 43.27 194.55 44.32 195 46.18C195.48 48.2 199.38 64.39 199.86 66.42C200.31 68.28 198.68 70.25 196.23 70.82C193.78 71.39 191.42 70.34 190.98 68.48C190 64.43 186.6 50.26 186.11 48.24Z" id="e16xPCnRT3"></path><path d="M176.39 54.38C175.89 52.53 177.46 50.52 179.9 49.88C182.34 49.25 184.72 50.24 185.21 52.09C185.75 54.1 190.07 70.19 190.61 72.2C191.11 74.05 189.54 76.07 187.1 76.7C184.66 77.33 182.28 76.34 181.78 74.49C180.71 70.46 176.93 56.39 176.39 54.38Z" id="c1CTaqJ5Rd"></path><path d="M74.02 230.71C72.08 230.63 70.41 232.57 70.3 235.04C70.19 237.51 71.68 239.58 73.63 239.66C75.75 239.75 92.68 240.47 94.79 240.56C96.74 240.64 98.41 238.7 98.52 236.23C98.62 233.76 97.13 231.69 95.19 231.61C90.95 231.43 76.14 230.8 74.02 230.71Z" id="b76nVAfq4"></path><path d="M75.25 219.58C73.31 219.41 71.55 221.27 71.33 223.74C71.11 226.2 72.5 228.34 74.45 228.51C76.56 228.69 93.44 230.15 95.55 230.33C97.49 230.5 99.24 228.64 99.46 226.17C99.68 223.71 98.29 221.57 96.35 221.41C92.13 221.04 77.36 219.76 75.25 219.58Z" id="b3e3mB5CNU"></path><path d="M77.16 208.93C75.23 208.66 73.38 210.43 73.03 212.88C72.67 215.33 73.95 217.53 75.88 217.8C77.98 218.09 94.76 220.41 96.86 220.7C98.79 220.97 100.64 219.2 100.99 216.75C101.34 214.3 100.06 212.1 98.13 211.83C93.94 211.25 79.26 209.22 77.16 208.93Z" id="b1RxI7Exe8"></path><path d="M82.01 186.79C80.12 186.3 78.07 187.85 77.43 190.24C76.79 192.63 77.79 194.97 79.68 195.46C81.73 195.99 98.11 200.23 100.16 200.76C102.05 201.25 104.1 199.7 104.74 197.31C105.38 194.92 104.37 192.58 102.49 192.09C98.39 191.03 84.05 187.32 82.01 186.79Z" id="acg8IUdv5"></path><path d="M319.2 48.89L323.21 49.09L327.2 49.35L331.17 49.7L335.13 50.12L339.08 50.61L343 51.19L346.9 51.83L350.79 52.55L354.65 53.34L358.49 54.21L362.31 55.15L366.11 56.16L369.88 57.25L373.62 58.4L377.34 59.63L381.03 60.93L384.7 62.31L388.33 63.75L391.94 65.26L395.52 66.84L399.06 68.5L402.57 70.22L406.05 72.01L409.5 73.87L412.91 75.8L416.28 77.79L419.62 79.86L422.92 81.99L426.19 84.18L429.41 86.45L432.59 88.78L435.73 91.17L438.84 93.64L441.89 96.16L444.91 98.75L447.88 101.41L450.8 104.13L453.68 106.91L456.51 109.75L459.27 112.64L461.96 115.57L464.59 118.54L467.15 121.55L469.65 124.61L472.08 127.71L474.44 130.85L476.74 134.03L478.97 137.24L481.13 140.5L483.22 143.79L485.25 147.12L487.2 150.48L489.09 153.88L490.9 157.31L492.65 160.77L494.33 164.26L495.93 167.79L497.47 171.35L498.93 174.93L500.32 178.54L501.64 182.18L502.88 185.85L504.06 189.54L505.16 193.26L506.19 197L507.14 200.77L508.02 204.56L508.82 208.37L509.55 212.19L510.21 216.04L510.79 219.91L511.29 223.8L511.71 227.7L512.06 231.62L512.34 235.56L512.53 239.51L512.65 243.47L512.69 247.45L512.65 251.42L512.53 255.39L512.34 259.34L512.06 263.27L511.71 267.19L511.29 271.09L510.79 274.98L510.21 278.85L509.55 282.7L508.82 286.53L508.02 290.34L507.14 294.12L506.19 297.89L505.16 301.63L504.06 305.35L502.88 309.04L501.64 312.71L500.32 316.35L498.93 319.96L497.47 323.55L495.93 327.1L494.33 330.63L492.65 334.12L490.9 337.59L489.09 341.02L487.2 344.41L485.25 347.78L483.22 351.1L481.13 354.39L478.97 357.65L476.74 360.87L474.44 364.04L472.08 367.18L469.65 370.28L467.15 373.34L464.59 376.35L461.96 379.33L459.27 382.26L456.51 385.14L453.68 387.98L450.8 390.76L447.88 393.48L444.91 396.14L441.89 398.73L438.84 401.26L435.73 403.72L432.59 406.11L429.41 408.44L426.19 410.71L422.92 412.91L419.62 415.04L416.28 417.1L412.91 419.1L409.5 421.02L406.05 422.88L402.57 424.67L399.06 426.4L395.52 428.05L391.94 429.63L388.33 431.14L384.7 432.59L381.03 433.96L377.34 435.26L373.62 436.49L369.88 437.64L366.11 438.73L362.31 439.74L358.49 440.68L354.65 441.55L350.79 442.34L346.9 443.06L343 443.71L339.08 444.28L335.13 444.77L331.17 445.19L327.2 445.54L323.21 445.81L319.2 446L315.18 446.11L311.15 446.15L307.12 446.11L303.1 446L299.09 445.81L295.1 445.54L291.12 445.19L287.16 444.77L283.22 444.28L279.3 443.71L275.4 443.06L271.51 442.34L267.65 441.55L263.81 440.68L259.99 439.74L256.19 438.73L252.42 437.64L248.68 436.49L244.96 435.26L241.26 433.96L237.6 432.59L233.96 431.14L230.36 429.63L226.78 428.05L223.24 426.4L219.72 424.67L216.25 422.88L212.8 421.02L209.39 419.1L206.01 417.1L202.68 415.04L199.38 412.91L196.11 410.71L192.89 408.44L189.71 406.11L186.56 403.72L183.46 401.26L180.4 398.73L177.39 396.14L174.42 393.48L171.49 390.76L168.61 387.98L165.79 385.14L163.03 382.26L160.34 379.33L157.71 376.35L155.15 373.34L152.65 370.28L150.22 367.18L147.86 364.04L145.56 360.87L143.33 357.65L141.17 354.39L139.08 351.1L137.05 347.78L135.1 344.41L133.21 341.02L131.39 337.59L129.65 334.12L127.97 330.63L126.37 327.1L124.83 323.55L123.37 319.96L121.98 316.35L120.66 312.71L119.41 309.04L118.24 305.35L117.14 301.63L116.11 297.89L115.16 294.12L114.28 290.34L113.47 286.53L112.75 282.7L112.09 278.85L111.51 274.98L111.01 271.09L110.58 267.19L110.23 263.27L109.96 259.34L109.77 255.39L109.65 251.42L109.61 247.45L109.65 243.47L109.77 239.51L109.96 235.56L110.23 231.62L110.58 227.7L111.01 223.8L111.51 219.91L112.09 216.04L112.75 212.19L113.47 208.37L114.28 204.56L115.16 200.77L116.11 197L117.14 193.26L118.24 189.54L119.41 185.85L120.66 182.18L121.98 178.54L123.37 174.93L124.83 171.35L126.37 167.79L127.97 164.26L129.65 160.77L131.39 157.31L133.21 153.88L135.1 150.48L137.05 147.12L139.08 143.79L141.17 140.5L143.33 137.24L145.56 134.03L147.86 130.85L150.22 127.71L152.65 124.61L155.15 121.55L157.71 118.54L160.34 115.57L163.03 112.64L165.79 109.75L168.61 106.91L171.49 104.13L174.42 101.41L177.39 98.75L180.4 96.16L183.46 93.64L186.56 91.17L189.71 88.78L192.89 86.45L196.11 84.18L199.38 81.99L202.68 79.86L206.01 77.79L209.39 75.8L212.8 73.87L216.25 72.01L219.72 70.22L223.24 68.5L226.78 66.84L230.36 65.26L233.96 63.75L237.6 62.31L241.26 60.93L244.96 59.63L248.68 58.4L252.42 57.25L256.19 56.16L259.99 55.15L263.81 54.21L267.65 53.34L271.51 52.55L275.4 51.83L279.3 51.19L283.22 50.61L287.16 50.12L291.12 49.7L295.1 49.35L299.09 49.09L303.1 48.89L307.12 48.78L311.15 48.74L315.18 48.78L319.2 48.89ZM296.33 69.63L289.05 70.36L281.85 71.37L274.74 72.67L267.73 74.23L260.82 76.06L254.03 78.15L247.35 80.49L240.8 83.08L234.37 85.91L228.08 88.98L221.92 92.28L215.92 95.81L210.06 99.55L204.36 103.51L198.83 107.68L193.47 112.05L188.28 116.61L183.27 121.36L178.45 126.3L173.82 131.42L169.39 136.71L165.16 142.16L161.15 147.78L157.35 153.55L153.78 159.48L150.43 165.54L147.31 171.75L144.44 178.08L141.81 184.55L139.44 191.13L137.32 197.83L135.46 204.63L133.88 211.55L132.57 218.55L131.54 225.65L130.79 232.84L130.34 240.11L130.19 247.45L130.34 254.79L130.79 262.05L131.54 269.24L132.57 276.34L133.88 283.35L135.46 290.26L137.32 297.06L139.44 303.76L141.81 310.35L144.44 316.81L147.31 323.15L150.43 329.35L153.78 335.42L157.35 341.34L161.15 347.11L165.16 352.73L169.39 358.19L173.82 363.48L178.45 368.59L183.27 373.53L188.28 378.28L193.47 382.85L198.83 387.21L204.36 391.38L210.06 395.34L215.92 399.08L221.92 402.61L228.08 405.91L234.37 408.98L240.8 411.81L247.35 414.4L254.03 416.74L260.82 418.83L267.73 420.66L274.74 422.23L281.85 423.52L289.05 424.53L296.33 425.27L303.7 425.71L311.15 425.86L318.59 425.71L325.96 425.27L333.25 424.53L340.45 423.52L347.56 422.23L354.57 420.66L361.47 418.83L368.27 416.74L374.95 414.4L381.5 411.81L387.93 408.98L394.22 405.91L400.37 402.61L406.38 399.08L412.24 395.34L417.93 391.38L423.47 387.21L428.83 382.85L434.02 378.28L439.03 373.53L443.85 368.59L448.48 363.48L452.91 358.19L457.13 352.73L461.15 347.11L464.95 341.34L468.52 335.42L471.87 329.35L474.98 323.15L477.86 316.81L480.48 310.35L482.86 303.76L484.98 297.06L486.83 290.26L488.42 283.35L489.73 276.34L490.76 269.24L491.5 262.05L491.95 254.79L492.1 247.45L491.95 240.11L491.5 232.84L490.76 225.65L489.73 218.55L488.42 211.55L486.83 204.63L484.98 197.83L482.86 191.13L480.48 184.55L477.86 178.08L474.98 171.75L471.87 165.54L468.52 159.48L464.95 153.55L461.15 147.78L457.13 142.16L452.91 136.71L448.48 131.42L443.85 126.3L439.03 121.36L434.02 116.61L428.83 112.05L423.47 107.68L417.93 103.51L412.24 99.55L406.38 95.81L400.37 92.28L394.22 88.98L387.93 85.91L381.5 83.08L374.95 80.49L368.27 78.15L361.47 76.06L354.57 74.23L347.56 72.67L340.45 71.37L333.25 70.36L325.96 69.63L318.59 69.18L311.15 69.03L303.7 69.18L296.33 69.63Z" id="apAT0V6VW"></path><path d="M166.63 61.11C166.02 59.29 167.48 57.19 169.87 56.43C172.27 55.66 174.7 56.52 175.31 58.34C175.96 60.32 181.21 76.14 181.86 78.11C182.46 79.93 181.01 82.03 178.61 82.79C176.22 83.56 173.78 82.71 173.18 80.89C171.87 76.93 167.28 63.09 166.63 61.11Z" id="b2MDEDUwiz"></path><path d="M157 68.81C156.29 67.03 157.62 64.86 159.97 63.96C162.32 63.07 164.8 63.79 165.51 65.57C166.27 67.51 172.4 83.02 173.17 84.96C173.88 86.74 172.54 88.91 170.19 89.81C167.84 90.71 165.37 89.98 164.66 88.2C163.13 84.32 157.76 70.75 157 68.81Z" id="c1cvs4uPFE"></path><path d="M148.31 77.18C147.52 75.43 148.74 73.19 151.04 72.18C153.34 71.17 155.85 71.77 156.64 73.51C157.51 75.41 164.44 90.59 165.3 92.49C166.1 94.24 164.88 96.47 162.58 97.49C160.28 98.5 157.77 97.9 156.97 96.15C155.24 92.36 149.18 79.07 148.31 77.18Z" id="bQthVhws1"></path><path d="M78.72 197.28C76.8 196.91 74.86 198.58 74.37 201.01C73.88 203.43 75.03 205.7 76.95 206.07C79.02 206.48 95.65 209.7 97.73 210.1C99.64 210.48 101.59 208.81 102.07 206.38C102.56 203.95 101.41 201.68 99.5 201.31C95.34 200.51 80.79 197.68 78.72 197.28Z" id="a3XD57xZUV"></path><path d="M89 164.57C87.19 163.86 86.49 161.42 87.42 159.12C88.36 156.82 90.59 155.54 92.4 156.25C94.37 157.03 110.09 163.23 112.06 164C113.87 164.72 114.57 167.16 113.63 169.45C112.69 171.75 110.47 173.03 108.66 172.32C104.72 170.77 90.97 165.35 89 164.57Z" id="aftyngLr9"></path><path d="M84.51 176.04C82.65 175.47 80.53 176.92 79.78 179.28C79.03 181.64 79.93 184.02 81.79 184.59C83.82 185.21 99.99 190.16 102.01 190.78C103.87 191.35 105.99 189.9 106.74 187.54C107.49 185.18 106.59 182.8 104.73 182.23C100.69 180.99 86.53 176.65 84.51 176.04Z" id="a13TnY8IsK"></path><path d="M88.39 165.52C86.57 164.84 84.37 166.16 83.47 168.48C82.58 170.79 83.33 173.22 85.16 173.9C87.14 174.63 102.98 180.53 104.96 181.27C106.78 181.95 108.99 180.62 109.88 178.31C110.78 176 110.02 173.57 108.2 172.89C104.24 171.42 90.37 166.25 88.39 165.52Z" id="ajQCRpJvG"></path><path d="M96.15 146.55C94.35 145.8 92.1 147.05 91.12 149.33C90.14 151.61 90.8 154.06 92.59 154.8C94.54 155.61 110.15 162.1 112.1 162.91C113.89 163.65 116.15 162.41 117.13 160.13C118.11 157.85 117.45 155.4 115.66 154.66C111.76 153.03 98.1 147.36 96.15 146.55Z" id="b2cB7F8DC"></path><path d="M106.37 127.9C104.63 127.03 102.3 128.11 101.15 130.31C100.01 132.52 100.49 135.01 102.22 135.88C104.11 136.82 119.2 144.39 121.09 145.33C122.82 146.2 125.16 145.12 126.31 142.92C127.45 140.71 126.97 138.22 125.24 137.35C121.46 135.46 108.26 128.84 106.37 127.9Z" id="aGB83szKQ"></path><path d="M146.97 80.68C146.03 79 143.48 78.61 141.27 79.8C139.06 80.99 138.03 83.32 138.97 84.99C139.99 86.82 148.15 101.4 149.17 103.22C150.1 104.9 152.66 105.29 154.87 104.1C157.08 102.91 158.11 100.58 157.17 98.91C155.13 95.26 147.99 82.5 146.97 80.68Z" id="bdaEYnkMC"></path><path d="M138.29 89.53C137.2 87.94 134.63 87.77 132.53 89.15C130.44 90.53 129.62 92.93 130.71 94.52C131.89 96.25 141.33 110.07 142.51 111.79C143.59 113.38 146.17 113.55 148.26 112.18C150.36 110.8 151.17 108.39 150.09 106.8C147.73 103.35 139.47 91.26 138.29 89.53Z" id="ccMqUsE7j"></path><path d="M129.83 97.95C128.6 96.47 126.02 96.53 124.06 98.09C122.11 99.65 121.52 102.12 122.75 103.61C124.09 105.22 134.78 118.12 136.12 119.74C137.35 121.22 139.93 121.16 141.89 119.6C143.84 118.03 144.43 115.56 143.2 114.08C140.53 110.85 131.17 99.56 129.83 97.95Z" id="aP9BN8w3K"></path><path d="M120.26 107.74C118.78 106.5 116.25 107.03 114.62 108.92C112.99 110.8 112.87 113.34 114.36 114.58C115.97 115.92 128.89 126.68 130.51 128.03C132 129.27 134.52 128.74 136.15 126.85C137.78 124.97 137.9 122.43 136.41 121.19C133.18 118.5 121.88 109.09 120.26 107.74Z" id="iP5Be091o"></path><path d="M112.76 118.3C111.11 117.29 108.69 118.18 107.36 120.28C106.03 122.38 106.29 124.91 107.95 125.92C109.75 127.01 124.14 135.79 125.94 136.89C127.6 137.9 130.02 137.01 131.35 134.91C132.68 132.81 132.41 130.29 130.76 129.28C127.16 127.08 114.56 119.4 112.76 118.3Z" id="c17Ip1o2Vj"></path><path d="M100.98 136.52C99.23 135.68 96.91 136.8 95.8 139.02C94.69 141.24 95.21 143.73 96.97 144.57C98.87 145.48 114.09 152.79 115.99 153.71C117.74 154.55 120.06 153.43 121.17 151.21C122.28 148.98 121.76 146.5 120 145.66C116.2 143.83 102.88 137.43 100.98 136.52Z" id="f5uLERIBVq"></path><path d="M73.81 242.5C71.86 242.5 70.28 244.51 70.28 246.98C70.28 249.46 71.86 251.46 73.81 251.46C75.93 251.46 92.87 251.46 94.99 251.46C96.94 251.46 98.52 249.46 98.52 246.98C98.52 244.51 96.94 242.5 94.99 242.5C90.75 242.5 75.93 242.5 73.81 242.5Z" id="a3bERajlQ6"></path><path d="M74.47 253.72C72.52 253.72 70.94 255.73 70.94 258.2C70.94 260.68 72.52 262.69 74.47 262.69C76.59 262.69 93.53 262.69 95.65 262.69C97.6 262.69 99.18 260.68 99.18 258.2C99.18 255.73 97.6 253.72 95.65 253.72C91.41 253.72 76.59 253.72 74.47 253.72Z" id="bePFv6MJ"></path><path d="M75.13 264.86C73.18 264.93 71.67 266.99 71.75 269.46C71.84 271.93 73.49 273.89 75.44 273.82C77.55 273.75 94.49 273.18 96.61 273.11C98.56 273.04 100.07 270.99 99.98 268.51C99.89 266.04 98.24 264.09 96.3 264.15C92.06 264.3 77.24 264.79 75.13 264.86Z" id="a13iTYYOIj"></path><path d="M76.24 275.26C74.29 275.37 72.84 277.47 72.99 279.94C73.14 282.41 74.84 284.32 76.79 284.2C78.9 284.08 95.82 283.08 97.93 282.96C99.88 282.84 101.33 280.75 101.18 278.28C101.03 275.8 99.33 273.9 97.38 274.01C93.15 274.26 78.35 275.13 76.24 275.26Z" id="a2To9QiWyl"></path><path d="M77.8 285.85C75.86 286.03 74.47 288.17 74.71 290.64C74.94 293.1 76.71 294.95 78.65 294.78C80.76 294.58 97.63 293.03 99.74 292.84C101.68 292.66 103.06 290.52 102.83 288.05C102.59 285.59 100.83 283.74 98.89 283.92C94.67 284.3 79.91 285.66 77.8 285.85Z" id="a6UTHTl872"></path><path d="M80.47 296.55C78.54 296.78 77.21 298.96 77.52 301.42C77.83 303.88 79.64 305.68 81.58 305.45C83.68 305.2 100.5 303.18 102.6 302.93C104.54 302.7 105.86 300.52 105.55 298.06C105.25 295.61 103.43 293.8 101.5 294.03C97.29 294.54 82.57 296.3 80.47 296.55Z" id="b15zOerUP6"></path><path d="M82.86 307.43C80.94 307.75 79.72 309.99 80.15 312.43C80.57 314.87 82.47 316.59 84.4 316.27C86.48 315.92 103.19 313.11 105.27 312.76C107.2 312.44 108.41 310.2 107.98 307.76C107.56 305.32 105.66 303.61 103.74 303.93C99.56 304.63 84.95 307.08 82.86 307.43Z" id="b3PHuEvNU4"></path><path d="M86.31 318.27C84.41 318.72 83.35 321.03 83.94 323.44C84.52 325.84 86.53 327.43 88.43 326.99C90.49 326.51 106.97 322.64 109.03 322.16C110.93 321.72 111.99 319.41 111.41 317C110.82 314.59 108.81 313 106.91 313.44C102.79 314.41 88.37 317.79 86.31 318.27Z" id="c1jeWKO7Fc"></path><path d="M90.25 329.14C88.38 329.67 87.43 332.04 88.14 334.41C88.85 336.79 90.94 338.28 92.81 337.74C94.84 337.16 111.11 332.49 113.14 331.9C115.01 331.37 115.95 329 115.25 326.63C114.54 324.25 112.45 322.76 110.58 323.3C106.51 324.47 92.28 328.55 90.25 329.14Z" id="b3QeWayE86"></path><path d="M94.7 339.26C92.85 339.87 92.02 342.27 92.83 344.61C93.64 346.96 95.79 348.36 97.64 347.74C99.64 347.07 115.69 341.72 117.69 341.05C119.54 340.43 120.38 338.03 119.57 335.69C118.76 333.35 116.6 331.95 114.75 332.56C110.74 333.9 96.71 338.59 94.7 339.26Z" id="bjxXFB8DS"></path><path d="M99.6 349.77C97.8 350.51 97.12 352.95 98.08 355.24C99.04 357.53 101.28 358.79 103.09 358.06C105.04 357.26 120.7 350.91 122.66 350.11C124.46 349.38 125.14 346.93 124.18 344.65C123.22 342.36 120.97 341.1 119.17 341.83C115.26 343.42 101.56 348.98 99.6 349.77Z" id="daVwCXXC"></path><path d="M105.17 359.96C103.41 360.78 102.85 363.25 103.92 365.49C105 367.73 107.3 368.88 109.06 368.06C110.98 367.18 126.3 360.08 128.22 359.19C129.98 358.38 130.54 355.9 129.47 353.66C128.39 351.42 126.09 350.27 124.33 351.09C120.49 352.86 107.08 359.07 105.17 359.96Z" id="f4bfg7rs2k"></path><path d="M111.3 369.8C109.56 370.67 109.09 373.16 110.24 375.37C111.38 377.57 113.72 378.65 115.46 377.78C117.34 376.83 132.43 369.25 134.31 368.3C136.05 367.43 136.53 364.94 135.38 362.74C134.23 360.53 131.89 359.45 130.16 360.33C126.38 362.22 113.19 368.85 111.3 369.8Z" id="b2ts4d9MwS"></path><path d="M117.11 378.71C115.39 379.61 114.97 382.12 116.16 384.3C117.35 386.48 119.71 387.51 121.43 386.6C123.29 385.62 138.22 377.75 140.09 376.76C141.8 375.86 142.23 373.35 141.04 371.17C139.84 368.99 137.48 367.96 135.77 368.87C132.03 370.84 118.97 377.72 117.11 378.71Z" id="c2fsNr0qqI"></path><path d="M124.23 387.6C122.58 388.62 122.33 391.14 123.66 393.24C125 395.33 127.43 396.21 129.08 395.2C130.87 394.09 145.24 385.26 147.03 384.16C148.68 383.14 148.94 380.62 147.6 378.52C146.26 376.42 143.84 375.55 142.18 376.56C138.59 378.77 126.03 386.5 124.23 387.6Z" id="e3fEIffEw"></path><path d="M131.27 395.85C129.66 396.95 129.53 399.48 130.97 401.51C132.4 403.55 134.87 404.31 136.47 403.22C138.21 402.03 152.13 392.55 153.87 391.37C155.48 390.28 155.61 387.75 154.17 385.71C152.74 383.68 150.27 382.91 148.67 384C145.19 386.37 133.01 394.67 131.27 395.85Z" id="b5TVa75ow"></path><path d="M138.76 404.09C137.22 405.26 137.23 407.8 138.78 409.75C140.32 411.7 142.83 412.34 144.36 411.16C146.04 409.89 159.42 399.68 161.09 398.4C162.63 397.22 162.62 394.69 161.07 392.73C159.53 390.78 157.02 390.15 155.49 391.32C152.14 393.88 140.43 402.81 138.76 404.09Z" id="a7zIEuVZX"></path><path d="M147.42 412.78C145.97 414.06 146.16 416.59 147.84 418.43C149.52 420.28 152.06 420.73 153.52 419.46C155.09 418.07 167.71 406.96 169.29 405.57C170.74 404.3 170.55 401.77 168.87 399.92C167.19 398.08 164.64 397.62 163.19 398.9C160.04 401.68 149 411.39 147.42 412.78Z" id="blf6l4OwN"></path><path d="M155.73 420.25C154.3 421.56 154.55 424.08 156.27 425.89C158 427.69 160.55 428.09 161.97 426.78C163.52 425.36 175.87 413.98 177.42 412.56C178.84 411.25 178.6 408.72 176.87 406.92C175.15 405.11 172.59 404.71 171.17 406.02C168.08 408.87 157.27 418.83 155.73 420.25Z" id="b8Z8GdZyEm"></path><path d="M164.48 427.43C163.11 428.8 163.46 431.31 165.26 433.05C167.06 434.78 169.62 435.08 170.99 433.72C172.47 432.24 184.36 420.37 185.84 418.89C187.21 417.53 186.86 415.01 185.06 413.28C183.27 411.54 180.7 411.24 179.33 412.61C176.36 415.57 165.97 425.95 164.48 427.43Z" id="b2gQCc1Aj5"></path><path d="M174.52 434.42C173.21 435.83 173.66 438.33 175.53 440C177.39 441.66 179.97 441.86 181.28 440.44C182.7 438.91 194.1 426.59 195.52 425.06C196.84 423.64 196.39 421.14 194.52 419.48C192.66 417.81 190.08 417.61 188.77 419.03C185.92 422.11 175.95 432.88 174.52 434.42Z" id="l5IEEl7Cr"></path><path d="M183.67 440.45C182.4 441.91 182.92 444.39 184.83 446C186.74 447.62 189.32 447.75 190.59 446.3C191.98 444.72 203.02 432.1 204.4 430.53C205.67 429.08 205.15 426.59 203.24 424.98C201.33 423.36 198.75 423.23 197.48 424.68C194.72 427.84 185.05 438.88 183.67 440.45Z" id="h2Z7tbcyFy"></path><path d="M193.62 445.97C192.46 447.5 193.16 449.95 195.18 451.42C197.2 452.9 199.79 452.84 200.95 451.31C202.21 449.64 212.31 436.28 213.57 434.61C214.73 433.07 214.03 430.63 212.01 429.16C209.99 427.68 207.4 427.73 206.24 429.27C203.72 432.61 194.88 444.3 193.62 445.97Z" id="a4ey2WJQX"></path><path d="M202.83 451.44C201.77 453.04 202.62 455.44 204.74 456.78C206.85 458.13 209.43 457.92 210.49 456.31C211.64 454.57 220.86 440.61 222.01 438.86C223.07 437.26 222.22 434.87 220.1 433.52C217.99 432.17 215.41 432.38 214.35 433.99C212.05 437.48 203.98 449.69 202.83 451.44Z" id="cu75JfllG"></path><path d="M269.98 474.24C269.75 476.14 271.59 477.92 274.09 478.22C276.6 478.51 278.81 477.21 279.05 475.31C279.3 473.25 281.33 456.73 281.58 454.67C281.82 452.77 279.98 450.98 277.47 450.69C274.97 450.39 272.75 451.69 272.52 453.59C272.01 457.72 270.24 472.17 269.98 474.24Z" id="b6AhoXnjSe"></path><path d="M282.5 476C282.38 477.91 284.33 479.58 286.84 479.73C289.36 479.88 291.49 478.45 291.61 476.53C291.73 474.46 292.74 457.85 292.86 455.78C292.98 453.87 291.03 452.2 288.52 452.05C286 451.9 283.87 453.33 283.75 455.24C283.5 459.4 282.62 473.93 282.5 476Z" id="d6qwhOhjul"></path><path d="M257.06 471.52C256.65 473.39 258.31 475.33 260.78 475.85C263.24 476.37 265.57 475.28 265.98 473.4C266.43 471.37 269.99 455.11 270.43 453.07C270.84 451.2 269.18 449.26 266.71 448.74C264.25 448.22 261.92 449.32 261.51 451.19C260.62 455.26 257.5 469.49 257.06 471.52Z" id="b1Mg9BxQGI"></path><path d="M245.68 468.56C245.16 470.41 246.71 472.44 249.14 473.09C251.57 473.75 253.96 472.78 254.48 470.94C255.04 468.93 259.54 452.89 260.1 450.89C260.62 449.04 259.07 447.02 256.64 446.36C254.2 445.7 251.82 446.67 251.3 448.51C250.17 452.52 246.24 466.56 245.68 468.56Z" id="agGIUHcHI"></path><path d="M235.08 464.95C234.47 466.77 235.92 468.87 238.32 469.64C240.71 470.41 243.15 469.57 243.76 467.75C244.42 465.77 249.71 449.97 250.37 447.99C250.98 446.18 249.53 444.07 247.14 443.3C244.74 442.53 242.31 443.38 241.7 445.19C240.38 449.15 235.75 462.97 235.08 464.95Z" id="b6M8nnrm5"></path><path d="M224.43 461.08C223.72 462.86 225.04 465.04 227.38 465.95C229.73 466.85 232.21 466.15 232.92 464.37C233.7 462.43 239.92 446.96 240.7 445.02C241.42 443.24 240.1 441.06 237.75 440.16C235.41 439.25 232.93 439.95 232.21 441.73C230.66 445.6 225.21 459.14 224.43 461.08Z" id="a7rKUOqkQ"></path><path d="M213.31 456.98C212.45 458.7 213.59 460.98 215.85 462.07C218.12 463.16 220.65 462.65 221.5 460.93C222.44 459.06 229.9 444.13 230.83 442.26C231.69 440.54 230.55 438.26 228.29 437.17C226.03 436.08 223.49 436.59 222.64 438.31C220.77 442.05 214.24 455.12 213.31 456.98Z" id="cBh8yf7YU"></path><path d="M335.08 455.21C334.92 453.3 332.75 451.92 330.24 452.12C327.73 452.33 325.82 454.04 325.99 455.95C326.16 458.02 327.57 474.6 327.74 476.67C327.9 478.58 330.07 479.96 332.58 479.75C335.09 479.55 337 477.84 336.84 475.93C336.49 471.78 335.26 457.28 335.08 455.21Z" id="c7XiRubbQ"></path><path d="M345.13 453.61C344.89 451.71 342.67 450.42 340.17 450.73C337.67 451.03 335.84 452.82 336.08 454.72C336.34 456.78 338.44 473.29 338.7 475.36C338.94 477.25 341.17 478.55 343.67 478.24C346.17 477.93 348 476.14 347.76 474.24C347.23 470.12 345.4 455.67 345.13 453.61Z" id="b59GPD3ovP"></path><path d="M355.1 451.38C354.83 449.49 352.59 448.23 350.09 448.57C347.59 448.91 345.79 450.72 346.06 452.61C346.35 454.67 348.68 471.15 348.97 473.21C349.24 475.11 351.48 476.37 353.97 476.03C356.47 475.69 358.28 473.88 358.01 471.98C357.43 467.86 355.39 453.44 355.1 451.38Z" id="b9hyjJBAIr"></path><path d="M365.26 449.57C364.96 447.68 362.7 446.44 360.21 446.82C357.72 447.19 355.94 449.03 356.23 450.92C356.55 452.98 359.11 469.42 359.43 471.48C359.73 473.37 361.98 474.6 364.48 474.23C366.97 473.85 368.75 472.02 368.45 470.12C367.81 466.01 365.58 451.62 365.26 449.57Z" id="b10RMZD6tB"></path><path d="M375.65 446.38C375.3 444.49 373.01 443.32 370.53 443.76C368.05 444.2 366.32 446.09 366.67 447.97C367.05 450.02 370.06 466.39 370.44 468.43C370.78 470.32 373.08 471.49 375.56 471.05C378.04 470.61 379.77 468.72 379.42 466.84C378.67 462.75 376.03 448.42 375.65 446.38Z" id="b1nC3yd1iG"></path><path d="M384.96 443.14C384.51 441.27 382.16 440.23 379.71 440.8C377.25 441.37 375.63 443.34 376.08 445.2C376.57 447.23 380.48 463.41 380.96 465.44C381.41 467.3 383.77 468.35 386.22 467.78C388.67 467.21 390.3 465.23 389.85 463.37C388.87 459.32 385.45 445.16 384.96 443.14Z" id="c149vlxxAn"></path><path d="M394.77 439.61C394.27 437.76 391.89 436.77 389.45 437.41C387.02 438.04 385.45 440.06 385.95 441.91C386.49 443.92 390.84 460 391.38 462.01C391.88 463.86 394.27 464.84 396.7 464.21C399.14 463.57 400.71 461.56 400.21 459.71C399.12 455.69 395.32 441.62 394.77 439.61Z" id="b1KTanbXZH"></path><path d="M404.26 435.55C403.75 433.7 401.37 432.72 398.93 433.36C396.5 434.01 394.94 436.03 395.44 437.88C396 439.88 400.4 455.95 400.95 457.96C401.46 459.8 403.85 460.78 406.28 460.14C408.71 459.49 410.27 457.47 409.77 455.63C408.67 451.61 404.81 437.55 404.26 435.55Z" id="gyIDSUeqk"></path><path d="M413.53 430.84C412.95 429.01 410.53 428.13 408.12 428.86C405.71 429.6 404.23 431.68 404.82 433.51C405.45 435.49 410.5 451.37 411.13 453.36C411.71 455.19 414.13 456.07 416.54 455.33C418.95 454.59 420.43 452.51 419.84 450.69C418.58 446.72 414.16 432.82 413.53 430.84Z" id="a2R17UcHAt"></path><path d="M422.39 425.85C421.74 424.05 419.28 423.27 416.91 424.1C414.53 424.93 413.14 427.07 413.8 428.87C414.51 430.83 420.22 446.49 420.93 448.45C421.59 450.25 424.05 451.04 426.42 450.21C428.79 449.37 430.18 447.24 429.53 445.43C428.1 441.52 423.11 427.81 422.39 425.85Z" id="a1DWBXWcgt"></path><path d="M431.18 419.83C430.43 418.07 427.93 417.41 425.6 418.36C423.28 419.31 422 421.51 422.75 423.28C423.56 425.2 430.08 440.56 430.89 442.48C431.64 444.24 434.14 444.91 436.46 443.95C438.79 443 440.07 440.8 439.32 439.03C437.69 435.19 431.99 421.75 431.18 419.83Z" id="bpGvk93le"></path><path d="M438.82 413.67C437.94 411.96 435.4 411.48 433.15 412.6C430.9 413.72 429.8 416.01 430.68 417.72C431.63 419.57 439.29 434.41 440.25 436.27C441.13 437.98 443.66 438.45 445.91 437.34C448.16 436.22 449.27 433.93 448.39 432.22C446.48 428.51 439.78 415.52 438.82 413.67Z" id="a38LO6VvHR"></path><path d="M446.71 407.66C445.72 406.01 443.15 405.7 440.99 406.96C438.82 408.23 437.87 410.58 438.86 412.23C439.94 414.02 448.59 428.32 449.67 430.11C450.67 431.76 453.23 432.07 455.4 430.81C457.57 429.54 458.52 427.18 457.52 425.54C455.36 421.96 447.79 409.44 446.71 407.66Z" id="aJheuVvfr"></path><path d="M454.55 401.09C453.51 399.47 450.94 399.23 448.81 400.55C446.67 401.87 445.79 404.25 446.83 405.87C447.96 407.63 457.01 421.7 458.14 423.45C459.18 425.07 461.75 425.31 463.88 423.99C466.02 422.67 466.9 420.29 465.86 418.67C463.6 415.15 455.68 402.84 454.55 401.09Z" id="gD20lSHXD"></path><path d="M462.13 394.27C461.01 392.7 458.43 392.59 456.37 394.01C454.31 395.44 453.55 397.86 454.67 399.43C455.89 401.13 465.64 414.73 466.86 416.43C467.98 418 470.56 418.11 472.63 416.68C474.69 415.26 475.45 412.84 474.33 411.27C471.89 407.87 463.35 395.97 462.13 394.27Z" id="a12hludKA5"></path><path d="M469.08 386.39C467.84 384.91 465.26 384.98 463.31 386.56C461.36 388.13 460.78 390.6 462.02 392.08C463.36 393.68 474.12 406.54 475.46 408.15C476.7 409.63 479.28 409.56 481.23 407.99C483.18 406.41 483.75 403.94 482.52 402.46C479.83 399.25 470.42 388 469.08 386.39Z" id="e1oR2HYtDZ"></path><path d="M475.51 379.03C474.18 377.64 471.61 377.87 469.76 379.56C467.92 381.25 467.51 383.75 468.84 385.15C470.29 386.67 481.85 398.83 483.3 400.35C484.63 401.75 487.2 401.51 489.04 399.82C490.89 398.13 491.3 395.63 489.97 394.23C487.08 391.19 476.96 380.55 475.51 379.03Z" id="aFnVYakX"></path><path d="M481.82 370.97C480.42 369.63 477.86 369.98 476.1 371.74C474.34 373.51 474.04 376.03 475.43 377.37C476.94 378.83 489.05 390.47 490.56 391.92C491.95 393.26 494.51 392.91 496.28 391.15C498.04 389.38 498.34 386.86 496.95 385.52C493.92 382.61 483.33 372.42 481.82 370.97Z" id="b11xaTnzTk"></path><path d="M487.8 363.2C486.39 361.87 483.83 362.25 482.09 364.04C480.35 365.83 480.09 368.36 481.5 369.68C483.03 371.11 495.29 382.6 496.82 384.04C498.23 385.36 500.78 384.98 502.52 383.19C504.26 381.4 504.53 378.87 503.12 377.55C500.06 374.68 489.33 364.63 487.8 363.2Z" id="b44q1jWNlo"></path><path d="M492.82 355.21C491.35 353.96 488.81 354.45 487.16 356.32C485.51 358.19 485.36 360.72 486.83 361.98C488.43 363.34 501.23 374.25 502.83 375.61C504.3 376.87 506.83 376.37 508.49 374.5C510.14 372.63 510.29 370.1 508.81 368.85C505.61 366.12 494.42 356.58 492.82 355.21Z" id="bLdpkQyNA"></path><path d="M497.53 346.9C496 345.72 493.49 346.34 491.94 348.29C490.38 350.24 490.37 352.77 491.9 353.95C493.57 355.24 506.91 365.49 508.58 366.77C510.12 367.95 512.62 367.33 514.17 365.38C515.73 363.44 515.74 360.9 514.21 359.72C510.87 357.15 499.2 348.18 497.53 346.9Z" id="guM0kxoTx"></path><path d="M501.75 338.39C500.15 337.31 497.69 338.08 496.25 340.12C494.82 342.15 494.97 344.69 496.57 345.77C498.31 346.95 512.27 356.4 514.01 357.58C515.62 358.66 518.08 357.89 519.51 355.85C520.94 353.82 520.8 351.28 519.19 350.2C515.7 347.84 503.5 339.57 501.75 338.39Z" id="b3mIxfu8vZ"></path><path d="M506.23 329.43C504.58 328.41 502.16 329.27 500.81 331.36C499.46 333.45 499.7 335.98 501.34 337C503.13 338.11 517.44 347.02 519.23 348.14C520.88 349.16 523.31 348.3 524.66 346.21C526.01 344.12 525.77 341.59 524.12 340.57C520.54 338.34 508.02 330.55 506.23 329.43Z" id="bZDi1jVVu"></path><path d="M509.47 320.28C507.74 319.41 505.4 320.49 504.25 322.69C503.11 324.89 503.58 327.39 505.32 328.26C507.21 329.2 522.29 336.78 524.18 337.72C525.92 338.59 528.25 337.51 529.4 335.31C530.55 333.11 530.07 330.62 528.33 329.74C524.56 327.85 511.36 321.23 509.47 320.28Z" id="b2gxlq0mtf"></path><path d="M512.48 311.41C510.68 310.67 508.44 311.92 507.46 314.21C506.49 316.49 507.16 318.94 508.96 319.68C510.92 320.48 526.55 326.89 528.51 327.69C530.31 328.43 532.55 327.18 533.52 324.9C534.5 322.61 533.82 320.16 532.03 319.42C528.12 317.82 514.44 312.21 512.48 311.41Z" id="b1NAK20Qqn"></path><path d="M515.36 301.72C513.52 301.09 511.35 302.48 510.53 304.82C509.7 307.16 510.53 309.56 512.37 310.19C514.37 310.87 530.39 316.31 532.39 316.99C534.23 317.62 536.39 316.23 537.22 313.89C538.04 311.55 537.22 309.15 535.37 308.52C531.37 307.16 517.36 302.4 515.36 301.72Z" id="aAcwDSw1H"></path><path d="M517.58 292.23C515.71 291.68 513.61 293.15 512.88 295.52C512.15 297.89 513.07 300.26 514.94 300.81C516.96 301.41 533.18 306.23 535.21 306.83C537.08 307.38 539.18 305.91 539.91 303.54C540.64 301.17 539.72 298.8 537.85 298.25C533.8 297.05 519.61 292.83 517.58 292.23Z" id="b25t7CNli"></path><path d="M521.61 264.04C519.66 263.93 517.97 265.85 517.83 268.32C517.69 270.79 519.15 272.88 521.1 272.99C523.22 273.1 540.13 274.03 542.25 274.15C544.2 274.26 545.89 272.34 546.03 269.87C546.17 267.4 544.71 265.31 542.76 265.2C538.53 264.97 523.73 264.16 521.61 264.04Z" id="aKbk2EUEr"></path><path d="M520.63 273.78C518.69 273.62 516.95 275.5 516.74 277.96C516.54 280.43 517.95 282.55 519.89 282.71C522 282.88 538.89 284.23 541 284.4C542.94 284.55 544.69 282.68 544.89 280.21C545.1 277.75 543.69 275.62 541.74 275.47C537.52 275.13 522.74 273.95 520.63 273.78Z" id="a7Q2Ub0wb"></path><path d="M519.25 283.05C517.34 282.63 515.35 284.25 514.8 286.66C514.25 289.08 515.34 291.37 517.24 291.79C519.31 292.25 535.84 295.9 537.91 296.36C539.81 296.78 541.8 295.16 542.35 292.75C542.91 290.34 541.81 288.04 539.91 287.62C535.78 286.7 521.31 283.51 519.25 283.05Z" id="eOIphRO5S"></path><path d="M133.12 608.21L142.79 608.21L152.47 608.21L152.47 583.49L152.47 558.53L178.26 595.5L204.06 632.47L204.06 569.39L204.06 506.54L194.38 506.54L184.71 506.54L184.71 533.58L184.71 560.84L158.92 523.87L133.12 486.9L133.12 547.67L133.12 608.21Z" id="b60iNWeHqm"></path><path d="M510.37 608.21L520.85 608.21L531.33 608.21L531.33 583.49L531.33 558.53L556.32 594.35L581.31 630.16L581.31 568.24L581.31 506.54L571.63 506.54L561.96 506.54L561.96 533.58L561.96 560.84L536.16 523.87L510.37 486.9L510.37 547.67L510.37 608.21Z" id="c289mQuxyh"></path><path d="M241.14 528.26L251.13 542.82L261.29 557.38L247.1 577.71L233.08 597.81L233.08 570.55L233.08 543.51L223.4 543.51L213.73 543.51L213.73 575.86L213.73 608.21L234.37 608.21L255 608.21C260.71 599.89 263.88 595.27 264.51 594.35C269.83 586.72 274.83 580.48 275.8 580.48C276.6 580.48 285.47 592.27 295.47 606.36C296.68 608.1 302.75 616.81 313.68 632.47L313.68 611.68L313.68 590.88L302.08 574.24L290.31 557.38L306.11 534.73L321.75 512.32L321.75 560.38L321.75 608.21L357.21 608.21L392.68 608.21L392.68 594.35L392.68 580.48L366.89 580.48L341.09 580.48L341.09 557.38L341.09 534.27L366.89 534.27L392.68 534.27L392.68 520.41L392.68 506.54L344.64 506.54L296.6 506.54L286.28 521.56L275.8 536.58C266.13 522.72 260.75 515.02 259.68 513.47C250.81 500.77 242.91 490.37 242.27 490.37C241.62 490.37 241.14 498.92 241.14 509.32C241.14 511.84 241.14 518.16 241.14 528.26Z" id="blcz6FcFz"></path><path d="M52.51 608.21L52.51 506.54L123.45 506.54L123.45 608.21L52.51 608.21ZM73.47 580.48L104.1 580.48L104.1 534.27L73.47 534.27L73.47 580.48Z" id="bQZAXizDL"></path><path d="M402.35 608.21L402.35 506.54L473.29 506.54L473.29 608.21L402.35 608.21ZM421.7 580.48L452.33 580.48L452.33 534.27L421.7 534.27L421.7 580.48Z" id="g1BKwMjPnl"></path><path d="M481.35 534.27L491.83 534.27L502.31 534.27L502.31 520.41L502.31 506.54L491.83 506.54L481.35 506.54L481.35 520.41L481.35 534.27Z" id="d19kMWFq8n"></path><path d="M481.35 608.21L491.83 608.21L502.31 608.21L502.31 575.86L502.31 543.51L491.83 543.51L481.35 543.51L481.35 575.86L481.35 608.21Z" id="ctuENpM2r"></path><path d="M214.86 534.27L225.34 534.27L235.81 534.27L235.81 520.41L235.81 506.54L225.34 506.54L214.86 506.54L214.86 520.41L214.86 534.27Z" id="cSp2vE9Fx"></path></defs><g><g><g><use xlink:href="#d3vBjNV1Q" opacity="1" fill="#000000" fill-opacity="1"></use><g><use xlink:href="#d3vBjNV1Q" opacity="1" fill-opacity="0" stroke="#000000" stroke-width="1" stroke-opacity="0"></use></g></g><g><use xlink:href="#j2m2Vh4ix" opacity="1" fill="#fedb41" fill-opacity="1"></use><g><use xlink:href="#j2m2Vh4ix" opacity="1" fill-opacity="0" stroke="#000000" stroke-width="1" stroke-opacity="0"></use></g></g><g><use xlink:href="#b1UOJjk2K1" opacity="1" fill="#ffcc33" fill-opacity="1"></use><g><use xlink:href="#b1UOJjk2K1" opacity="1" fill-opacity="0" stroke="#000000" stroke-width="1" stroke-opacity="0"></use></g></g><g><use xlink:href="#c3KK5bEPp" opacity="1" fill="#fedb41" fill-opacity="1"></use><g><use xlink:href="#c3KK5bEPp" opacity="1" fill-opacity="0" stroke="#000000" stroke-width="1" stroke-opacity="0"></use></g></g><g><use xlink:href="#avzkKJzNC" opacity="1" fill="#000000" fill-opacity="1"></use><g><use xlink:href="#avzkKJzNC" opacity="1" fill-opacity="0" stroke="#000000" stroke-width="1" stroke-opacity="0"></use></g></g><g><use xlink:href="#fq1if8jlX" opacity="1" fill="#fedb41" fill-opacity="1"></use></g><g><use xlink:href="#c1dydzRm79" opacity="1" fill="#ffcc33" fill-opacity="1"></use></g><g><use xlink:href="#dnobB1Yhi" opacity="1" fill="#ffcc33" fill-opacity="1"></use></g><g><use xlink:href="#j3d4E31P4" opacity="1" fill="#fedb41" fill-opacity="1"></use></g><g><use xlink:href="#gw7FnsLXa" opacity="1" fill="#000000" fill-opacity="1"></use><g><use xlink:href="#gw7FnsLXa" opacity="1" fill-opacity="0" stroke="#000000" stroke-width="1" stroke-opacity="0"></use></g></g><g><use xlink:href="#ai26Dh9Lj" opacity="1" fill="#000000" fill-opacity="1"></use><g><use xlink:href="#ai26Dh9Lj" opacity="1" fill-opacity="0" stroke="#000000" stroke-width="1" stroke-opacity="0"></use></g></g><g><use xlink:href="#c5jzGdkR9B" opacity="1" fill="#000000" fill-opacity="1"></use><g><use xlink:href="#c5jzGdkR9B" opacity="1" fill-opacity="0" stroke="#000000" stroke-width="1" stroke-opacity="0"></use></g></g><g><use xlink:href="#avTFFHlQ3" opacity="1" fill="#000000" fill-opacity="1"></use><g><use xlink:href="#avTFFHlQ3" opacity="1" fill-opacity="0" stroke="#000000" stroke-width="1" stroke-opacity="0"></use></g></g><g><use xlink:href="#b4bGU69UNr" opacity="1" fill="#000000" fill-opacity="1"></use><g><use xlink:href="#b4bGU69UNr" opacity="1" fill-opacity="0" stroke="#000000" stroke-width="1" stroke-opacity="0"></use></g></g><g><use xlink:href="#b41a2i3vd4" opacity="1" fill="#000000" fill-opacity="1"></use><g><use xlink:href="#b41a2i3vd4" opacity="1" fill-opacity="0" stroke="#000000" stroke-width="1" stroke-opacity="0"></use></g></g><g><use xlink:href="#c1kpWTX9Qk" opacity="1" fill="#000000" fill-opacity="1"></use><g><use xlink:href="#c1kpWTX9Qk" opacity="1" fill-opacity="0" stroke="#000000" stroke-width="1" stroke-opacity="0"></use></g></g><g><use xlink:href="#adY2tXvga" opacity="1" fill="#000000" fill-opacity="1"></use><g><use xlink:href="#adY2tXvga" opacity="1" fill-opacity="0" stroke="#000000" stroke-width="1" stroke-opacity="0"></use></g></g><g><use xlink:href="#b5lpqUySu" opacity="1" fill="#000000" fill-opacity="1"></use><g><use xlink:href="#b5lpqUySu" opacity="1" fill-opacity="0" stroke="#000000" stroke-width="1" stroke-opacity="0"></use></g></g><g><use xlink:href="#baReZT8Hg" opacity="1" fill="#000000" fill-opacity="1"></use><g><use xlink:href="#baReZT8Hg" opacity="1" fill-opacity="0" stroke="#000000" stroke-width="1" stroke-opacity="0"></use></g></g><g><use xlink:href="#eVsU0HBhr" opacity="1" fill="#000000" fill-opacity="1"></use><g><use xlink:href="#eVsU0HBhr" opacity="1" fill-opacity="0" stroke="#000000" stroke-width="1" stroke-opacity="0"></use></g></g><g><use xlink:href="#aLk66C31X" opacity="1" fill="#000000" fill-opacity="1"></use><g><use xlink:href="#aLk66C31X" opacity="1" fill-opacity="0" stroke="#000000" stroke-width="1" stroke-opacity="0"></use></g></g><g><use xlink:href="#a2jmxWZhX" opacity="1" fill="#000000" fill-opacity="1"></use><g><use xlink:href="#a2jmxWZhX" opacity="1" fill-opacity="0" stroke="#000000" stroke-width="1" stroke-opacity="0"></use></g></g><g><use xlink:href="#a1a5FmEJZi" opacity="1" fill="#000000" fill-opacity="1"></use><g><use xlink:href="#a1a5FmEJZi" opacity="1" fill-opacity="0" stroke="#000000" stroke-width="1" stroke-opacity="0"></use></g></g><g><use xlink:href="#a99uscQ8V" opacity="1" fill="#000000" fill-opacity="1"></use><g><use xlink:href="#a99uscQ8V" opacity="1" fill-opacity="0" stroke="#000000" stroke-width="1" stroke-opacity="0"></use></g></g><g><use xlink:href="#batJVvM1y" opacity="1" fill="#000000" fill-opacity="1"></use><g><use xlink:href="#batJVvM1y" opacity="1" fill-opacity="0" stroke="#000000" stroke-width="1" stroke-opacity="0"></use></g></g><g><use xlink:href="#c2869C39So" opacity="1" fill="#000000" fill-opacity="1"></use><g><use xlink:href="#c2869C39So" opacity="1" fill-opacity="0" stroke="#000000" stroke-width="1" stroke-opacity="0"></use></g></g><g><use xlink:href="#f1irw6WsGc" opacity="1" fill="#000000" fill-opacity="1"></use><g><use xlink:href="#f1irw6WsGc" opacity="1" fill-opacity="0" stroke="#000000" stroke-width="1" stroke-opacity="0"></use></g></g><g><use xlink:href="#c4pPxrrP6p" opacity="1" fill="#000000" fill-opacity="1"></use><g><use xlink:href="#c4pPxrrP6p" opacity="1" fill-opacity="0" stroke="#000000" stroke-width="1" stroke-opacity="0"></use></g></g><g><use xlink:href="#d1Fjc9WdqK" opacity="1" fill="#000000" fill-opacity="1"></use><g><use xlink:href="#d1Fjc9WdqK" opacity="1" fill-opacity="0" stroke="#000000" stroke-width="1" stroke-opacity="0"></use></g></g><g><use xlink:href="#ep0nD5xdR" opacity="1" fill="#000000" fill-opacity="1"></use><g><use xlink:href="#ep0nD5xdR" opacity="1" fill-opacity="0" stroke="#000000" stroke-width="1" stroke-opacity="0"></use></g></g><g><use xlink:href="#aJ195p0Dv" opacity="1" fill="#000000" fill-opacity="1"></use><g><use xlink:href="#aJ195p0Dv" opacity="1" fill-opacity="0" stroke="#000000" stroke-width="1" stroke-opacity="0"></use></g></g><g><use xlink:href="#edTWCnsKQ" opacity="1" fill="#000000" fill-opacity="1"></use><g><use xlink:href="#edTWCnsKQ" opacity="1" fill-opacity="0" stroke="#000000" stroke-width="1" stroke-opacity="0"></use></g></g><g><use xlink:href="#a2oJX3D1FY" opacity="1" fill="#000000" fill-opacity="1"></use><g><use xlink:href="#a2oJX3D1FY" opacity="1" fill-opacity="0" stroke="#000000" stroke-width="1" stroke-opacity="0"></use></g></g><g><use xlink:href="#g1UGpIhpzV" opacity="1" fill="#000000" fill-opacity="1"></use><g><use xlink:href="#g1UGpIhpzV" opacity="1" fill-opacity="0" stroke="#000000" stroke-width="1" stroke-opacity="0"></use></g></g><g><use xlink:href="#cF8D5PUu" opacity="1" fill="#000000" fill-opacity="1"></use><g><use xlink:href="#cF8D5PUu" opacity="1" fill-opacity="0" stroke="#000000" stroke-width="1" stroke-opacity="0"></use></g></g><g><use xlink:href="#i165r0ld9S" opacity="1" fill="#000000" fill-opacity="1"></use><g><use xlink:href="#i165r0ld9S" opacity="1" fill-opacity="0" stroke="#000000" stroke-width="1" stroke-opacity="0"></use></g></g><g><use xlink:href="#e35VN5neXW" opacity="1" fill="#000000" fill-opacity="1"></use><g><use xlink:href="#e35VN5neXW" opacity="1" fill-opacity="0" stroke="#000000" stroke-width="1" stroke-opacity="0"></use></g></g><g><use xlink:href="#a3o2cG4pBx" opacity="1" fill="#000000" fill-opacity="1"></use><g><use xlink:href="#a3o2cG4pBx" opacity="1" fill-opacity="0" stroke="#000000" stroke-width="1" stroke-opacity="0"></use></g></g><g><use xlink:href="#i4UKyRDvPE" opacity="1" fill="#000000" fill-opacity="1"></use><g><use xlink:href="#i4UKyRDvPE" opacity="1" fill-opacity="0" stroke="#000000" stroke-width="1" stroke-opacity="0"></use></g></g><g><use xlink:href="#a8Byvdlkz" opacity="1" fill="#000000" fill-opacity="1"></use><g><use xlink:href="#a8Byvdlkz" opacity="1" fill-opacity="0" stroke="#000000" stroke-width="1" stroke-opacity="0"></use></g></g><g><use xlink:href="#afgcS4pnj" opacity="1" fill="#000000" fill-opacity="1"></use><g><use xlink:href="#afgcS4pnj" opacity="1" fill-opacity="0" stroke="#000000" stroke-width="1" stroke-opacity="0"></use></g></g><g><use xlink:href="#bnSnxpmBU" opacity="1" fill="#000000" fill-opacity="1"></use><g><use xlink:href="#bnSnxpmBU" opacity="1" fill-opacity="0" stroke="#000000" stroke-width="1" stroke-opacity="0"></use></g></g><g><use xlink:href="#d57oVCnDWc" opacity="1" fill="#000000" fill-opacity="1"></use><g><use xlink:href="#d57oVCnDWc" opacity="1" fill-opacity="0" stroke="#000000" stroke-width="1" stroke-opacity="0"></use></g></g><g><use xlink:href="#c1np0Mekkg" opacity="1" fill="#000000" fill-opacity="1"></use><g><use xlink:href="#c1np0Mekkg" opacity="1" fill-opacity="0" stroke="#000000" stroke-width="1" stroke-opacity="0"></use></g></g><g><use xlink:href="#aeFhXo6w1" opacity="1" fill="#000000" fill-opacity="1"></use><g><use xlink:href="#aeFhXo6w1" opacity="1" fill-opacity="0" stroke="#000000" stroke-width="1" stroke-opacity="0"></use></g></g><g><use xlink:href="#b5CgACxjkZ" opacity="1" fill="#000000" fill-opacity="1"></use><g><use xlink:href="#b5CgACxjkZ" opacity="1" fill-opacity="0" stroke="#000000" stroke-width="1" stroke-opacity="0"></use></g></g><g><use xlink:href="#cH48tjrBy" opacity="1" fill="#000000" fill-opacity="1"></use><g><use xlink:href="#cH48tjrBy" opacity="1" fill-opacity="0" stroke="#000000" stroke-width="1" stroke-opacity="0"></use></g></g><g><use xlink:href="#a7v2bhtUFp" opacity="1" fill="#000000" fill-opacity="1"></use><g><use xlink:href="#a7v2bhtUFp" opacity="1" fill-opacity="0" stroke="#000000" stroke-width="1" stroke-opacity="0"></use></g></g><g><use xlink:href="#a1oM8t4cIr" opacity="1" fill="#000000" fill-opacity="1"></use><g><use xlink:href="#a1oM8t4cIr" opacity="1" fill-opacity="0" stroke="#000000" stroke-width="1" stroke-opacity="0"></use></g></g><g><use xlink:href="#iHRN2sFpI" opacity="1" fill="#000000" fill-opacity="1"></use><g><use xlink:href="#iHRN2sFpI" opacity="1" fill-opacity="0" stroke="#000000" stroke-width="1" stroke-opacity="0"></use></g></g><g><use xlink:href="#a47TlQAvpv" opacity="1" fill="#000000" fill-opacity="1"></use><g><use xlink:href="#a47TlQAvpv" opacity="1" fill-opacity="0" stroke="#000000" stroke-width="1" stroke-opacity="0"></use></g></g><g><use xlink:href="#aKJNxJOG6" opacity="1" fill="#000000" fill-opacity="1"></use><g><use xlink:href="#aKJNxJOG6" opacity="1" fill-opacity="0" stroke="#000000" stroke-width="1" stroke-opacity="0"></use></g></g><g><use xlink:href="#c10TqX65yM" opacity="1" fill="#000000" fill-opacity="1"></use><g><use xlink:href="#c10TqX65yM" opacity="1" fill-opacity="0" stroke="#000000" stroke-width="1" stroke-opacity="0"></use></g></g><g><use xlink:href="#d1nFiltct7" opacity="1" fill="#000000" fill-opacity="1"></use><g><use xlink:href="#d1nFiltct7" opacity="1" fill-opacity="0" stroke="#000000" stroke-width="1" stroke-opacity="0"></use></g></g><g><use xlink:href="#b43Y2JxGPL" opacity="1" fill="#000000" fill-opacity="1"></use><g><use xlink:href="#b43Y2JxGPL" opacity="1" fill-opacity="0" stroke="#000000" stroke-width="1" stroke-opacity="0"></use></g></g><g><use xlink:href="#c5Oixp41c" opacity="1" fill="#000000" fill-opacity="1"></use><g><use xlink:href="#c5Oixp41c" opacity="1" fill-opacity="0" stroke="#000000" stroke-width="1" stroke-opacity="0"></use></g></g><g><use xlink:href="#e16xPCnRT3" opacity="1" fill="#000000" fill-opacity="1"></use><g><use xlink:href="#e16xPCnRT3" opacity="1" fill-opacity="0" stroke="#000000" stroke-width="1" stroke-opacity="0"></use></g></g><g><use xlink:href="#c1CTaqJ5Rd" opacity="1" fill="#000000" fill-opacity="1"></use><g><use xlink:href="#c1CTaqJ5Rd" opacity="1" fill-opacity="0" stroke="#000000" stroke-width="1" stroke-opacity="0"></use></g></g><g><use xlink:href="#b76nVAfq4" opacity="1" fill="#000000" fill-opacity="1"></use><g><use xlink:href="#b76nVAfq4" opacity="1" fill-opacity="0" stroke="#000000" stroke-width="1" stroke-opacity="0"></use></g></g><g><use xlink:href="#b3e3mB5CNU" opacity="1" fill="#000000" fill-opacity="1"></use><g><use xlink:href="#b3e3mB5CNU" opacity="1" fill-opacity="0" stroke="#000000" stroke-width="1" stroke-opacity="0"></use></g></g><g><use xlink:href="#b1RxI7Exe8" opacity="1" fill="#000000" fill-opacity="1"></use><g><use xlink:href="#b1RxI7Exe8" opacity="1" fill-opacity="0" stroke="#000000" stroke-width="1" stroke-opacity="0"></use></g></g><g><use xlink:href="#acg8IUdv5" opacity="1" fill="#000000" fill-opacity="1"></use><g><use xlink:href="#acg8IUdv5" opacity="1" fill-opacity="0" stroke="#000000" stroke-width="1" stroke-opacity="0"></use></g></g><g><use xlink:href="#apAT0V6VW" opacity="1" fill="#070000" fill-opacity="1"></use><g><use xlink:href="#apAT0V6VW" opacity="1" fill-opacity="0" stroke="#000000" stroke-width="1" stroke-opacity="0"></use></g></g><g><use xlink:href="#b2MDEDUwiz" opacity="1" fill="#000000" fill-opacity="1"></use><g><use xlink:href="#b2MDEDUwiz" opacity="1" fill-opacity="0" stroke="#000000" stroke-width="1" stroke-opacity="0"></use></g></g><g><use xlink:href="#c1cvs4uPFE" opacity="1" fill="#000000" fill-opacity="1"></use><g><use xlink:href="#c1cvs4uPFE" opacity="1" fill-opacity="0" stroke="#000000" stroke-width="1" stroke-opacity="0"></use></g></g><g><use xlink:href="#bQthVhws1" opacity="1" fill="#000000" fill-opacity="1"></use><g><use xlink:href="#bQthVhws1" opacity="1" fill-opacity="0" stroke="#000000" stroke-width="1" stroke-opacity="0"></use></g></g><g><use xlink:href="#a3XD57xZUV" opacity="1" fill="#000000" fill-opacity="1"></use><g><use xlink:href="#a3XD57xZUV" opacity="1" fill-opacity="0" stroke="#000000" stroke-width="1" stroke-opacity="0"></use></g></g><g><use xlink:href="#aftyngLr9" opacity="1" fill="#000000" fill-opacity="1"></use><g><use xlink:href="#aftyngLr9" opacity="1" fill-opacity="0" stroke="#000000" stroke-width="1" stroke-opacity="0"></use></g></g><g><use xlink:href="#a13TnY8IsK" opacity="1" fill="#000000" fill-opacity="1"></use><g><use xlink:href="#a13TnY8IsK" opacity="1" fill-opacity="0" stroke="#000000" stroke-width="1" stroke-opacity="0"></use></g></g><g><use xlink:href="#ajQCRpJvG" opacity="1" fill="#000000" fill-opacity="1"></use><g><use xlink:href="#ajQCRpJvG" opacity="1" fill-opacity="0" stroke="#000000" stroke-width="1" stroke-opacity="0"></use></g></g><g><use xlink:href="#b2cB7F8DC" opacity="1" fill="#000000" fill-opacity="1"></use><g><use xlink:href="#b2cB7F8DC" opacity="1" fill-opacity="0" stroke="#000000" stroke-width="1" stroke-opacity="0"></use></g></g><g><use xlink:href="#aGB83szKQ" opacity="1" fill="#000000" fill-opacity="1"></use><g><use xlink:href="#aGB83szKQ" opacity="1" fill-opacity="0" stroke="#000000" stroke-width="1" stroke-opacity="0"></use></g></g><g><use xlink:href="#bdaEYnkMC" opacity="1" fill="#000000" fill-opacity="1"></use><g><use xlink:href="#bdaEYnkMC" opacity="1" fill-opacity="0" stroke="#000000" stroke-width="1" stroke-opacity="0"></use></g></g><g><use xlink:href="#ccMqUsE7j" opacity="1" fill="#000000" fill-opacity="1"></use><g><use xlink:href="#ccMqUsE7j" opacity="1" fill-opacity="0" stroke="#000000" stroke-width="1" stroke-opacity="0"></use></g></g><g><use xlink:href="#aP9BN8w3K" opacity="1" fill="#000000" fill-opacity="1"></use><g><use xlink:href="#aP9BN8w3K" opacity="1" fill-opacity="0" stroke="#000000" stroke-width="1" stroke-opacity="0"></use></g></g><g><use xlink:href="#iP5Be091o" opacity="1" fill="#000000" fill-opacity="1"></use><g><use xlink:href="#iP5Be091o" opacity="1" fill-opacity="0" stroke="#000000" stroke-width="1" stroke-opacity="0"></use></g></g><g><use xlink:href="#c17Ip1o2Vj" opacity="1" fill="#000000" fill-opacity="1"></use><g><use xlink:href="#c17Ip1o2Vj" opacity="1" fill-opacity="0" stroke="#000000" stroke-width="1" stroke-opacity="0"></use></g></g><g><use xlink:href="#f5uLERIBVq" opacity="1" fill="#000000" fill-opacity="1"></use><g><use xlink:href="#f5uLERIBVq" opacity="1" fill-opacity="0" stroke="#000000" stroke-width="1" stroke-opacity="0"></use></g></g><g><use xlink:href="#a3bERajlQ6" opacity="1" fill="#000000" fill-opacity="1"></use><g><use xlink:href="#a3bERajlQ6" opacity="1" fill-opacity="0" stroke="#000000" stroke-width="1" stroke-opacity="0"></use></g></g><g><use xlink:href="#bePFv6MJ" opacity="1" fill="#000000" fill-opacity="1"></use><g><use xlink:href="#bePFv6MJ" opacity="1" fill-opacity="0" stroke="#000000" stroke-width="1" stroke-opacity="0"></use></g></g><g><use xlink:href="#a13iTYYOIj" opacity="1" fill="#000000" fill-opacity="1"></use><g><use xlink:href="#a13iTYYOIj" opacity="1" fill-opacity="0" stroke="#000000" stroke-width="1" stroke-opacity="0"></use></g></g><g><use xlink:href="#a2To9QiWyl" opacity="1" fill="#000000" fill-opacity="1"></use><g><use xlink:href="#a2To9QiWyl" opacity="1" fill-opacity="0" stroke="#000000" stroke-width="1" stroke-opacity="0"></use></g></g><g><use xlink:href="#a6UTHTl872" opacity="1" fill="#000000" fill-opacity="1"></use><g><use xlink:href="#a6UTHTl872" opacity="1" fill-opacity="0" stroke="#000000" stroke-width="1" stroke-opacity="0"></use></g></g><g><use xlink:href="#b15zOerUP6" opacity="1" fill="#000000" fill-opacity="1"></use><g><use xlink:href="#b15zOerUP6" opacity="1" fill-opacity="0" stroke="#000000" stroke-width="1" stroke-opacity="0"></use></g></g><g><use xlink:href="#b3PHuEvNU4" opacity="1" fill="#000000" fill-opacity="1"></use><g><use xlink:href="#b3PHuEvNU4" opacity="1" fill-opacity="0" stroke="#000000" stroke-width="1" stroke-opacity="0"></use></g></g><g><use xlink:href="#c1jeWKO7Fc" opacity="1" fill="#000000" fill-opacity="1"></use><g><use xlink:href="#c1jeWKO7Fc" opacity="1" fill-opacity="0" stroke="#000000" stroke-width="1" stroke-opacity="0"></use></g></g><g><use xlink:href="#b3QeWayE86" opacity="1" fill="#000000" fill-opacity="1"></use><g><use xlink:href="#b3QeWayE86" opacity="1" fill-opacity="0" stroke="#000000" stroke-width="1" stroke-opacity="0"></use></g></g><g><use xlink:href="#bjxXFB8DS" opacity="1" fill="#000000" fill-opacity="1"></use><g><use xlink:href="#bjxXFB8DS" opacity="1" fill-opacity="0" stroke="#000000" stroke-width="1" stroke-opacity="0"></use></g></g><g><use xlink:href="#daVwCXXC" opacity="1" fill="#000000" fill-opacity="1"></use><g><use xlink:href="#daVwCXXC" opacity="1" fill-opacity="0" stroke="#000000" stroke-width="1" stroke-opacity="0"></use></g></g><g><use xlink:href="#f4bfg7rs2k" opacity="1" fill="#000000" fill-opacity="1"></use><g><use xlink:href="#f4bfg7rs2k" opacity="1" fill-opacity="0" stroke="#000000" stroke-width="1" stroke-opacity="0"></use></g></g><g><use xlink:href="#b2ts4d9MwS" opacity="1" fill="#000000" fill-opacity="1"></use><g><use xlink:href="#b2ts4d9MwS" opacity="1" fill-opacity="0" stroke="#000000" stroke-width="1" stroke-opacity="0"></use></g></g><g><use xlink:href="#c2fsNr0qqI" opacity="1" fill="#000000" fill-opacity="1"></use><g><use xlink:href="#c2fsNr0qqI" opacity="1" fill-opacity="0" stroke="#000000" stroke-width="1" stroke-opacity="0"></use></g></g><g><use xlink:href="#e3fEIffEw" opacity="1" fill="#000000" fill-opacity="1"></use><g><use xlink:href="#e3fEIffEw" opacity="1" fill-opacity="0" stroke="#000000" stroke-width="1" stroke-opacity="0"></use></g></g><g><use xlink:href="#b5TVa75ow" opacity="1" fill="#000000" fill-opacity="1"></use><g><use xlink:href="#b5TVa75ow" opacity="1" fill-opacity="0" stroke="#000000" stroke-width="1" stroke-opacity="0"></use></g></g><g><use xlink:href="#a7zIEuVZX" opacity="1" fill="#000000" fill-opacity="1"></use><g><use xlink:href="#a7zIEuVZX" opacity="1" fill-opacity="0" stroke="#000000" stroke-width="1" stroke-opacity="0"></use></g></g><g><use xlink:href="#blf6l4OwN" opacity="1" fill="#000000" fill-opacity="1"></use><g><use xlink:href="#blf6l4OwN" opacity="1" fill-opacity="0" stroke="#000000" stroke-width="1" stroke-opacity="0"></use></g></g><g><use xlink:href="#b8Z8GdZyEm" opacity="1" fill="#000000" fill-opacity="1"></use><g><use xlink:href="#b8Z8GdZyEm" opacity="1" fill-opacity="0" stroke="#000000" stroke-width="1" stroke-opacity="0"></use></g></g><g><use xlink:href="#b2gQCc1Aj5" opacity="1" fill="#000000" fill-opacity="1"></use><g><use xlink:href="#b2gQCc1Aj5" opacity="1" fill-opacity="0" stroke="#000000" stroke-width="1" stroke-opacity="0"></use></g></g><g><use xlink:href="#l5IEEl7Cr" opacity="1" fill="#000000" fill-opacity="1"></use><g><use xlink:href="#l5IEEl7Cr" opacity="1" fill-opacity="0" stroke="#000000" stroke-width="1" stroke-opacity="0"></use></g></g><g><use xlink:href="#h2Z7tbcyFy" opacity="1" fill="#000000" fill-opacity="1"></use><g><use xlink:href="#h2Z7tbcyFy" opacity="1" fill-opacity="0" stroke="#000000" stroke-width="1" stroke-opacity="0"></use></g></g><g><use xlink:href="#a4ey2WJQX" opacity="1" fill="#000000" fill-opacity="1"></use><g><use xlink:href="#a4ey2WJQX" opacity="1" fill-opacity="0" stroke="#000000" stroke-width="1" stroke-opacity="0"></use></g></g><g><use xlink:href="#cu75JfllG" opacity="1" fill="#000000" fill-opacity="1"></use><g><use xlink:href="#cu75JfllG" opacity="1" fill-opacity="0" stroke="#000000" stroke-width="1" stroke-opacity="0"></use></g></g><g><use xlink:href="#b6AhoXnjSe" opacity="1" fill="#000000" fill-opacity="1"></use><g><use xlink:href="#b6AhoXnjSe" opacity="1" fill-opacity="0" stroke="#000000" stroke-width="1" stroke-opacity="0"></use></g></g><g><use xlink:href="#d6qwhOhjul" opacity="1" fill="#000000" fill-opacity="1"></use><g><use xlink:href="#d6qwhOhjul" opacity="1" fill-opacity="0" stroke="#000000" stroke-width="1" stroke-opacity="0"></use></g></g><g><use xlink:href="#b1Mg9BxQGI" opacity="1" fill="#000000" fill-opacity="1"></use><g><use xlink:href="#b1Mg9BxQGI" opacity="1" fill-opacity="0" stroke="#000000" stroke-width="1" stroke-opacity="0"></use></g></g><g><use xlink:href="#agGIUHcHI" opacity="1" fill="#000000" fill-opacity="1"></use><g><use xlink:href="#agGIUHcHI" opacity="1" fill-opacity="0" stroke="#000000" stroke-width="1" stroke-opacity="0"></use></g></g><g><use xlink:href="#b6M8nnrm5" opacity="1" fill="#000000" fill-opacity="1"></use><g><use xlink:href="#b6M8nnrm5" opacity="1" fill-opacity="0" stroke="#000000" stroke-width="1" stroke-opacity="0"></use></g></g><g><use xlink:href="#a7rKUOqkQ" opacity="1" fill="#000000" fill-opacity="1"></use><g><use xlink:href="#a7rKUOqkQ" opacity="1" fill-opacity="0" stroke="#000000" stroke-width="1" stroke-opacity="0"></use></g></g><g><use xlink:href="#cBh8yf7YU" opacity="1" fill="#000000" fill-opacity="1"></use><g><use xlink:href="#cBh8yf7YU" opacity="1" fill-opacity="0" stroke="#000000" stroke-width="1" stroke-opacity="0"></use></g></g><g><use xlink:href="#c7XiRubbQ" opacity="1" fill="#000000" fill-opacity="1"></use><g><use xlink:href="#c7XiRubbQ" opacity="1" fill-opacity="0" stroke="#000000" stroke-width="1" stroke-opacity="0"></use></g></g><g><use xlink:href="#b59GPD3ovP" opacity="1" fill="#000000" fill-opacity="1"></use><g><use xlink:href="#b59GPD3ovP" opacity="1" fill-opacity="0" stroke="#000000" stroke-width="1" stroke-opacity="0"></use></g></g><g><use xlink:href="#b9hyjJBAIr" opacity="1" fill="#000000" fill-opacity="1"></use><g><use xlink:href="#b9hyjJBAIr" opacity="1" fill-opacity="0" stroke="#000000" stroke-width="1" stroke-opacity="0"></use></g></g><g><use xlink:href="#b10RMZD6tB" opacity="1" fill="#000000" fill-opacity="1"></use><g><use xlink:href="#b10RMZD6tB" opacity="1" fill-opacity="0" stroke="#000000" stroke-width="1" stroke-opacity="0"></use></g></g><g><use xlink:href="#b1nC3yd1iG" opacity="1" fill="#000000" fill-opacity="1"></use><g><use xlink:href="#b1nC3yd1iG" opacity="1" fill-opacity="0" stroke="#000000" stroke-width="1" stroke-opacity="0"></use></g></g><g><use xlink:href="#c149vlxxAn" opacity="1" fill="#000000" fill-opacity="1"></use><g><use xlink:href="#c149vlxxAn" opacity="1" fill-opacity="0" stroke="#000000" stroke-width="1" stroke-opacity="0"></use></g></g><g><use xlink:href="#b1KTanbXZH" opacity="1" fill="#000000" fill-opacity="1"></use><g><use xlink:href="#b1KTanbXZH" opacity="1" fill-opacity="0" stroke="#000000" stroke-width="1" stroke-opacity="0"></use></g></g><g><use xlink:href="#gyIDSUeqk" opacity="1" fill="#000000" fill-opacity="1"></use><g><use xlink:href="#gyIDSUeqk" opacity="1" fill-opacity="0" stroke="#000000" stroke-width="1" stroke-opacity="0"></use></g></g><g><use xlink:href="#a2R17UcHAt" opacity="1" fill="#000000" fill-opacity="1"></use><g><use xlink:href="#a2R17UcHAt" opacity="1" fill-opacity="0" stroke="#000000" stroke-width="1" stroke-opacity="0"></use></g></g><g><use xlink:href="#a1DWBXWcgt" opacity="1" fill="#000000" fill-opacity="1"></use><g><use xlink:href="#a1DWBXWcgt" opacity="1" fill-opacity="0" stroke="#000000" stroke-width="1" stroke-opacity="0"></use></g></g><g><use xlink:href="#bpGvk93le" opacity="1" fill="#000000" fill-opacity="1"></use><g><use xlink:href="#bpGvk93le" opacity="1" fill-opacity="0" stroke="#000000" stroke-width="1" stroke-opacity="0"></use></g></g><g><use xlink:href="#a38LO6VvHR" opacity="1" fill="#000000" fill-opacity="1"></use><g><use xlink:href="#a38LO6VvHR" opacity="1" fill-opacity="0" stroke="#000000" stroke-width="1" stroke-opacity="0"></use></g></g><g><use xlink:href="#aJheuVvfr" opacity="1" fill="#000000" fill-opacity="1"></use><g><use xlink:href="#aJheuVvfr" opacity="1" fill-opacity="0" stroke="#000000" stroke-width="1" stroke-opacity="0"></use></g></g><g><use xlink:href="#gD20lSHXD" opacity="1" fill="#000000" fill-opacity="1"></use><g><use xlink:href="#gD20lSHXD" opacity="1" fill-opacity="0" stroke="#000000" stroke-width="1" stroke-opacity="0"></use></g></g><g><use xlink:href="#a12hludKA5" opacity="1" fill="#000000" fill-opacity="1"></use><g><use xlink:href="#a12hludKA5" opacity="1" fill-opacity="0" stroke="#000000" stroke-width="1" stroke-opacity="0"></use></g></g><g><use xlink:href="#e1oR2HYtDZ" opacity="1" fill="#000000" fill-opacity="1"></use><g><use xlink:href="#e1oR2HYtDZ" opacity="1" fill-opacity="0" stroke="#000000" stroke-width="1" stroke-opacity="0"></use></g></g><g><use xlink:href="#aFnVYakX" opacity="1" fill="#000000" fill-opacity="1"></use><g><use xlink:href="#aFnVYakX" opacity="1" fill-opacity="0" stroke="#000000" stroke-width="1" stroke-opacity="0"></use></g></g><g><use xlink:href="#b11xaTnzTk" opacity="1" fill="#000000" fill-opacity="1"></use><g><use xlink:href="#b11xaTnzTk" opacity="1" fill-opacity="0" stroke="#000000" stroke-width="1" stroke-opacity="0"></use></g></g><g><use xlink:href="#b44q1jWNlo" opacity="1" fill="#000000" fill-opacity="1"></use><g><use xlink:href="#b44q1jWNlo" opacity="1" fill-opacity="0" stroke="#000000" stroke-width="1" stroke-opacity="0"></use></g></g><g><use xlink:href="#bLdpkQyNA" opacity="1" fill="#000000" fill-opacity="1"></use><g><use xlink:href="#bLdpkQyNA" opacity="1" fill-opacity="0" stroke="#000000" stroke-width="1" stroke-opacity="0"></use></g></g><g><use xlink:href="#guM0kxoTx" opacity="1" fill="#000000" fill-opacity="1"></use><g><use xlink:href="#guM0kxoTx" opacity="1" fill-opacity="0" stroke="#000000" stroke-width="1" stroke-opacity="0"></use></g></g><g><use xlink:href="#b3mIxfu8vZ" opacity="1" fill="#000000" fill-opacity="1"></use><g><use xlink:href="#b3mIxfu8vZ" opacity="1" fill-opacity="0" stroke="#000000" stroke-width="1" stroke-opacity="0"></use></g></g><g><use xlink:href="#bZDi1jVVu" opacity="1" fill="#000000" fill-opacity="1"></use><g><use xlink:href="#bZDi1jVVu" opacity="1" fill-opacity="0" stroke="#000000" stroke-width="1" stroke-opacity="0"></use></g></g><g><use xlink:href="#b2gxlq0mtf" opacity="1" fill="#000000" fill-opacity="1"></use><g><use xlink:href="#b2gxlq0mtf" opacity="1" fill-opacity="0" stroke="#000000" stroke-width="1" stroke-opacity="0"></use></g></g><g><use xlink:href="#b1NAK20Qqn" opacity="1" fill="#000000" fill-opacity="1"></use><g><use xlink:href="#b1NAK20Qqn" opacity="1" fill-opacity="0" stroke="#000000" stroke-width="1" stroke-opacity="0"></use></g></g><g><use xlink:href="#aAcwDSw1H" opacity="1" fill="#000000" fill-opacity="1"></use><g><use xlink:href="#aAcwDSw1H" opacity="1" fill-opacity="0" stroke="#000000" stroke-width="1" stroke-opacity="0"></use></g></g><g><use xlink:href="#b25t7CNli" opacity="1" fill="#000000" fill-opacity="1"></use><g><use xlink:href="#b25t7CNli" opacity="1" fill-opacity="0" stroke="#000000" stroke-width="1" stroke-opacity="0"></use></g></g><g><use xlink:href="#aKbk2EUEr" opacity="1" fill="#000000" fill-opacity="1"></use><g><use xlink:href="#aKbk2EUEr" opacity="1" fill-opacity="0" stroke="#000000" stroke-width="1" stroke-opacity="0"></use></g></g><g><use xlink:href="#a7Q2Ub0wb" opacity="1" fill="#000000" fill-opacity="1"></use><g><use xlink:href="#a7Q2Ub0wb" opacity="1" fill-opacity="0" stroke="#000000" stroke-width="1" stroke-opacity="0"></use></g></g><g><use xlink:href="#eOIphRO5S" opacity="1" fill="#000000" fill-opacity="1"></use><g><use xlink:href="#eOIphRO5S" opacity="1" fill-opacity="0" stroke="#000000" stroke-width="1" stroke-opacity="0"></use></g></g><g><use xlink:href="#b60iNWeHqm" opacity="1" fill="#fafafa" fill-opacity="1"></use><g><use xlink:href="#b60iNWeHqm" opacity="1" fill-opacity="0" stroke="#000000" stroke-width="1" stroke-opacity="0"></use></g></g><g><use xlink:href="#c289mQuxyh" opacity="1" fill="#fafafa" fill-opacity="1"></use><g><use xlink:href="#c289mQuxyh" opacity="1" fill-opacity="0" stroke="#000000" stroke-width="1" stroke-opacity="0"></use></g></g><g><use xlink:href="#blcz6FcFz" opacity="1" fill="#fafafa" fill-opacity="1"></use><g><use xlink:href="#blcz6FcFz" opacity="1" fill-opacity="0" stroke="#000000" stroke-width="1" stroke-opacity="0"></use></g></g><g><use xlink:href="#bQZAXizDL" opacity="1" fill="#fafafa" fill-opacity="1"></use><g><use xlink:href="#bQZAXizDL" opacity="1" fill-opacity="0" stroke="#000000" stroke-width="1" stroke-opacity="0"></use></g></g><g><use xlink:href="#g1BKwMjPnl" opacity="1" fill="#fafafa" fill-opacity="1"></use><g><use xlink:href="#g1BKwMjPnl" opacity="1" fill-opacity="0" stroke="#000000" stroke-width="1" stroke-opacity="0"></use></g></g><g><use xlink:href="#d19kMWFq8n" opacity="1" fill="#fafafa" fill-opacity="1"></use><g><use xlink:href="#d19kMWFq8n" opacity="1" fill-opacity="0" stroke="#000000" stroke-width="1" stroke-opacity="0"></use></g></g><g><use xlink:href="#ctuENpM2r" opacity="1" fill="#fafafa" fill-opacity="1"></use><g><use xlink:href="#ctuENpM2r" opacity="1" fill-opacity="0" stroke="#000000" stroke-width="1" stroke-opacity="0"></use></g></g><g><use xlink:href="#cSp2vE9Fx" opacity="1" fill="#fafafa" fill-opacity="1"></use><g><use xlink:href="#cSp2vE9Fx" opacity="1" fill-opacity="0" stroke="#000000" stroke-width="1" stroke-opacity="0"></use></g></g></g></g></svg>