<?xml version="1.0" encoding="UTF-8" standalone="no"?>
<!-- Generator: Adobe Illustrator 19.0.0, SVG Export Plug-In . SVG Version: 6.00 Build 0)  -->

<svg
   xmlns:dc="http://purl.org/dc/elements/1.1/"
   xmlns:cc="http://creativecommons.org/ns#"
   xmlns:rdf="http://www.w3.org/1999/02/22-rdf-syntax-ns#"
   xmlns:svg="http://www.w3.org/2000/svg"
   xmlns="http://www.w3.org/2000/svg"
   xmlns:sodipodi="http://sodipodi.sourceforge.net/DTD/sodipodi-0.dtd"
   xmlns:inkscape="http://www.inkscape.org/namespaces/inkscape"
   version="1.1"
   id="Layer_1"
   x="0px"
   y="0px"
   viewBox="0 0 512.13 512.13"
   style="enable-background:new 0 0 512.13 512.13;"
   xml:space="preserve"
   width="512px"
   height="512px"
   inkscape:version="0.48.4 r9939"
   sodipodi:docname="password-manager.svg"><metadata
     id="metadata49"><rdf:RDF><cc:Work
         rdf:about=""><dc:format>image/svg+xml</dc:format><dc:type
           rdf:resource="http://purl.org/dc/dcmitype/StillImage" /><dc:title></dc:title></cc:Work></rdf:RDF></metadata><defs
     id="defs47" /><sodipodi:namedview
     pagecolor="#ffffff"
     bordercolor="#666666"
     borderopacity="1"
     objecttolerance="10"
     gridtolerance="10"
     guidetolerance="10"
     inkscape:pageopacity="0"
     inkscape:pageshadow="2"
     inkscape:window-width="1024"
     inkscape:window-height="545"
     id="namedview45"
     showgrid="false"
     inkscape:zoom="0.057617188"
     inkscape:cx="-4962.2742"
     inkscape:cy="1136.4202"
     inkscape:window-x="0"
     inkscape:window-y="30"
     inkscape:window-maximized="1"
     inkscape:current-layer="g3044" /><g
     id="g3"><g
       id="g5"><path
         d="M256.065,0C114.43,0,0,114.298,0,256.065S114.298,512.13,256.065,512.13S512.13,397.832,512.13,256.065    S397.702,0,256.065,0z M256.065,477.892c-122.891,0-221.828-98.937-221.828-221.828S133.175,34.236,256.065,34.236    s221.828,98.937,221.828,221.828S378.956,477.892,256.065,477.892z"
         fill="#91DC5A"
         id="path7" /></g></g><g
     id="g15" /><g
     id="g17" /><g
     id="g19" /><g
     id="g21" /><g
     id="g23" /><g
     id="g25" /><g
     id="g27" /><g
     id="g29" /><g
     id="g31" /><g
     id="g33" /><g
     id="g35" /><g
     id="g37" /><g
     id="g39" /><g
     id="g41" /><g
     id="g43" /><g
     id="g3044"
     transform="matrix(2.8830956,0,0,2.8830956,156.09147,157.19154)"
     style="fill:#91dc5a;fill-opacity:1"><path
       id="path3030"
       d="M 16.784324,4.7062993 A 28.380467,28.380467 0 0 0 -11.596142,33.086791 28.380467,28.380467 0 0 0 16.784324,61.467258 28.380467,28.380467 0 0 0 43.072447,43.729464 l 16.283319,0 0,10.642684 17.737809,0 0,-10.642684 10.642642,0 0,-21.285373 -44.656647,0 A 28.380467,28.380467 0 0 0 16.784705,4.7062993 z"
       style="fill:#91dc5a;fill-opacity:1"
       inkscape:connector-curvature="0" /></g></svg>