<?xml version="1.0" encoding="UTF-8" standalone="no"?>
<!DOCTYPE svg PUBLIC "-//W3C//DTD SVG 1.1//EN" "http://www.w3.org/Graphics/SVG/1.1/DTD/svg11.dtd">
<svg version="1.1" xmlns="http://www.w3.org/2000/svg" xmlns:xlink="http://www.w3.org/1999/xlink" preserveAspectRatio="xMidYMid meet" viewBox="0 0 640 640" width="640" height="640"><defs><path d="M320 0C143.27 0 0 143.27 0 320C0 496.73 143.27 640 320 640C496.73 640 640 496.73 640 320C640 143.27 496.73 0 320 0Z" id="a1XVsUHpJ7"></path><path d="M295.64 389.59C297.28 389.59 305.45 389.59 320.15 389.59L303.62 333.9L280.25 333.9C294.31 351.58 299.44 370.14 295.64 389.59Z" id="bKbfNdfh"></path><path d="M365.22 388.27C363.59 388.27 355.42 388.27 340.71 388.27L357.24 332.58L380.61 332.58C366.55 350.26 361.42 368.82 365.22 388.27Z" id="c2RVo9AfZX"></path><path d="M148.54 69.2C141.13 69.2 134.86 75.86 134.86 83.73C134.86 107.16 134.86 294.63 134.86 318.06C134.86 325.93 141.13 332.59 148.54 332.59C182.74 332.59 456.36 332.59 490.56 332.59C497.97 332.59 504.24 325.93 504.24 318.06C504.24 294.69 504.24 107.71 504.24 84.34C504.24 75.86 497.97 69.2 490.56 69.2C422.15 69.2 182.74 69.2 148.54 69.2Z" id="dcmZiQyJF"></path><path d="M482.61 89.3C482.61 89.3 482.61 89.3 482.61 89.3C482.61 218.98 482.61 291.02 482.61 305.43C482.61 305.43 482.61 305.43 482.61 305.43C287.66 305.43 179.36 305.43 157.7 305.43C157.7 305.43 157.7 305.43 157.7 305.43C157.7 175.75 157.7 103.71 157.7 89.3C157.7 89.3 157.7 89.3 157.7 89.3C352.65 89.3 460.95 89.3 482.61 89.3Z" id="arpF7FkTR"></path><path d="M412.85 211.08C412.85 212.4 413.42 213.73 414.56 215.72C413.99 214.39 413.42 213.06 412.85 211.08Z" id="bauCWPcjZ"></path><path d="M457.72 108.38C457.72 108.38 457.72 108.38 457.72 108.38C457.72 114.07 457.72 117.24 457.72 117.87C457.72 117.87 457.72 117.87 457.72 117.87C296.47 117.87 206.89 117.87 188.97 117.87C188.97 117.87 188.97 117.87 188.97 117.87C188.97 112.17 188.97 109.01 188.97 108.38C188.97 108.38 188.97 108.38 188.97 108.38C350.22 108.38 439.8 108.38 457.72 108.38Z" id="a43XPW9DkO"></path><path d="M454.01 139.63C454.01 139.63 454.01 139.63 454.01 139.63C454.01 173.04 454.01 191.6 454.01 195.32C454.01 195.32 454.01 195.32 454.01 195.32C409.97 195.32 385.51 195.32 380.61 195.32C380.61 195.32 380.61 195.32 380.61 195.32C380.61 161.9 380.61 143.34 380.61 139.63C380.61 139.63 380.61 139.63 380.61 139.63C424.65 139.63 449.12 139.63 454.01 139.63Z" id="ahOrQsfy6"></path><path d="M379.19 388.19C379.19 388.19 379.19 388.19 379.19 388.19C379.19 403.06 379.19 411.32 379.19 412.97C379.19 412.97 379.19 412.97 379.19 412.97C302.92 412.97 260.55 412.97 252.07 412.97C252.07 412.97 252.07 412.97 252.07 412.97C252.07 398.11 252.07 389.85 252.07 388.19C252.07 388.19 252.07 388.19 252.07 388.19C328.34 388.19 370.71 388.19 379.19 388.19Z" id="b6CxlKrjS"></path><path d="M539.36 462.88C539.36 469.77 535.1 474.94 529.42 474.94C522.04 474.94 462.98 474.94 455.6 474.94C450.39 474.94 445.66 469.77 445.66 462.88C445.66 445.88 445.66 309.9 445.66 292.9C445.66 286.01 449.92 280.84 455.6 280.84C462.98 280.84 522.04 280.84 529.42 280.84C535.1 281.42 539.36 286.58 539.36 292.9C539.36 326.9 539.36 445.88 539.36 462.88Z" id="g5PTkUP85"></path><path d="M536.26 291.45C536.26 291.45 536.26 291.45 536.26 291.45C536.26 391.76 536.26 447.48 536.26 458.62C536.26 458.62 536.26 458.62 536.26 458.62C483.76 458.62 454.6 458.62 448.76 458.62C448.76 458.62 448.76 458.62 448.76 458.62C448.76 358.32 448.76 302.6 448.76 291.45C448.76 291.45 448.76 291.45 448.76 291.45C501.26 291.45 530.43 291.45 536.26 291.45Z" id="d2NVIwS2iw"></path><path d="M492.51 462.9C490.01 462.9 487.97 465.02 487.97 467.64C487.97 470.27 490.01 472.39 492.51 472.39C495.02 472.39 497.05 470.27 497.05 467.64C497.05 465.02 495.02 462.9 492.51 462.9Z" id="a8GB1FEQUz"></path><path d="M132.88 204.01C117.34 204.01 105.04 218.76 105.04 237.39C105.04 258.89 105.04 430.9 105.04 452.4C105.04 471.02 117.34 485.77 132.88 485.77C144.22 485.77 234.87 485.77 246.21 485.77C261.75 485.77 274.05 471.03 274.05 452.4C274.05 430.9 274.05 258.89 274.05 237.39C274.05 218.76 261.75 204.01 246.21 204.01C223.54 204.01 144.22 204.01 132.88 204.01Z" id="bZdhBGQUN"></path><path d="M270.36 242.32C270.36 242.32 270.36 242.32 270.36 242.32C270.36 369.16 270.36 439.63 270.36 453.72C270.36 453.72 270.36 453.72 270.36 453.72C173.38 453.72 119.51 453.72 108.73 453.72C108.73 453.72 108.73 453.72 108.73 453.72C108.73 326.88 108.73 256.41 108.73 242.32C108.73 242.32 108.73 242.32 108.73 242.32C205.71 242.32 259.58 242.32 270.36 242.32Z" id="dIhqmeBOf"></path><path d="M171.87 229.64C170.73 229.64 169.59 228.31 169.59 226.99C169.59 226.99 169.59 226.99 169.59 226.99C169.59 225.66 170.73 224.34 171.87 224.34C175.29 224.34 202.65 224.34 206.07 224.34C207.21 224.34 208.35 225.66 208.35 226.99C208.35 226.99 208.35 226.99 208.35 226.99C208.35 228.31 207.21 229.64 206.07 229.64C199.23 229.64 175.29 229.64 171.87 229.64Z" id="d19VzHy1Q1"></path><path d="M156.91 226.99C155.65 226.99 154.63 228.18 154.63 229.64C154.63 231.1 155.65 232.29 156.91 232.29C158.17 232.29 159.19 231.1 159.19 229.64C159.19 228.18 158.17 226.99 156.91 226.99Z" id="agTcm5LTr"></path><path d="M188.97 478.25C183.84 478.25 179.85 473.61 179.85 467.64C179.85 461.68 183.84 457.04 188.97 457.04C194.1 457.04 198.09 461.68 198.09 467.64C198.09 473.61 194.1 478.25 188.97 478.25Z" id="l892e5x5JJ"></path><path d="M252.56 253.16C252.56 253.16 252.56 253.16 252.56 253.16C252.52 261.92 252.5 266.78 252.5 267.75C252.5 267.75 252.5 267.75 252.5 267.75C176.23 267.4 133.86 267.2 125.38 267.17C125.38 267.17 125.38 267.17 125.38 267.17C125.42 258.42 125.44 253.55 125.45 252.58C125.45 252.58 125.45 252.58 125.45 252.58C201.72 252.93 244.09 253.13 252.56 253.16Z" id="aapuYNNQf"></path><path d="M356.86 139.05C356.86 139.05 356.86 139.05 356.86 139.05C356.86 172.46 356.86 191.03 356.86 194.74C356.86 194.74 356.86 194.74 356.86 194.74C312.81 194.74 288.35 194.74 283.45 194.74C283.45 194.74 283.45 194.74 283.45 194.74C283.45 161.32 283.45 142.76 283.45 139.05C283.45 139.05 283.45 139.05 283.45 139.05C327.49 139.05 351.96 139.05 356.86 139.05Z" id="dGe8DnM8k"></path><path d="M262.81 139.63C262.81 139.63 262.81 139.63 262.81 139.63C262.55 173.04 262.4 191.6 262.37 195.32C262.37 195.32 262.37 195.32 262.37 195.32C218.33 194.97 193.87 194.78 188.97 194.74C188.97 194.74 188.97 194.74 188.97 194.74C189.24 161.32 189.38 142.76 189.41 139.05C189.41 139.05 189.41 139.05 189.41 139.05C233.45 139.4 257.92 139.59 262.81 139.63Z" id="a3fzX3l9m"></path><path d="M356.86 209.51C356.86 209.51 356.86 209.51 356.86 209.51C356.86 242.93 356.86 261.49 356.86 265.2C356.86 265.2 356.86 265.2 356.86 265.2C312.81 265.2 288.35 265.2 283.45 265.2C283.45 265.2 283.45 265.2 283.45 265.2C283.45 231.79 283.45 213.23 283.45 209.51C283.45 209.51 283.45 209.51 283.45 209.51C327.49 209.51 351.96 209.51 356.86 209.51Z" id="b30kxkWsV7"></path><path d="M452.59 207.11C452.59 207.11 452.59 207.11 452.59 207.11C452.59 240.52 452.59 259.09 452.59 262.8C452.59 262.8 452.59 262.8 452.59 262.8C408.55 262.8 384.08 262.8 379.19 262.8C379.19 262.8 379.19 262.8 379.19 262.8C379.19 229.39 379.19 210.82 379.19 207.11C379.19 207.11 379.19 207.11 379.19 207.11C423.23 207.11 447.69 207.11 452.59 207.11Z" id="dT5VLU1zb"></path><path d="M183.97 278.58C183.97 278.58 183.97 278.58 183.97 278.58C183.81 299.04 183.72 310.41 183.7 312.68C183.7 312.68 183.7 312.68 183.7 312.68C148.81 312.41 129.43 312.25 125.55 312.22C125.55 312.22 125.55 312.22 125.55 312.22C125.71 291.76 125.8 280.39 125.82 278.12C125.82 278.12 125.82 278.12 125.82 278.12C160.71 278.4 180.09 278.55 183.97 278.58Z" id="nm0vHoNKU"></path><path d="M182.7 326.32C182.7 326.32 182.7 326.32 182.7 326.32C182.54 346.78 182.45 358.15 182.43 360.42C182.43 360.42 182.43 360.42 182.43 360.42C147.54 360.15 128.16 360 124.29 359.96C124.29 359.96 124.29 359.96 124.29 359.96C124.45 339.5 124.54 328.13 124.56 325.86C124.56 325.86 124.56 325.86 124.56 325.86C159.44 326.14 178.83 326.29 182.7 326.32Z" id="d1aGIkKgM3"></path><path d="M183.84 371.37C183.84 371.37 183.84 371.37 183.84 371.37C183.68 391.83 183.59 403.2 183.57 405.48C183.57 405.48 183.57 405.48 183.57 405.48C148.68 405.2 129.3 405.05 125.42 405.02C125.42 405.02 125.42 405.02 125.42 405.02C125.58 384.55 125.67 373.19 125.69 370.91C125.69 370.91 125.69 370.91 125.69 370.91C160.58 371.19 179.96 371.34 183.84 371.37Z" id="d6B2LA6zCD"></path><path d="M253.66 278.58C253.66 278.58 253.66 278.58 253.66 278.58C253.5 299.04 253.41 310.41 253.39 312.68C253.39 312.68 253.39 312.68 253.39 312.68C218.5 312.41 199.12 312.25 195.24 312.22C195.24 312.22 195.24 312.22 195.24 312.22C195.4 291.76 195.49 280.39 195.51 278.12C195.51 278.12 195.51 278.12 195.51 278.12C230.4 278.4 249.78 278.55 253.66 278.58Z" id="h49rAfwxJ"></path><path d="M252.56 326.32C252.56 326.32 252.56 326.32 252.56 326.32C252.4 346.78 252.31 358.15 252.29 360.42C252.29 360.42 252.29 360.42 252.29 360.42C217.41 360.15 198.02 360 194.15 359.96C194.15 359.96 194.15 359.96 194.15 359.96C194.31 339.5 194.4 328.13 194.42 325.86C194.42 325.86 194.42 325.86 194.42 325.86C229.3 326.14 248.69 326.29 252.56 326.32Z" id="c6JxBWdE2h"></path><path d="M252.56 372.77C252.56 372.77 252.56 372.77 252.56 372.77C252.4 393.23 252.31 404.6 252.29 406.87C252.29 406.87 252.29 406.87 252.29 406.87C217.41 406.59 198.02 406.44 194.15 406.41C194.15 406.41 194.15 406.41 194.15 406.41C194.31 385.95 194.4 374.58 194.42 372.31C194.42 372.31 194.42 372.31 194.42 372.31C229.3 372.58 248.69 372.74 252.56 372.77Z" id="h55Qvfnydk"></path><path d="M521.57 298.9C521.57 298.9 521.57 298.9 521.57 298.9C521.59 304.6 521.6 307.76 521.6 308.39C521.6 308.39 521.6 308.39 521.6 308.39C486.71 308.48 467.32 308.52 463.45 308.53C463.45 308.53 463.45 308.53 463.45 308.53C463.43 302.83 463.43 299.67 463.43 299.04C463.43 299.04 463.43 299.04 463.43 299.04C498.32 298.95 517.7 298.91 521.57 298.9Z" id="a1Bc0Oo63"></path><path d="M532.23 377.53C532.23 377.53 532.23 377.53 532.23 377.53C531.89 339.59 531.7 318.51 531.66 314.3C531.66 314.3 531.66 314.3 531.66 314.3C484.22 314.72 457.86 314.96 452.59 315.01C452.59 315.01 452.59 315.01 452.59 315.01C452.93 352.95 453.12 374.02 453.15 378.24C453.15 378.24 453.15 378.24 453.15 378.24C500.6 377.81 526.96 377.58 532.23 377.53Z" id="ayVob1naW"></path><path d="M532.23 440.46C532.23 440.46 532.23 440.46 532.23 440.46C531.93 407.05 531.76 388.49 531.73 384.77C531.73 384.77 531.73 384.77 531.73 384.77C484.29 385.2 457.93 385.44 452.65 385.48C452.65 385.48 452.65 385.48 452.65 385.48C452.95 418.89 453.12 437.46 453.15 441.17C453.15 441.17 453.15 441.17 453.15 441.17C500.6 440.74 526.96 440.51 532.23 440.46Z" id="anXZCTuXc"></path></defs><g><g><g><use xlink:href="#a1XVsUHpJ7" opacity="1" fill="#2dcbbc" fill-opacity="1"></use><g><use xlink:href="#a1XVsUHpJ7" opacity="1" fill-opacity="0" stroke="#000000" stroke-width="1" stroke-opacity="0"></use></g></g><g><use xlink:href="#bKbfNdfh" opacity="1" fill="#f1f1f1" fill-opacity="1"></use><g><use xlink:href="#bKbfNdfh" opacity="1" fill-opacity="0" stroke="#fdfdfd" stroke-width="1" stroke-opacity="0"></use></g></g><g><use xlink:href="#c2RVo9AfZX" opacity="1" fill="#f9f9fa" fill-opacity="1"></use><g><use xlink:href="#c2RVo9AfZX" opacity="1" fill-opacity="0" stroke="#000000" stroke-width="1" stroke-opacity="0"></use></g></g><g><use xlink:href="#dcmZiQyJF" opacity="1" fill="#000101" fill-opacity="1"></use><g><use xlink:href="#dcmZiQyJF" opacity="1" fill-opacity="0" stroke="#000000" stroke-width="1" stroke-opacity="0"></use></g></g><g><use xlink:href="#arpF7FkTR" opacity="1" fill="#f6fbff" fill-opacity="1"></use><g><use xlink:href="#arpF7FkTR" opacity="1" fill-opacity="0" stroke="#000000" stroke-width="1" stroke-opacity="0"></use></g></g><g><use xlink:href="#bauCWPcjZ" opacity="1" fill="#e1e6e9" fill-opacity="1"></use><g><use xlink:href="#bauCWPcjZ" opacity="1" fill-opacity="0" stroke="#000000" stroke-width="1" stroke-opacity="0"></use></g></g><g><use xlink:href="#a43XPW9DkO" opacity="1" fill="#cb462d" fill-opacity="1"></use><g><use xlink:href="#a43XPW9DkO" opacity="1" fill-opacity="0" stroke="#000000" stroke-width="1" stroke-opacity="0"></use></g></g><g><use xlink:href="#ahOrQsfy6" opacity="1" fill="#cb462d" fill-opacity="1"></use><g><use xlink:href="#ahOrQsfy6" opacity="1" fill-opacity="0" stroke="#000000" stroke-width="1" stroke-opacity="0"></use></g></g><g><use xlink:href="#b6CxlKrjS" opacity="1" fill="#d5d6db" fill-opacity="1"></use><g><use xlink:href="#b6CxlKrjS" opacity="1" fill-opacity="0" stroke="#000000" stroke-width="1" stroke-opacity="0"></use></g></g><g><use xlink:href="#g5PTkUP85" opacity="1" fill="#000407" fill-opacity="1"></use><g><use xlink:href="#g5PTkUP85" opacity="1" fill-opacity="0" stroke="#000000" stroke-width="1" stroke-opacity="0"></use></g></g><g><use xlink:href="#d2NVIwS2iw" opacity="1" fill="#fcfeff" fill-opacity="1"></use><g><use xlink:href="#d2NVIwS2iw" opacity="1" fill-opacity="0" stroke="#000000" stroke-width="1" stroke-opacity="0"></use></g></g><g><use xlink:href="#a8GB1FEQUz" opacity="1" fill="#d5d6db" fill-opacity="1"></use><g><use xlink:href="#a8GB1FEQUz" opacity="1" fill-opacity="0" stroke="#000000" stroke-width="1" stroke-opacity="0"></use></g></g><g><use xlink:href="#bZdhBGQUN" opacity="1" fill="#000204" fill-opacity="1"></use><g><use xlink:href="#bZdhBGQUN" opacity="1" fill-opacity="0" stroke="#000000" stroke-width="1" stroke-opacity="0"></use></g></g><g><use xlink:href="#dIhqmeBOf" opacity="1" fill="#f6f6f6" fill-opacity="1"></use><g><use xlink:href="#dIhqmeBOf" opacity="1" fill-opacity="0" stroke="#000000" stroke-width="1" stroke-opacity="0"></use></g></g><g><use xlink:href="#d19VzHy1Q1" opacity="1" fill="#e1e6e9" fill-opacity="1"></use><g><use xlink:href="#d19VzHy1Q1" opacity="1" fill-opacity="0" stroke="#000000" stroke-width="1" stroke-opacity="0"></use></g></g><g><use xlink:href="#agTcm5LTr" opacity="1" fill="#e1e6e9" fill-opacity="1"></use><g><use xlink:href="#agTcm5LTr" opacity="1" fill-opacity="0" stroke="#000000" stroke-width="1" stroke-opacity="0"></use></g></g><g><use xlink:href="#l892e5x5JJ" opacity="1" fill="#ffffff" fill-opacity="1"></use><g><use xlink:href="#l892e5x5JJ" opacity="1" fill-opacity="0" stroke="#000000" stroke-width="1" stroke-opacity="0"></use></g></g><g><use xlink:href="#aapuYNNQf" opacity="1" fill="#cb462d" fill-opacity="1"></use><g><use xlink:href="#aapuYNNQf" opacity="1" fill-opacity="0" stroke="#000000" stroke-width="1" stroke-opacity="0"></use></g></g><g><use xlink:href="#dGe8DnM8k" opacity="1" fill="#cb462d" fill-opacity="1"></use><g><use xlink:href="#dGe8DnM8k" opacity="1" fill-opacity="0" stroke="#000000" stroke-width="1" stroke-opacity="0"></use></g></g><g><use xlink:href="#a3fzX3l9m" opacity="1" fill="#cb462d" fill-opacity="1"></use><g><use xlink:href="#a3fzX3l9m" opacity="1" fill-opacity="0" stroke="#000000" stroke-width="1" stroke-opacity="0"></use></g></g><g><use xlink:href="#b30kxkWsV7" opacity="1" fill="#cb462d" fill-opacity="1"></use><g><use xlink:href="#b30kxkWsV7" opacity="1" fill-opacity="0" stroke="#000000" stroke-width="1" stroke-opacity="0"></use></g></g><g><use xlink:href="#dT5VLU1zb" opacity="1" fill="#cb462d" fill-opacity="1"></use><g><use xlink:href="#dT5VLU1zb" opacity="1" fill-opacity="0" stroke="#000000" stroke-width="1" stroke-opacity="0"></use></g></g><g><use xlink:href="#nm0vHoNKU" opacity="1" fill="#cb462d" fill-opacity="1"></use><g><use xlink:href="#nm0vHoNKU" opacity="1" fill-opacity="0" stroke="#000000" stroke-width="1" stroke-opacity="0"></use></g></g><g><use xlink:href="#d1aGIkKgM3" opacity="1" fill="#cb462d" fill-opacity="1"></use><g><use xlink:href="#d1aGIkKgM3" opacity="1" fill-opacity="0" stroke="#000000" stroke-width="1" stroke-opacity="0"></use></g></g><g><use xlink:href="#d6B2LA6zCD" opacity="1" fill="#cb462d" fill-opacity="1"></use><g><use xlink:href="#d6B2LA6zCD" opacity="1" fill-opacity="0" stroke="#000000" stroke-width="1" stroke-opacity="0"></use></g></g><g><use xlink:href="#h49rAfwxJ" opacity="1" fill="#cb462d" fill-opacity="1"></use><g><use xlink:href="#h49rAfwxJ" opacity="1" fill-opacity="0" stroke="#000000" stroke-width="1" stroke-opacity="0"></use></g></g><g><use xlink:href="#c6JxBWdE2h" opacity="1" fill="#cb462d" fill-opacity="1"></use><g><use xlink:href="#c6JxBWdE2h" opacity="1" fill-opacity="0" stroke="#000000" stroke-width="1" stroke-opacity="0"></use></g></g><g><use xlink:href="#h55Qvfnydk" opacity="1" fill="#cb462d" fill-opacity="1"></use><g><use xlink:href="#h55Qvfnydk" opacity="1" fill-opacity="0" stroke="#000000" stroke-width="1" stroke-opacity="0"></use></g></g><g><use xlink:href="#a1Bc0Oo63" opacity="1" fill="#cb462d" fill-opacity="1"></use><g><use xlink:href="#a1Bc0Oo63" opacity="1" fill-opacity="0" stroke="#000000" stroke-width="1" stroke-opacity="0"></use></g></g><g><use xlink:href="#ayVob1naW" opacity="1" fill="#cb462d" fill-opacity="1"></use><g><use xlink:href="#ayVob1naW" opacity="1" fill-opacity="0" stroke="#000000" stroke-width="1" stroke-opacity="0"></use></g></g><g><use xlink:href="#anXZCTuXc" opacity="1" fill="#cb462d" fill-opacity="1"></use><g><use xlink:href="#anXZCTuXc" opacity="1" fill-opacity="0" stroke="#000000" stroke-width="1" stroke-opacity="0"></use></g></g></g></g></svg>