<?xml version="1.0" encoding="UTF-8" standalone="no"?>
<!DOCTYPE svg PUBLIC "-//W3C//DTD SVG 1.1//EN" "http://www.w3.org/Graphics/SVG/1.1/DTD/svg11.dtd">
<svg version="1.1" xmlns="http://www.w3.org/2000/svg" xmlns:xlink="http://www.w3.org/1999/xlink" preserveAspectRatio="xMidYMid meet" viewBox="0 0 640 640" width="638" height="638"><defs><path d="M320 0C143.27 0 0 143.27 0 320C0 496.73 143.27 640 320 640C496.73 640 640 496.73 640 320C640 143.27 496.73 0 320 0Z" id="brlUs2xgn"></path><path d="M385.84 87.33L330.75 158.09L168.95 512.42C246.18 589.64 289.08 632.54 297.66 641.12C304.67 641.58 311.74 641.84 318.88 641.84C489.56 641.84 629.02 508.21 638.36 339.86C604.69 306.19 520.52 222.01 385.84 87.33Z" id="d2wpuwq2C9"></path><path d="M266.02 216.11L97.84 216.11L97.84 180.56C191.6 180.56 243.69 180.56 254.1 180.56C260.66 180.56 266.02 186.2 266.02 193.1C266.02 196.17 266.02 203.84 266.02 216.11Z" id="auWZZEp0m"></path><path d="M266.02 503.08C266.02 509.98 260.66 515.62 254.1 515.62C243.69 515.62 191.6 515.62 97.84 515.62L97.84 464.82L266.02 464.82C266.02 487.78 266.02 500.53 266.02 503.08Z" id="bi7COQX0D"></path><path d="M164.69 471.41C154.81 471.41 146.81 479.84 146.81 490.23C146.81 500.62 154.81 509.04 164.69 509.04C174.56 509.04 182.57 500.62 182.57 490.23C182.57 479.84 174.56 471.41 164.69 471.41Z" id="b2eKXGpBLd"></path><path d="M200.45 193.62C200.45 193.62 200.45 193.62 200.45 193.62C200.45 199.26 200.45 202.4 200.45 203.03C200.45 203.03 200.45 203.03 200.45 203.03C157.54 203.03 133.7 203.03 128.93 203.03C128.93 203.03 128.93 203.03 128.93 203.03C128.93 197.38 128.93 194.25 128.93 193.62C128.93 193.62 128.93 193.62 128.93 193.62C171.84 193.62 195.68 193.62 200.45 193.62Z" id="a38UlXtqYq"></path><path d="M97.84 216.11L63.39 216.11C63.39 202.3 63.39 194.63 63.39 193.1C63.39 186.2 68.7 180.56 75.31 180.56C76.81 180.56 84.32 180.56 97.84 180.56L97.84 216.11Z" id="a2DKuu9twn"></path><path d="M266.02 216.11C266.02 216.11 266.02 216.11 266.02 216.11C266.02 365.34 266.02 448.24 266.02 464.82C266.02 464.82 266.02 464.82 266.02 464.82C165.11 464.82 109.05 464.82 97.84 464.82C97.84 464.82 97.84 464.82 97.84 464.82C97.84 315.6 97.84 232.69 97.84 216.11C97.84 216.11 97.84 216.11 97.84 216.11C198.75 216.11 254.81 216.11 266.02 216.11Z" id="e5AxUtXKGp"></path><path d="M97.84 216.11C97.84 216.11 97.84 216.11 97.84 216.11C97.84 365.34 97.84 448.24 97.84 464.82C97.84 464.82 97.84 464.82 97.84 464.82C77.17 464.82 65.69 464.82 63.39 464.82C63.39 464.82 63.39 464.82 63.39 464.82C63.39 315.6 63.39 232.69 63.39 216.11C63.39 216.11 63.39 216.11 63.39 216.11C84.06 216.11 95.54 216.11 97.84 216.11Z" id="e3AWMcJKZ9"></path><path d="M97.84 515.62C84.32 515.62 76.81 515.62 75.31 515.62C68.7 515.62 63.39 509.98 63.39 503.08C63.39 500.53 63.39 487.78 63.39 464.82L97.84 464.82L97.84 515.62Z" id="a2jkbJO1M"></path><path d="M164.71 235.7C125.21 235.7 93.19 269.39 93.19 310.95C93.19 352.51 125.21 386.2 164.71 386.2C204.2 386.2 236.22 352.51 236.22 310.95C236.22 269.39 204.2 235.7 164.71 235.7Z" id="bfEDkO9dr"></path><path d="M164.71 246.73C131 246.73 103.68 275.48 103.68 310.95C103.68 346.42 131 375.17 164.71 375.17C198.41 375.17 225.73 346.42 225.73 310.95C225.73 275.48 198.41 246.73 164.71 246.73Z" id="aCEMvBNRr"></path><path d="M158.93 362.46L160.85 362.66L162.78 362.78L164.71 362.81L164.76 366.72L164.75 367.14L164.74 367.14L162.63 367.09L160.53 366.97L158.45 366.75L156.39 366.46L154.35 366.08L155.14 361.84L157.03 362.19L158.93 362.46Z" id="j4dWaYEewf"></path><path d="M161.24 278.25L161.24 270.72L164.81 270.72L164.81 278.25L166.76 278.25L167.47 278.26L168.18 278.31L168.88 278.38L169.57 278.48L170.25 278.62L170.92 278.78L171.58 278.96L172.23 279.18L172.87 279.42L173.5 279.68L174.11 279.97L174.72 280.28L175.31 280.62L175.88 280.98L176.44 281.36L176.99 281.77L177.52 282.19L178.03 282.64L178.53 283.11L179.01 283.59L179.47 284.1L179.91 284.62L180.34 285.16L180.74 285.72L181.12 286.29L181.49 286.88L181.83 287.49L182.15 288.11L182.45 288.74L182.72 289.39L182.97 290.05L183.2 290.72L183.41 291.41L183.58 292.1L183.73 292.81L183.86 293.52L183.96 294.25L184.03 294.99L184.07 295.73L184.09 296.48L184.08 296.91L184.07 297.34L184.05 297.76L184.01 298.19L183.97 298.61L183.92 299.03L183.86 299.44L183.79 299.86L183.71 300.27L183.63 300.68L183.53 301.08L183.43 301.49L183.31 301.88L183.19 302.28L183.06 302.67L182.93 303.06L182.78 303.45L182.62 303.83L182.46 304.2L182.29 304.58L182.11 304.94L181.92 305.31L181.73 305.67L181.53 306.02L181.31 306.37L181.1 306.72L180.87 307.05L180.64 307.39L180.4 307.72L180.15 308.04L179.89 308.36L179.63 308.67L179.36 308.98L179.08 309.28L178.79 309.57L178.5 309.86L178.2 310.14L177.9 310.42L177.59 310.69L177.27 310.95L177.59 311.21L177.9 311.48L178.2 311.75L178.5 312.04L178.79 312.32L179.08 312.62L179.36 312.92L179.63 313.22L179.89 313.54L180.15 313.85L180.4 314.18L180.64 314.51L180.87 314.84L181.1 315.18L181.32 315.53L181.53 315.88L181.73 316.23L181.92 316.59L182.11 316.95L182.29 317.32L182.46 317.69L182.62 318.07L182.78 318.45L182.93 318.84L183.06 319.22L183.19 319.62L183.32 320.01L183.43 320.41L183.53 320.81L183.63 321.22L183.71 321.63L183.79 322.04L183.86 322.45L183.92 322.87L183.97 323.29L184.01 323.71L184.05 324.13L184.07 324.56L184.08 324.99L184.09 325.42L184.07 326.17L184.03 326.91L183.96 327.65L183.86 328.37L183.74 329.09L183.58 329.8L183.41 330.49L183.2 331.18L182.98 331.85L182.72 332.51L182.45 333.16L182.15 333.79L181.83 334.41L181.49 335.02L181.12 335.61L180.74 336.18L180.34 336.74L179.91 337.28L179.47 337.8L179.01 338.31L178.53 338.79L178.03 339.26L177.52 339.7L176.99 340.13L176.44 340.53L175.88 340.92L175.31 341.28L174.72 341.61L174.11 341.93L173.5 342.22L172.87 342.48L172.23 342.72L171.58 342.93L170.92 343.12L170.25 343.28L169.57 343.41L168.88 343.52L168.18 343.59L167.47 343.64L166.76 343.65L164.81 343.65L164.81 351.18L161.24 351.18L161.24 343.65L157.06 343.65L157.06 351.18L153.49 351.18L153.49 343.65L145.33 343.65L145.33 336.13L149.91 336.13L149.91 314.71L145.33 314.71L145.33 307.19L149.91 307.19L149.91 285.77L145.33 285.77L145.33 278.25L153.49 278.25L153.49 270.72L157.06 270.72L157.06 278.25L161.24 278.25ZM157.06 336.13L166.76 336.13L167.95 336.05L169.09 335.84L170.19 335.5L171.23 335.04L172.21 334.46L173.12 333.77L173.95 332.99L174.7 332.11L175.35 331.15L175.9 330.12L176.34 329.02L176.67 327.87L176.87 326.66L176.94 325.42L176.87 324.17L176.67 322.97L176.34 321.81L175.9 320.71L175.35 319.68L174.7 318.73L173.95 317.85L173.12 317.07L172.21 316.38L171.23 315.8L170.19 315.34L169.09 314.99L167.95 314.78L166.76 314.71L157.06 314.71L157.06 336.13ZM157.06 307.18L166.76 307.18L167.95 307.11L169.09 306.9L170.19 306.56L171.23 306.09L172.21 305.52L173.12 304.83L173.95 304.05L174.7 303.17L175.35 302.21L175.9 301.18L176.34 300.09L176.67 298.93L176.87 297.72L176.94 296.48L176.87 295.23L176.67 294.03L176.34 292.87L175.9 291.77L175.35 290.74L174.7 289.78L173.95 288.91L173.12 288.13L172.21 287.44L171.23 286.86L170.19 286.4L169.09 286.05L167.95 285.84L166.76 285.77L157.06 285.77L157.06 307.18Z" id="c2WG72rva"></path><path d="M202.43 421.04C202.33 420.78 202.17 420.56 202.05 420.31C201.88 420 201.77 419.67 201.55 419.38C200.36 417.81 190.83 405.27 189.63 403.7C187.57 401 183.83 400.55 181.25 402.72C178.69 404.88 178.27 408.83 180.32 411.53C180.6 411.9 181.99 413.73 184.5 417.02C153.33 417.02 136.01 417.02 132.55 417.02C129.25 417.02 126.59 419.83 126.59 423.29C126.59 426.76 129.25 429.56 132.55 429.56C136.01 429.56 153.33 429.56 184.5 429.56C181.99 432.86 180.6 434.69 180.32 435.05C178.27 437.76 178.69 441.7 181.25 443.87C182.35 444.79 183.67 445.24 184.97 445.24C186.72 445.24 188.45 444.44 189.63 442.89C190.83 441.32 200.36 428.78 201.55 427.21C201.77 426.92 201.88 426.59 202.04 426.27C202.17 426.03 202.33 425.81 202.43 425.55C202.96 424.09 202.96 422.5 202.43 421.04Z" id="b1VhMJLzAU"></path><path d="M518.75 119.03L337.81 119.03L337.81 77.64C438.68 77.64 494.71 77.64 505.92 77.64C512.97 77.64 518.75 84.21 518.75 92.24C518.75 95.81 518.75 104.75 518.75 119.03Z" id="aoQn05q2i"></path><path d="M340.77 119.03L301.28 119.03C301.28 102.96 301.28 94.03 301.28 92.24C301.28 84.21 307.36 77.64 314.95 77.64C316.67 77.64 325.28 77.64 340.77 77.64L340.77 119.03Z" id="cVrhAEj9b"></path><path d="M518.75 453.1C518.75 461.13 513.07 467.71 506.13 467.71C495.11 467.71 439.99 467.71 340.77 467.71L340.77 408.57L518.75 408.57C518.75 435.29 518.75 450.14 518.75 453.1Z" id="b1KeyW7IcQ"></path><path d="M340.77 467.71C325.28 467.71 316.67 467.71 314.95 467.71C307.36 467.71 301.28 461.14 301.28 453.1C301.28 450.14 301.28 435.29 301.28 408.57L340.77 408.57L340.77 467.71Z" id="f2dYVvMbs"></path><path d="M417.43 416.24C406.11 416.24 396.93 426.04 396.93 438.14C396.93 450.24 406.11 460.04 417.43 460.04C428.75 460.04 437.93 450.24 437.93 438.14C437.93 426.04 428.75 416.24 417.43 416.24Z" id="e5Kz9JeFo"></path><path d="M458.42 92.9C458.42 92.9 458.42 92.9 458.42 92.9C458.42 99.47 458.42 103.12 458.42 103.85C458.42 103.85 458.42 103.85 458.42 103.85C409.23 103.85 381.9 103.85 376.44 103.85C376.44 103.85 376.44 103.85 376.44 103.85C376.44 97.28 376.44 93.63 376.44 92.9C376.44 92.9 376.44 92.9 376.44 92.9C425.63 92.9 452.96 92.9 458.42 92.9Z" id="aVMdMiOKx"></path><path d="M518.75 119.03C518.75 119.03 518.75 119.03 518.75 119.03C518.75 292.76 518.75 389.27 518.75 408.57C518.75 408.57 518.75 408.57 518.75 408.57C411.96 408.57 352.64 408.57 340.77 408.57C340.77 408.57 340.77 408.57 340.77 408.57C340.77 234.85 340.77 138.34 340.77 119.03C340.77 119.03 340.77 119.03 340.77 119.03C447.56 119.03 506.88 119.03 518.75 119.03Z" id="a1WJlpGP57"></path><path d="M340.77 119.03C340.77 119.03 340.77 119.03 340.77 119.03C340.77 292.76 340.77 389.27 340.77 408.57C340.77 408.57 340.77 408.57 340.77 408.57C317.08 408.57 303.92 408.57 301.28 408.57C301.28 408.57 301.28 408.57 301.28 408.57C301.28 234.85 301.28 138.34 301.28 119.03C301.28 119.03 301.28 119.03 301.28 119.03C324.98 119.03 338.14 119.03 340.77 119.03Z" id="dv4ssxU7b"></path><path d="M417.43 141.83C372.15 141.83 335.44 181.06 335.44 229.44C335.44 277.82 372.15 317.05 417.43 317.05C462.71 317.05 499.42 277.82 499.42 229.44C499.42 181.06 462.71 141.83 417.43 141.83Z" id="gKIZhu7kW"></path><path d="M417.43 154.68C378.79 154.68 347.47 188.15 347.47 229.44C347.47 270.73 378.79 304.2 417.43 304.2C456.07 304.2 487.39 270.73 487.39 229.44C487.39 188.15 456.07 154.68 417.43 154.68Z" id="bKPz8qa1E"></path><path d="M410.08 289.31L411.91 289.53L413.75 289.69L415.59 289.79L417.43 289.82L417.49 294.37L417.48 294.85L417.47 294.85L415.45 294.81L413.45 294.71L411.45 294.54L409.47 294.3L407.51 293.99L405.56 293.62L406.47 288.68L408.27 289.03L410.08 289.31Z" id="fRiKW9Jsj"></path><path d="M413.45 191.37L413.45 182.61L417.55 182.61L417.55 191.37L419.78 191.37L420.6 191.38L421.41 191.44L422.21 191.52L423 191.64L423.78 191.8L424.55 191.98L425.31 192.2L426.06 192.45L426.79 192.73L427.51 193.04L428.21 193.37L428.9 193.74L429.58 194.13L430.24 194.55L430.88 195L431.51 195.47L432.11 195.96L432.7 196.48L433.27 197.02L433.82 197.59L434.35 198.18L434.86 198.79L435.35 199.42L435.81 200.06L436.25 200.73L436.67 201.42L437.06 202.12L437.43 202.85L437.77 203.58L438.08 204.34L438.37 205.11L438.63 205.89L438.87 206.69L439.07 207.5L439.24 208.32L439.39 209.15L439.5 210L439.58 210.85L439.63 211.72L439.65 212.59L439.64 213.09L439.63 213.59L439.6 214.09L439.56 214.58L439.51 215.07L439.46 215.56L439.39 216.04L439.31 216.53L439.22 217.01L439.12 217.48L439.01 217.95L438.89 218.42L438.76 218.89L438.62 219.35L438.47 219.8L438.32 220.26L438.15 220.7L437.97 221.15L437.78 221.58L437.59 222.02L437.38 222.45L437.17 222.87L436.94 223.29L436.71 223.7L436.47 224.11L436.22 224.51L435.96 224.9L435.69 225.29L435.42 225.68L435.13 226.05L434.84 226.42L434.54 226.79L434.23 227.14L433.91 227.49L433.58 227.84L433.25 228.17L432.9 228.5L432.55 228.82L432.19 229.13L431.83 229.44L432.19 229.74L432.55 230.05L432.9 230.37L433.25 230.7L433.58 231.04L433.91 231.38L434.23 231.73L434.54 232.09L434.84 232.45L435.13 232.82L435.42 233.2L435.69 233.58L435.96 233.97L436.22 234.36L436.47 234.77L436.71 235.17L436.94 235.59L437.17 236L437.38 236.43L437.59 236.86L437.78 237.29L437.97 237.73L438.15 238.17L438.32 238.62L438.47 239.07L438.62 239.53L438.76 239.99L438.89 240.45L439.01 240.92L439.12 241.39L439.22 241.87L439.31 242.35L439.39 242.83L439.46 243.32L439.51 243.8L439.56 244.29L439.6 244.79L439.63 245.28L439.64 245.78L439.65 246.28L439.63 247.16L439.58 248.02L439.5 248.88L439.39 249.72L439.24 250.56L439.07 251.38L438.87 252.19L438.63 252.99L438.37 253.77L438.08 254.54L437.77 255.29L437.43 256.03L437.06 256.75L436.67 257.46L436.25 258.14L435.81 258.81L435.35 259.46L434.86 260.09L434.35 260.7L433.82 261.29L433.27 261.85L432.7 262.39L432.11 262.91L431.51 263.41L430.88 263.88L430.24 264.32L429.58 264.74L428.9 265.14L428.21 265.5L427.51 265.84L426.79 266.15L426.06 266.43L425.31 266.67L424.55 266.89L423.78 267.08L423 267.23L422.21 267.35L421.41 267.44L420.6 267.49L419.78 267.51L417.55 267.51L417.55 276.27L413.45 276.27L413.45 267.51L408.67 267.51L408.67 276.27L404.57 276.27L404.57 267.51L395.21 267.51L395.21 258.75L400.47 258.75L400.47 233.82L395.21 233.82L395.21 225.06L400.47 225.06L400.47 200.13L395.21 200.13L395.21 191.37L404.57 191.37L404.57 182.61L408.67 182.61L408.67 191.37L413.45 191.37ZM408.67 258.75L419.78 258.75L420.91 258.69L422 258.52L423.06 258.25L424.07 257.87L425.05 257.41L425.97 256.85L426.84 256.2L427.65 255.48L428.39 254.68L429.07 253.82L429.67 252.89L430.19 251.9L430.63 250.86L430.98 249.78L431.24 248.65L431.4 247.48L431.45 246.28L431.4 245.08L431.24 243.92L430.98 242.79L430.63 241.7L430.19 240.66L429.67 239.67L429.07 238.74L428.39 237.88L427.65 237.08L426.84 236.36L425.97 235.72L425.05 235.16L424.07 234.69L423.06 234.32L422 234.04L420.91 233.87L419.78 233.82L408.67 233.82L408.67 258.75ZM408.67 225.06L419.78 225.06L420.91 225L422 224.83L423.06 224.56L424.07 224.18L425.05 223.71L425.97 223.16L426.84 222.51L427.65 221.79L428.39 220.99L429.07 220.13L429.67 219.2L430.19 218.21L430.63 217.17L430.98 216.09L431.24 214.96L431.4 213.79L431.45 212.59L431.4 211.39L431.24 210.23L430.98 209.1L430.63 208.01L430.19 206.97L429.67 205.98L429.07 205.05L428.39 204.19L427.65 203.39L426.84 202.67L425.97 202.03L425.05 201.47L424.07 201L423.06 200.63L422 200.35L420.91 200.18L419.78 200.13L408.67 200.13L408.67 225.06Z" id="cWkB9GWA"></path><path d="M374.19 357.6C374.3 357.29 374.48 357.04 374.63 356.76C374.81 356.39 374.94 356 375.19 355.67C376.56 353.84 387.49 339.24 388.85 337.41C391.22 334.27 395.51 333.75 398.46 336.27C401.4 338.79 401.88 343.38 399.53 346.53C399.21 346.96 397.61 349.09 394.74 352.92C430.48 352.92 450.33 352.92 454.3 352.92C458.08 352.92 461.13 356.19 461.13 360.22C461.13 364.26 458.08 367.52 454.3 367.52C450.33 367.52 430.48 367.52 394.74 367.52C397.61 371.36 399.21 373.49 399.53 373.92C401.88 377.06 401.4 381.66 398.46 384.17C397.2 385.25 395.69 385.77 394.2 385.77C392.19 385.77 390.21 384.84 388.85 383.03C387.49 381.21 376.56 366.61 375.19 364.78C374.94 364.45 374.81 364.06 374.63 363.69C374.48 363.41 374.3 363.15 374.19 362.85C373.58 361.15 373.58 359.3 374.19 357.6Z" id="a4dbXaLjU"></path></defs><g><g><g><use xlink:href="#brlUs2xgn" opacity="1" fill="#005c83" fill-opacity="1"></use><g><use xlink:href="#brlUs2xgn" opacity="1" fill-opacity="0" stroke="#000000" stroke-width="1" stroke-opacity="0"></use></g></g><g><use xlink:href="#d2wpuwq2C9" opacity="1" fill="#00263f" fill-opacity="1"></use><g><use xlink:href="#d2wpuwq2C9" opacity="1" fill-opacity="0" stroke="#000000" stroke-width="1" stroke-opacity="0"></use></g></g><g><use xlink:href="#auWZZEp0m" opacity="1" fill="#e1e6e9" fill-opacity="1"></use><g><use xlink:href="#auWZZEp0m" opacity="1" fill-opacity="0" stroke="#000000" stroke-width="1" stroke-opacity="0"></use></g></g><g><use xlink:href="#bi7COQX0D" opacity="1" fill="#e1e6e9" fill-opacity="1"></use><g><use xlink:href="#bi7COQX0D" opacity="1" fill-opacity="0" stroke="#000000" stroke-width="1" stroke-opacity="0"></use></g></g><g><use xlink:href="#b2eKXGpBLd" opacity="1" fill="#1c75a1" fill-opacity="1"></use><g><use xlink:href="#b2eKXGpBLd" opacity="1" fill-opacity="0" stroke="#000000" stroke-width="1" stroke-opacity="0"></use></g></g><g><use xlink:href="#a38UlXtqYq" opacity="1" fill="#1c75a1" fill-opacity="1"></use><g><use xlink:href="#a38UlXtqYq" opacity="1" fill-opacity="0" stroke="#000000" stroke-width="1" stroke-opacity="0"></use></g></g><g><use xlink:href="#a2DKuu9twn" opacity="1" fill="#d5d6db" fill-opacity="1"></use><g><use xlink:href="#a2DKuu9twn" opacity="1" fill-opacity="0" stroke="#000000" stroke-width="1" stroke-opacity="0"></use></g></g><g><use xlink:href="#e5AxUtXKGp" opacity="1" fill="#27a2db" fill-opacity="1"></use><g><use xlink:href="#e5AxUtXKGp" opacity="1" fill-opacity="0" stroke="#000000" stroke-width="1" stroke-opacity="0"></use></g></g><g><use xlink:href="#e3AWMcJKZ9" opacity="1" fill="#2d93ba" fill-opacity="1"></use><g><use xlink:href="#e3AWMcJKZ9" opacity="1" fill-opacity="0" stroke="#000000" stroke-width="1" stroke-opacity="0"></use></g></g><g><use xlink:href="#a2jkbJO1M" opacity="1" fill="#d5d6db" fill-opacity="1"></use><g><use xlink:href="#a2jkbJO1M" opacity="1" fill-opacity="0" stroke="#000000" stroke-width="1" stroke-opacity="0"></use></g></g><g><use xlink:href="#bfEDkO9dr" opacity="1" fill="#f6c358" fill-opacity="1"></use><g><use xlink:href="#bfEDkO9dr" opacity="1" fill-opacity="0" stroke="#000000" stroke-width="1" stroke-opacity="0"></use></g></g><g><use xlink:href="#aCEMvBNRr" opacity="1" fill="#fcd462" fill-opacity="1"></use><g><use xlink:href="#aCEMvBNRr" opacity="1" fill-opacity="0" stroke="#000000" stroke-width="1" stroke-opacity="0"></use></g></g><g><use xlink:href="#j4dWaYEewf" opacity="1" fill="#f6c358" fill-opacity="1"></use><g><use xlink:href="#j4dWaYEewf" opacity="1" fill-opacity="0" stroke="#000000" stroke-width="1" stroke-opacity="0"></use></g></g><g><use xlink:href="#c2WG72rva" opacity="1" fill="#dc8744" fill-opacity="1"></use><g><use xlink:href="#c2WG72rva" opacity="1" fill-opacity="0" stroke="#000000" stroke-width="1" stroke-opacity="0"></use></g></g><g><use xlink:href="#b1VhMJLzAU" opacity="1" fill="#ebf0f3" fill-opacity="1"></use><g><use xlink:href="#b1VhMJLzAU" opacity="1" fill-opacity="0" stroke="#000000" stroke-width="1" stroke-opacity="0"></use></g></g><g><use xlink:href="#aoQn05q2i" opacity="1" fill="#e1e6e9" fill-opacity="1"></use><g><use xlink:href="#aoQn05q2i" opacity="1" fill-opacity="0" stroke="#000000" stroke-width="1" stroke-opacity="0"></use></g></g><g><use xlink:href="#cVrhAEj9b" opacity="1" fill="#d5d6db" fill-opacity="1"></use><g><use xlink:href="#cVrhAEj9b" opacity="1" fill-opacity="0" stroke="#000000" stroke-width="1" stroke-opacity="0"></use></g></g><g><use xlink:href="#b1KeyW7IcQ" opacity="1" fill="#e1e6e9" fill-opacity="1"></use><g><use xlink:href="#b1KeyW7IcQ" opacity="1" fill-opacity="0" stroke="#000000" stroke-width="1" stroke-opacity="0"></use></g></g><g><use xlink:href="#f2dYVvMbs" opacity="1" fill="#d5d6db" fill-opacity="1"></use><g><use xlink:href="#f2dYVvMbs" opacity="1" fill-opacity="0" stroke="#000000" stroke-width="1" stroke-opacity="0"></use></g></g><g><use xlink:href="#e5Kz9JeFo" opacity="1" fill="#1c75a1" fill-opacity="1"></use><g><use xlink:href="#e5Kz9JeFo" opacity="1" fill-opacity="0" stroke="#000000" stroke-width="1" stroke-opacity="0"></use></g></g><g><use xlink:href="#aVMdMiOKx" opacity="1" fill="#1c75a1" fill-opacity="1"></use><g><use xlink:href="#aVMdMiOKx" opacity="1" fill-opacity="0" stroke="#000000" stroke-width="1" stroke-opacity="0"></use></g></g><g><use xlink:href="#a1WJlpGP57" opacity="1" fill="#e56353" fill-opacity="1"></use><g><use xlink:href="#a1WJlpGP57" opacity="1" fill-opacity="0" stroke="#000000" stroke-width="1" stroke-opacity="0"></use></g></g><g><use xlink:href="#dv4ssxU7b" opacity="1" fill="#d15241" fill-opacity="1"></use><g><use xlink:href="#dv4ssxU7b" opacity="1" fill-opacity="0" stroke="#000000" stroke-width="1" stroke-opacity="0"></use></g></g><g><use xlink:href="#gKIZhu7kW" opacity="1" fill="#f6c358" fill-opacity="1"></use><g><use xlink:href="#gKIZhu7kW" opacity="1" fill-opacity="0" stroke="#000000" stroke-width="1" stroke-opacity="0"></use></g></g><g><use xlink:href="#bKPz8qa1E" opacity="1" fill="#fcd462" fill-opacity="1"></use><g><use xlink:href="#bKPz8qa1E" opacity="1" fill-opacity="0" stroke="#000000" stroke-width="1" stroke-opacity="0"></use></g></g><g><use xlink:href="#fRiKW9Jsj" opacity="1" fill="#f6c358" fill-opacity="1"></use><g><use xlink:href="#fRiKW9Jsj" opacity="1" fill-opacity="0" stroke="#000000" stroke-width="1" stroke-opacity="0"></use></g></g><g><use xlink:href="#cWkB9GWA" opacity="1" fill="#dc8744" fill-opacity="1"></use><g><use xlink:href="#cWkB9GWA" opacity="1" fill-opacity="0" stroke="#000000" stroke-width="1" stroke-opacity="0"></use></g></g><g><use xlink:href="#a4dbXaLjU" opacity="1" fill="#ebf0f3" fill-opacity="1"></use><g><use xlink:href="#a4dbXaLjU" opacity="1" fill-opacity="0" stroke="#000000" stroke-width="1" stroke-opacity="0"></use></g></g></g></g></svg>