<?xml version="1.0" encoding="UTF-8" standalone="no"?>
<!DOCTYPE svg PUBLIC "-//W3C//DTD SVG 1.1//EN" "http://www.w3.org/Graphics/SVG/1.1/DTD/svg11.dtd">
<svg version="1.1" xmlns="http://www.w3.org/2000/svg" xmlns:xlink="http://www.w3.org/1999/xlink" preserveAspectRatio="xMidYMid meet" viewBox="0 0 640 640" width="640" height="640"><defs><path d="M321.21 -0.48C144.48 -0.48 1.21 142.79 1.21 319.52C1.21 496.25 144.48 639.52 321.21 639.52C497.94 639.52 641.21 496.25 641.21 319.52C641.21 142.79 497.94 -0.48 321.21 -0.48Z" id="ddDDyRyDN"></path><path d="M555.04 175.35C556.76 177.88 559.67 179.26 562.64 179.26C564.31 179.26 565.99 178.82 567.5 177.91C571.7 175.39 572.92 170.14 570.23 166.2C534.72 114.19 480.88 74.99 418.63 55.82C413.88 54.36 408.8 56.79 407.24 61.23C405.69 65.68 408.27 70.47 413.01 71.93C471.32 89.88 521.76 126.62 555.04 175.35Z" id="a29IzkgAfZ"></path><path d="M96.54 179.26C99.51 179.26 102.42 177.88 104.14 175.36C137.8 126.05 188.9 89.12 248.02 71.37C252.77 69.94 255.38 65.17 253.87 60.71C252.35 56.25 247.27 53.79 242.53 55.22C179.41 74.17 124.87 113.59 88.95 166.2C86.27 170.14 87.48 175.39 91.68 177.91C93.19 178.82 94.87 179.26 96.54 179.26Z" id="asd4FHnI"></path><path d="M91.68 443.93C87.48 446.45 86.27 451.7 88.95 455.64C118.61 499.08 160.61 533.41 210.41 554.91C211.63 555.44 212.91 555.69 214.17 555.69C217.58 555.69 220.85 553.86 222.37 550.76C224.45 546.5 222.47 541.47 217.94 539.51C171.29 519.36 131.93 487.19 104.14 446.48C101.45 442.54 95.87 441.4 91.68 443.93Z" id="i1aJ2MP17K"></path><path d="M450.75 554.05C499.68 532.49 540.99 498.46 570.23 455.64C572.92 451.7 571.7 446.45 567.5 443.93C563.31 441.4 557.73 442.54 555.04 446.49C527.65 486.61 488.93 518.5 443.09 538.7C438.58 540.69 436.63 545.74 438.75 549.98C440.28 553.05 443.53 554.85 446.92 554.85C448.2 554.85 449.51 554.6 450.75 554.05Z" id="foi9Um1"></path><path d="M402.25 581.66C402.25 581.58 402.25 581.49 402.25 581.41C402.23 581.12 402.21 580.84 402.19 580.55C402.17 580.18 402.15 579.81 402.12 579.45C402.1 579.3 402.08 579.15 402.07 579C402.02 578.51 401.97 578.02 401.9 577.54C401.9 577.5 401.89 577.46 401.88 577.42C400.53 567.57 395.93 560.38 390.76 555.48C390.74 555.45 390.71 555.43 390.69 555.41C390.42 555.15 390.15 554.9 389.87 554.66C389.74 554.54 389.6 554.42 389.47 554.3C389.31 554.17 389.15 554.03 388.99 553.9C388.73 553.68 388.46 553.46 388.2 553.25C388.17 553.23 388.14 553.21 388.11 553.19C384.8 550.57 381.48 548.87 378.87 547.99C378.86 547.99 378.85 547.99 378.84 547.98C378.83 547.98 378.78 547.96 378.77 547.96C378.76 547.96 378.75 547.95 378.75 547.95C376.47 547.06 365.08 542.61 344.58 534.6L336.04 543.23L327.31 551.52L318.58 543.23L310.05 534.6C289.55 542.61 278.16 547.06 275.88 547.95C275.87 547.95 275.86 547.95 275.85 547.96C275.85 547.96 275.79 547.98 275.79 547.98C275.77 547.98 275.76 547.99 275.75 547.99C273.15 548.87 269.83 550.57 266.51 553.18C266.48 553.21 266.45 553.23 266.42 553.25C266.16 553.46 265.9 553.67 265.63 553.89C265.48 554.03 265.32 554.16 265.16 554.3C265.02 554.42 264.89 554.54 264.75 554.66C264.48 554.9 264.21 555.15 263.94 555.41C263.91 555.43 263.89 555.45 263.86 555.47C258.69 560.38 254.09 567.57 252.74 577.41C252.73 577.46 252.73 577.5 252.72 577.54C252.66 578.02 252.61 578.51 252.56 579C252.54 579.15 252.52 579.3 252.51 579.45C252.48 579.81 252.46 580.18 252.43 580.55C252.42 580.83 252.39 581.12 252.38 581.41C252.37 581.49 252.38 581.58 252.37 581.66C252.35 582.23 252.33 582.81 252.33 583.4C252.33 583.75 252.33 585.52 252.33 588.69L252.33 588.69C252.33 598.4 252.33 603.79 252.33 604.87C252.56 607.39 253.9 611.83 260.59 611.83C261.14 611.83 263.86 611.83 268.76 611.83L385.87 611.83C390.77 611.83 393.49 611.83 394.03 611.83C400.73 611.83 402.07 607.39 402.29 604.87C402.29 603.79 402.29 598.4 402.29 588.69L402.29 588.69L402.29 583.4C402.28 582.62 402.27 582.04 402.25 581.66Z" id="b50Q0CSJ2k"></path><path d="M275.89 547.95C275.83 547.97 275.79 547.98 275.78 547.98C267.07 551.01 252.33 561.88 252.33 583.4C252.33 585.55 252.33 602.72 252.33 604.87C252.56 607.4 253.9 611.83 260.59 611.83C260.71 611.83 261.28 611.83 262.31 611.83C262.31 594.77 262.31 585.3 262.31 583.4C262.31 561.88 277.06 551.01 285.77 547.98C285.77 547.98 285.81 547.97 285.87 547.94L312.74 537.69L309.88 534.97L275.89 547.95Z" id="b1TzwPM7TT"></path><path d="M332.81 413.63L334.64 413.81L336.46 414.06L338.25 414.38L340.02 414.77L341.76 415.23L343.48 415.75L345.16 416.33L346.81 416.98L348.43 417.68L350.02 418.45L351.57 419.27L353.09 420.15L354.56 421.08L356 422.07L357.4 423.11L358.75 424.2L360.06 425.33L361.32 426.52L362.54 427.75L363.7 429.02L364.82 430.34L365.88 431.7L366.9 433.1L367.85 434.54L368.76 436.02L369.6 437.53L370.38 439.08L371.11 440.65L371.77 442.27L372.37 443.91L372.9 445.58L373.37 447.27L373.77 449L374.1 450.74L374.36 452.51L374.55 454.3L374.66 456.12L374.7 457.95L374.7 478.81L374.68 478.81L374.62 478.8L374.53 478.79L374.41 478.77L374.25 478.75L374.06 478.73L373.85 478.7L373.61 478.66L373.34 478.62L373.06 478.57L372.75 478.52L372.42 478.46L372.08 478.39L371.72 478.31L371.35 478.23L370.96 478.14L370.57 478.04L370.17 477.93L369.76 477.82L369.35 477.69L368.93 477.56L368.52 477.41L368.1 477.26L367.69 477.1L367.29 476.92L366.89 476.74L366.5 476.54L366.12 476.34L365.75 476.12L365.4 475.89L365.06 475.65L364.74 475.39L364.44 475.13L364.16 474.85L363.9 474.56L363.67 474.25L363.47 473.93L363.29 473.6L363.15 473.25L363.04 472.89L363.14 472.81L363.1 472.78L363.07 472.74L363.04 472.7L363 472.66L362.97 472.62L362.94 472.58L362.9 472.54L362.87 472.5L362.84 472.46L362.81 472.42L362.78 472.38L362.75 472.34L362.72 472.3L362.69 472.26L362.66 472.22L362.63 472.17L362.6 472.13L362.57 472.09L362.55 472.05L362.52 472L362.49 471.96L362.46 471.92L362.44 471.87L362.41 471.83L362.39 471.78L362.36 471.74L362.34 471.69L362.31 471.65L362.29 471.6L362.26 471.56L362.24 471.51L362.22 471.46L362.2 471.42L362.18 471.37L362.15 471.32L362.13 471.28L362.11 471.23L362.09 471.18L362.07 471.13L362.05 471.08L361.15 470.83L360.27 470.56L359.4 470.25L358.56 469.93L357.75 469.59L356.95 469.22L356.17 468.83L355.42 468.43L354.69 468.01L353.97 467.57L353.28 467.12L352.61 466.66L351.96 466.18L351.33 465.69L350.72 465.19L350.13 464.68L349.56 464.16L349 463.63L348.47 463.1L347.96 462.56L347.47 462.02L347 461.47L346.54 460.93L346.11 460.38L345.69 459.83L345.29 459.29L344.91 458.75L344.55 458.21L344.21 457.67L343.89 457.14L343.58 456.62L343.29 456.11L343.02 455.6L342.77 455.11L342.54 454.63L342.32 454.15L342.12 453.7L341.94 453.26L341.77 452.83L341.62 452.42L340.42 453.77L339.18 455.06L337.9 456.28L336.58 457.44L335.24 458.53L333.86 459.57L332.46 460.55L331.04 461.47L329.6 462.34L328.14 463.15L326.67 463.91L325.19 464.62L323.7 465.29L322.21 465.91L320.72 466.48L319.23 467.01L317.75 467.5L316.27 467.95L314.81 468.36L313.37 468.73L311.94 469.07L310.53 469.38L309.15 469.66L307.8 469.91L306.48 470.13L305.19 470.32L303.94 470.49L302.72 470.64L301.56 470.77L300.44 470.88L299.36 470.97L298.35 471.05L297.38 471.11L296.48 471.16L295.64 471.2L294.87 471.23L294.16 471.25L293.52 471.27L292.96 471.29L292.48 471.3L292.46 471.35L292.44 471.39L292.42 471.43L292.4 471.48L292.38 471.52L292.36 471.56L292.34 471.61L292.31 471.65L292.29 471.69L292.27 471.73L292.25 471.78L292.22 471.82L292.2 471.86L292.17 471.9L292.15 471.94L292.12 471.98L292.1 472.02L292.07 472.06L292.04 472.1L292.02 472.14L291.99 472.18L291.96 472.22L291.94 472.26L291.91 472.3L291.88 472.34L291.85 472.38L291.82 472.42L291.79 472.45L291.76 472.49L291.73 472.53L291.7 472.57L291.67 472.6L291.64 472.64L291.61 472.68L291.58 472.71L291.55 472.75L291.52 472.78L291.48 472.82L291.45 472.85L291.42 472.89L291.43 472.89L291.31 473.26L291.17 473.6L290.99 473.93L290.79 474.25L290.56 474.56L290.3 474.85L290.02 475.13L289.72 475.39L289.4 475.65L289.06 475.89L288.71 476.12L288.34 476.34L287.96 476.54L287.57 476.74L287.17 476.92L286.77 477.1L286.36 477.26L285.94 477.41L285.53 477.56L285.11 477.69L284.7 477.82L284.29 477.93L283.89 478.04L283.5 478.14L283.11 478.23L282.74 478.31L282.38 478.39L282.04 478.46L281.71 478.52L281.4 478.57L281.11 478.62L280.85 478.66L280.61 478.7L280.39 478.73L280.21 478.76L280.05 478.78L279.93 478.79L279.83 478.8L279.78 478.81L279.76 478.81L279.76 457.95L279.8 456.12L279.91 454.31L280.1 452.51L280.36 450.74L280.69 449L281.09 447.27L281.55 445.58L282.09 443.91L282.69 442.27L283.35 440.66L284.07 439.08L284.86 437.53L285.7 436.02L286.6 434.54L287.56 433.1L288.57 431.7L289.64 430.34L290.76 429.02L291.92 427.75L293.14 426.52L294.4 425.33L295.71 424.2L297.06 423.11L298.46 422.07L299.89 421.08L301.37 420.15L302.88 419.27L304.44 418.45L306.02 417.68L307.64 416.98L309.3 416.33L310.98 415.75L312.69 415.23L314.44 414.77L316.2 414.38L318 414.06L319.81 413.81L321.65 413.63L323.51 413.52L325.39 413.48L329.07 413.48L330.95 413.52L332.81 413.63ZM362.53 471.16L362.54 471.16L362.55 471.17L362.55 471.17L362.56 471.17L362.61 471.2L362.61 471.2L362.61 471.2L362.97 470.49L363.13 470.03L363.11 470.05L362.53 471.16ZM362.04 470.75L362.06 470.77L362.88 470.18L363.15 469.93L362.02 470.72L362.04 470.75ZM363.47 469.7L363.26 469.91L363.97 469.39L363.91 469.39L363.47 469.7ZM363.3 469.68L363.25 469.83L363.33 469.76L363.51 469.39L363.45 469.39L363.3 469.68Z" id="ba8hgnMYEU"></path><path d="M287.8 463.88C287.8 460.32 287.8 458.34 287.8 457.95C287.8 434.14 307.1 414.65 331.25 413.53C330.53 413.5 329.8 413.48 329.07 413.48C328.7 413.48 325.76 413.48 325.39 413.48C300.23 413.48 279.76 433.43 279.76 457.95C279.76 458.34 279.76 460.32 279.76 463.88L279.76 469.43C279.76 475.06 279.76 478.18 279.76 478.81C279.76 478.81 284.35 478.36 287.8 476.62C287.8 476.14 287.8 473.75 287.8 469.43L287.8 463.88Z" id="dVVLjxiuW"></path><path d="M364.1 473.19C362.63 474.25 361.76 475.92 361.76 477.7C361.76 479.3 361.76 492.06 361.76 493.66C361.76 495.44 362.63 497.11 364.1 498.17C365.1 498.88 366.3 499.26 367.51 499.26C368.08 499.26 368.66 499.17 369.22 499C370.32 498.67 371.4 498.19 372.43 497.57C373.04 497.21 373.58 496.73 374 496.18C374.64 495.87 375.21 495.43 375.68 494.91C378 492.35 379.28 489.08 379.28 485.68C379.28 479.54 375.24 474.19 369.22 472.36C367.48 471.83 365.58 472.14 364.1 473.19Z" id="b7Dt5bkNEa"></path><path d="M285.4 472.36C279.39 474.19 275.35 479.54 275.35 485.68C275.35 491.82 279.39 497.17 285.4 499C285.96 499.17 286.54 499.26 287.11 499.26C288.32 499.26 289.52 498.88 290.52 498.17C291.99 497.11 292.86 495.44 292.86 493.66C292.86 492.06 292.86 479.3 292.86 477.7C292.86 475.92 291.99 474.25 290.52 473.19C289.05 472.14 287.15 471.83 285.4 472.36Z" id="csBQLmvpw"></path><path d="M338.78 519.92C338.76 519.92 338.6 519.93 338.58 519.93C338.23 519.94 337.88 519.99 337.54 520.06C335.32 520.54 333.06 520.79 330.82 520.79C330.12 520.79 324.5 520.79 323.8 520.79C321.5 520.79 319.17 520.53 316.88 520.02C315.18 519.63 313.39 520.03 312.02 521.09C310.65 522.16 309.86 523.77 309.86 525.47C309.86 526.56 309.86 531.99 309.86 541.76C309.85 541.79 309.85 541.81 309.85 541.81C309.76 543.43 310.39 545 311.58 546.13C312.73 547.23 321.97 556 323.12 557.09C324.19 558.11 325.63 558.68 327.13 558.68C327.16 558.68 327.19 558.68 327.22 558.68C328.75 558.66 330.21 558.04 331.27 556.96C332.46 555.76 341.97 546.14 343.16 544.93C344.19 543.89 344.77 542.5 344.77 541.05C344.77 539.5 344.77 527.07 344.77 525.52C344.77 523.99 344.13 522.53 343 521.47C341.87 520.42 340.35 519.87 338.78 519.92Z" id="e37chy3sVt"></path><path d="M316.75 544.45C315.56 543.33 314.93 541.75 315.02 540.13C315.02 540.13 315.02 540.11 315.03 540.08C315.03 530.31 315.03 524.88 315.03 523.79C315.03 522.36 315.6 521 316.59 519.96C314.97 519.69 313.31 520.09 312.02 521.09C310.65 522.15 309.86 523.77 309.86 525.47C309.86 526.56 309.86 531.98 309.86 541.76C309.85 541.79 309.85 541.81 309.85 541.81C309.76 543.43 310.39 545 311.58 546.13C312.73 547.23 321.97 555.99 323.12 557.09C324.2 558.11 325.63 558.68 327.13 558.68C327.16 558.68 327.19 558.68 327.22 558.68C328.75 558.65 330.21 558.04 331.27 556.96C331.27 556.96 331.31 556.91 331.32 556.91C330.19 556.72 329.13 556.2 328.29 555.41C325.99 553.22 317.91 545.55 316.75 544.45Z" id="e5xkel4gK"></path><path d="M358.91 466.93C349.26 462.54 345.25 456.83 343.63 453.43C343.54 453.3 343.44 453.16 343.34 452.98C342.19 450.91 340.39 452.22 340.39 452.22C340.39 452.22 340.39 452.22 340.38 452.22C331.37 458.96 321.52 462.9 313.34 465.19C310.15 466.11 307.1 466.77 304.33 467.25C298.85 468.23 295.32 468.36 295.32 468.36C292.31 468.57 289.99 471.01 289.99 473.95C289.99 476.23 289.99 494.51 289.99 496.79C289.99 514.96 305.15 529.75 323.8 529.75C324.5 529.75 330.12 529.75 330.82 529.75C349.47 529.75 364.64 514.96 364.64 496.79C364.64 494.42 364.64 475.41 364.64 473.04C364.64 470.7 363.15 468.61 360.9 467.79C360.2 467.54 359.55 467.25 358.91 466.93Z" id="b1xnsrXxE"></path><path d="M296.88 473.95C296.88 471.01 299.21 468.57 302.21 468.36C302.21 468.36 305.74 468.23 311.23 467.25C313.99 466.77 317.04 466.1 320.23 465.19C327.48 463.16 336.02 459.83 344.14 454.42C343.95 454.07 343.78 453.74 343.63 453.43C343.54 453.3 343.44 453.16 343.34 452.98C342.19 450.91 340.39 452.22 340.39 452.22C340.39 452.22 340.38 452.22 340.38 452.22C331.37 458.95 321.52 462.89 313.34 465.19C310.15 466.1 307.09 466.77 304.33 467.25C298.85 468.23 295.32 468.36 295.32 468.36C292.31 468.57 289.98 471.01 289.98 473.95C289.98 476.23 289.98 494.51 289.98 496.79C289.98 514.96 305.15 529.75 323.8 529.75C324.49 529.75 330 529.75 330.69 529.75C312.05 529.74 296.88 514.96 296.88 496.79C296.88 492.22 296.88 476.23 296.88 473.95Z" id="l3Y3zIwSUa"></path><path d="M619.01 371.43C619.01 371.35 619.01 371.27 619 371.18C618.99 370.89 618.96 370.61 618.95 370.32C618.92 369.95 618.9 369.58 618.87 369.22C618.86 369.07 618.84 368.92 618.82 368.77C618.77 368.28 618.72 367.79 618.66 367.31C618.65 367.27 618.65 367.23 618.64 367.19C617.29 357.34 612.69 350.15 607.52 345.25C607.49 345.22 607.47 345.2 607.44 345.18C607.17 344.92 606.9 344.67 606.63 344.43C606.49 344.31 606.36 344.19 606.22 344.08C606.06 343.94 605.91 343.8 605.75 343.67C605.48 343.45 605.22 343.23 604.96 343.03C604.93 343 604.9 342.98 604.87 342.96C601.55 340.34 598.23 338.64 595.63 337.77C595.62 337.76 595.61 337.76 595.59 337.75C595.59 337.75 595.53 337.73 595.53 337.73C595.52 337.73 595.51 337.72 595.5 337.72C593.22 336.83 581.83 332.38 561.33 324.37L552.8 333L544.07 341.29L535.34 333L526.8 324.37C506.3 332.38 494.91 336.83 492.63 337.72C492.63 337.72 492.62 337.73 492.61 337.73C492.6 337.73 492.55 337.75 492.54 337.75C492.53 337.76 492.52 337.76 492.51 337.76C489.9 338.64 486.58 340.34 483.27 342.96C483.24 342.98 483.21 343 483.18 343.02C482.92 343.23 482.65 343.45 482.39 343.67C482.23 343.8 482.07 343.94 481.91 344.07C481.78 344.19 481.64 344.31 481.51 344.43C481.23 344.67 480.96 344.92 480.69 345.18C480.67 345.2 480.64 345.22 480.62 345.25C475.45 350.15 470.85 357.34 469.5 367.19C469.49 367.23 469.48 367.27 469.48 367.31C469.41 367.79 469.36 368.28 469.31 368.77C469.3 368.92 469.28 369.07 469.26 369.22C469.23 369.58 469.21 369.95 469.19 370.32C469.17 370.61 469.15 370.89 469.13 371.18C469.13 371.26 469.13 371.35 469.13 371.43C469.11 372 469.09 372.58 469.09 373.17C469.09 373.53 469.09 375.29 469.09 378.47L469.09 378.47C469.09 388.17 469.09 393.56 469.09 394.64C469.31 397.16 470.65 401.6 477.35 401.6C477.89 401.6 480.62 401.6 485.52 401.6L602.62 401.6C607.52 401.6 610.24 401.6 610.79 401.6C617.48 401.6 618.83 397.16 619.05 394.64C619.05 393.56 619.05 388.17 619.05 378.47L619.05 378.47L619.05 373.18C619.04 372.4 619.02 371.81 619.01 371.43Z" id="c2f0rCYhvv"></path><path d="M492.64 337.72C492.58 337.74 492.55 337.75 492.54 337.75C483.83 340.78 469.09 351.65 469.09 373.18C469.09 375.32 469.09 392.49 469.09 394.64C469.31 397.17 470.65 401.6 477.35 401.6C477.46 401.6 478.04 401.6 479.07 401.6C479.07 384.55 479.07 375.07 479.07 373.17C479.07 351.65 493.81 340.78 502.52 337.75C502.53 337.75 502.56 337.74 502.63 337.72L529.5 327.46L526.64 324.74L492.64 337.72Z" id="asQrfIVyN"></path><path d="M549.56 203.4L551.4 203.58L553.22 203.83L555.01 204.16L556.78 204.54L558.52 205L560.23 205.52L561.92 206.1L563.57 206.75L565.19 207.46L566.78 208.22L568.33 209.04L569.84 209.92L571.32 210.86L572.76 211.84L574.15 212.88L575.5 213.97L576.81 215.11L578.08 216.29L579.29 217.52L580.46 218.8L581.57 220.11L582.64 221.47L583.65 222.87L584.61 224.31L585.51 225.79L586.35 227.3L587.14 228.85L587.86 230.43L588.53 232.04L589.13 233.68L589.66 235.35L590.13 237.05L590.53 238.77L590.86 240.51L591.12 242.28L591.3 244.08L591.42 245.89L591.46 247.72L591.46 268.58L591.44 268.58L591.38 268.57L591.29 268.56L591.16 268.55L591.01 268.53L590.82 268.5L590.61 268.47L590.36 268.44L590.1 268.39L589.81 268.35L589.5 268.29L589.18 268.23L588.83 268.16L588.47 268.09L588.1 268L587.72 267.91L587.32 267.81L586.92 267.7L586.51 267.59L586.1 267.46L585.69 267.33L585.27 267.18L584.86 267.03L584.45 266.87L584.04 266.69L583.64 266.51L583.25 266.31L582.87 266.11L582.51 265.89L582.15 265.66L581.81 265.42L581.49 265.17L581.19 264.9L580.91 264.62L580.66 264.33L580.43 264.02L580.22 263.71L580.05 263.37L579.9 263.03L579.79 262.67L579.89 262.59L579.86 262.55L579.82 262.51L579.79 262.47L579.76 262.43L579.73 262.39L579.69 262.35L579.66 262.31L579.63 262.27L579.6 262.23L579.57 262.19L579.54 262.15L579.5 262.11L579.47 262.07L579.44 262.03L579.42 261.99L579.39 261.95L579.36 261.9L579.33 261.86L579.3 261.82L579.27 261.77L579.25 261.73L579.22 261.69L579.19 261.64L579.17 261.6L579.14 261.55L579.12 261.51L579.09 261.46L579.07 261.42L579.04 261.37L579.02 261.33L579 261.28L578.97 261.24L578.95 261.19L578.93 261.14L578.91 261.09L578.89 261.05L578.87 261L578.85 260.95L578.83 260.9L578.81 260.86L577.9 260.6L577.02 260.33L576.16 260.03L575.32 259.7L574.5 259.36L573.71 258.99L572.93 258.61L572.18 258.2L571.44 257.78L570.73 257.35L570.04 256.89L569.36 256.43L568.71 255.95L568.08 255.46L567.47 254.96L566.88 254.45L566.31 253.93L565.76 253.4L565.23 252.87L564.72 252.33L564.22 251.79L563.75 251.25L563.3 250.7L562.86 250.15L562.45 249.61L562.05 249.06L561.67 248.52L561.31 247.98L560.97 247.44L560.64 246.91L560.34 246.39L560.05 245.88L559.78 245.37L559.53 244.88L559.29 244.4L559.07 243.93L558.87 243.47L558.69 243.03L558.53 242.6L558.38 242.19L557.18 243.54L555.93 244.83L554.65 246.05L553.34 247.21L551.99 248.31L550.62 249.34L549.22 250.32L547.8 251.24L546.35 252.11L544.9 252.92L543.42 253.68L541.94 254.4L540.46 255.06L538.97 255.68L537.47 256.25L535.99 256.78L534.5 257.27L533.03 257.72L531.57 258.13L530.12 258.5L528.69 258.85L527.29 259.15L525.91 259.43L524.55 259.68L523.23 259.9L521.94 260.1L520.69 260.27L519.48 260.41L518.31 260.54L517.19 260.65L516.12 260.74L515.1 260.82L514.14 260.88L513.24 260.93L512.4 260.97L511.62 261L510.91 261.03L510.28 261.05L509.72 261.06L509.24 261.07L509.22 261.12L509.2 261.16L509.18 261.21L509.16 261.25L509.14 261.29L509.11 261.34L509.09 261.38L509.07 261.42L509.05 261.46L509.02 261.51L509 261.55L508.98 261.59L508.95 261.63L508.93 261.67L508.9 261.71L508.88 261.75L508.85 261.8L508.83 261.84L508.8 261.88L508.77 261.92L508.75 261.95L508.72 261.99L508.69 262.03L508.66 262.07L508.63 262.11L508.61 262.15L508.58 262.19L508.55 262.23L508.52 262.26L508.49 262.3L508.46 262.34L508.43 262.37L508.4 262.41L508.37 262.45L508.33 262.48L508.3 262.52L508.27 262.56L508.24 262.59L508.21 262.63L508.17 262.66L508.18 262.67L508.07 263.03L507.92 263.37L507.75 263.71L507.54 264.02L507.31 264.33L507.06 264.62L506.78 264.9L506.48 265.17L506.16 265.42L505.82 265.66L505.46 265.89L505.1 266.11L504.72 266.31L504.33 266.51L503.93 266.69L503.52 266.87L503.11 267.03L502.7 267.19L502.28 267.33L501.87 267.46L501.46 267.59L501.05 267.71L500.65 267.81L500.25 267.91L499.87 268L499.5 268.09L499.14 268.16L498.79 268.23L498.47 268.29L498.16 268.35L497.87 268.39L497.6 268.44L497.36 268.47L497.15 268.5L496.96 268.53L496.81 268.55L496.68 268.56L496.59 268.57L496.53 268.58L496.51 268.58L496.51 247.72L496.55 245.89L496.67 244.08L496.85 242.29L497.11 240.52L497.44 238.77L497.84 237.05L498.31 235.35L498.84 233.68L499.44 232.04L500.11 230.43L500.83 228.85L501.61 227.3L502.46 225.79L503.36 224.31L504.32 222.87L505.33 221.47L506.39 220.11L507.51 218.8L508.68 217.52L509.89 216.29L511.16 215.11L512.46 213.97L513.82 212.88L515.21 211.84L516.65 210.86L518.12 209.92L519.64 209.04L521.19 208.22L522.78 207.46L524.4 206.75L526.05 206.1L527.74 205.52L529.45 205L531.19 204.54L532.96 204.16L534.75 203.83L536.57 203.58L538.41 203.4L540.27 203.29L542.14 203.25L545.83 203.25L547.7 203.29L549.56 203.4ZM579.29 260.93L579.3 260.94L579.3 260.94L579.31 260.94L579.31 260.95L579.36 260.97L579.37 260.97L579.37 260.97L579.72 260.26L579.88 259.8L579.87 259.82L579.29 260.93ZM578.81 260.54L579.64 259.95L579.9 259.7L578.78 260.49L578.79 260.52L578.81 260.54ZM580.23 259.47L580.01 259.68L580.73 259.16L580.67 259.16L580.23 259.47ZM580.05 259.45L580 259.6L580.09 259.53L580.27 259.16L580.21 259.16L580.05 259.45Z" id="aCYQn5QIh"></path><path d="M504.56 253.65C504.56 250.09 504.56 248.11 504.56 247.72C504.56 223.91 523.86 204.42 548.01 203.31C547.28 203.27 546.56 203.25 545.83 203.25C545.46 203.25 542.51 203.25 542.14 203.25C516.98 203.25 496.51 223.2 496.51 247.72C496.51 248.11 496.51 250.09 496.51 253.65L496.51 259.2C496.51 264.83 496.51 267.95 496.51 268.58C496.51 268.58 501.11 268.13 504.56 266.4C504.56 265.92 504.56 263.52 504.56 259.2L504.56 253.65Z" id="cOcxk3QhM"></path><path d="M580.86 262.97C579.39 264.02 578.52 265.69 578.52 267.48C578.52 269.07 578.52 281.83 578.52 283.43C578.52 285.21 579.39 286.88 580.86 287.94C581.86 288.66 583.05 289.03 584.27 289.03C584.84 289.03 585.41 288.95 585.97 288.78C587.08 288.44 588.16 287.96 589.19 287.34C589.8 286.98 590.33 286.51 590.76 285.95C591.39 285.64 591.96 285.21 592.43 284.68C594.76 282.13 596.03 278.85 596.03 275.45C596.03 269.31 591.99 263.96 585.98 262.13C584.23 261.6 582.33 261.91 580.86 262.97Z" id="h2YXkAsJdF"></path><path d="M502.16 262.13C496.14 263.96 492.1 269.31 492.1 275.45C492.1 281.59 496.14 286.95 502.16 288.78C502.72 288.95 503.3 289.03 503.87 289.03C505.08 289.03 506.27 288.66 507.28 287.94C508.75 286.89 509.62 285.21 509.62 283.43C509.62 281.84 509.62 269.07 509.62 267.47C509.62 265.7 508.75 264.02 507.28 262.97C505.8 261.91 503.9 261.6 502.16 262.13Z" id="ahdw7bYob"></path><path d="M555.53 309.69C555.51 309.69 555.36 309.7 555.34 309.7C554.99 309.72 554.64 309.76 554.3 309.83C552.08 310.31 549.82 310.56 547.58 310.56C546.88 310.56 541.26 310.56 540.56 310.56C538.25 310.56 535.93 310.3 533.64 309.79C531.93 309.41 530.14 309.8 528.78 310.87C527.41 311.93 526.61 313.54 526.61 315.25C526.61 316.33 526.61 321.76 526.61 331.53C526.61 331.56 526.61 331.58 526.61 331.59C526.52 333.2 527.15 334.78 528.33 335.91C529.49 337 538.72 345.77 539.88 346.86C540.95 347.88 542.39 348.45 543.89 348.45C543.92 348.45 543.95 348.45 543.98 348.45C545.51 348.43 546.96 347.81 548.02 346.74C549.21 345.53 558.73 335.91 559.92 334.71C560.95 333.66 561.52 332.27 561.52 330.82C561.52 329.27 561.52 316.84 561.52 315.29C561.53 313.76 560.88 312.3 559.75 311.24C558.62 310.19 557.11 309.64 555.53 309.69Z" id="buwiT0Dm"></path><path d="M533.51 334.23C532.32 333.1 531.69 331.52 531.78 329.9C531.78 329.9 531.78 329.88 531.78 329.85C531.78 320.08 531.78 314.65 531.78 313.56C531.78 312.13 532.35 310.77 533.34 309.74C531.73 309.46 530.07 309.86 528.78 310.86C527.41 311.93 526.61 313.54 526.61 315.24C526.61 316.33 526.61 321.76 526.61 331.53C526.61 331.56 526.61 331.58 526.61 331.58C526.52 333.2 527.15 334.77 528.33 335.9C529.49 337 538.72 345.77 539.88 346.86C540.95 347.88 542.39 348.45 543.89 348.45C543.92 348.45 543.95 348.45 543.98 348.45C545.51 348.42 546.96 347.81 548.02 346.73C548.03 346.73 548.07 346.69 548.08 346.68C546.94 346.49 545.89 345.98 545.05 345.18C542.74 342.99 534.66 335.32 533.51 334.23Z" id="ajk1Cn5Qu"></path><path d="M575.66 256.7C566.01 252.31 562 246.6 560.39 243.2C560.29 243.07 560.2 242.93 560.1 242.75C558.95 240.68 557.15 241.99 557.15 241.99C557.15 241.99 557.14 241.99 557.14 241.99C548.12 248.73 538.28 252.67 530.09 254.96C526.9 255.88 523.85 256.54 521.09 257.02C515.6 258.01 512.07 258.13 512.07 258.13C509.07 258.35 506.74 260.78 506.74 263.72C506.74 266 506.74 284.28 506.74 286.56C506.74 304.73 521.91 319.52 540.56 319.52C541.26 319.52 546.88 319.52 547.58 319.52C566.22 319.52 581.39 304.74 581.39 286.56C581.39 284.19 581.39 265.19 581.39 262.81C581.39 260.47 579.9 258.38 577.65 257.56C576.96 257.31 576.3 257.02 575.66 256.7Z" id="d2qphoDE"></path><path d="M513.64 263.72C513.64 260.78 515.96 258.34 518.97 258.13C518.97 258.13 522.5 258 527.98 257.02C530.75 256.54 533.8 255.88 536.99 254.96C544.23 252.93 552.78 249.6 560.9 244.2C560.71 243.85 560.54 243.51 560.39 243.2C560.29 243.07 560.2 242.93 560.1 242.75C558.94 240.68 557.15 241.99 557.15 241.99C557.15 241.99 557.14 241.99 557.14 241.99C548.12 248.73 538.28 252.67 530.09 254.96C526.9 255.88 523.85 256.54 521.09 257.02C515.6 258 512.07 258.13 512.07 258.13C509.07 258.34 506.74 260.78 506.74 263.72C506.74 266 506.74 284.28 506.74 286.56C506.74 304.73 521.91 319.52 540.55 319.52C541.24 319.52 546.76 319.52 547.45 319.52C528.81 319.52 513.64 304.73 513.64 286.56C513.64 281.99 513.64 266 513.64 263.72Z" id="a12ZPaIz8h"></path><path d="M170.87 371.43C170.87 371.35 170.87 371.27 170.87 371.18C170.85 370.89 170.83 370.61 170.81 370.32C170.79 369.95 170.77 369.58 170.74 369.22C170.72 369.07 170.7 368.92 170.69 368.77C170.64 368.28 170.59 367.79 170.52 367.31C170.52 367.27 170.51 367.23 170.5 367.19C169.15 357.34 164.55 350.15 159.38 345.25C159.36 345.22 159.33 345.2 159.31 345.18C159.04 344.92 158.77 344.67 158.49 344.43C158.36 344.31 158.22 344.19 158.09 344.08C157.93 343.94 157.77 343.8 157.61 343.67C157.35 343.45 157.08 343.23 156.82 343.03C156.79 343 156.76 342.98 156.73 342.96C153.42 340.34 150.1 338.64 147.49 337.77C147.48 337.76 147.47 337.76 147.46 337.75C147.45 337.75 147.4 337.73 147.39 337.73C147.38 337.73 147.37 337.72 147.37 337.72C145.09 336.83 133.7 332.38 113.2 324.37L104.66 333L95.93 341.29L87.2 333L78.67 324.37C58.16 332.38 46.78 336.83 44.5 337.72C44.49 337.72 44.48 337.73 44.47 337.73C44.47 337.73 44.41 337.75 44.4 337.75C44.39 337.76 44.38 337.76 44.37 337.76C41.77 338.64 38.45 340.34 35.13 342.96C35.1 342.98 35.07 343 35.04 343.02C34.78 343.23 34.52 343.45 34.25 343.67C34.09 343.8 33.94 343.94 33.78 344.07C33.64 344.19 33.51 344.31 33.37 344.43C33.1 344.67 32.83 344.92 32.56 345.18C32.53 345.2 32.51 345.22 32.48 345.25C27.31 350.15 22.71 357.34 21.36 367.19C21.35 367.23 21.35 367.27 21.34 367.31C21.28 367.79 21.23 368.28 21.18 368.77C21.16 368.92 21.14 369.07 21.13 369.22C21.1 369.58 21.08 369.95 21.05 370.32C21.04 370.61 21.01 370.89 21 371.18C20.99 371.26 21 371.35 20.99 371.43C20.97 372 20.95 372.58 20.95 373.17C20.95 373.53 20.95 375.29 20.95 378.47L20.95 378.47C20.95 388.17 20.95 393.56 20.95 394.64C21.18 397.16 22.52 401.6 29.21 401.6C29.76 401.6 32.48 401.6 37.38 401.6L154.49 401.6C159.38 401.6 162.11 401.6 162.65 401.6C169.35 401.6 170.69 397.16 170.91 394.64C170.91 393.56 170.91 388.17 170.91 378.47L170.91 378.47L170.91 373.18C170.9 372.4 170.89 371.81 170.87 371.43Z" id="a7t1DAQs7L"></path><path d="M44.51 337.72C44.45 337.74 44.41 337.75 44.4 337.75C35.69 340.78 20.95 351.65 20.95 373.18C20.95 375.32 20.95 392.49 20.95 394.64C21.17 397.17 22.52 401.6 29.21 401.6C29.33 401.6 29.9 401.6 30.93 401.6C30.93 384.55 30.93 375.07 30.93 373.17C30.93 351.65 45.68 340.78 54.39 337.75C54.39 337.75 54.43 337.74 54.49 337.72L81.36 327.46L78.5 324.74L44.51 337.72Z" id="dsqPpQ3A"></path><path d="M101.43 203.4L103.26 203.58L105.08 203.83L106.87 204.16L108.64 204.54L110.38 205L112.1 205.52L113.78 206.1L115.43 206.75L117.05 207.46L118.64 208.22L120.19 209.04L121.71 209.92L123.18 210.86L124.62 211.84L126.02 212.88L127.37 213.97L128.68 215.11L129.94 216.29L131.15 217.52L132.32 218.8L133.44 220.11L134.5 221.47L135.52 222.87L136.47 224.31L137.37 225.79L138.22 227.3L139 228.85L139.73 230.43L140.39 232.04L140.99 233.68L141.52 235.35L141.99 237.05L142.39 238.77L142.72 240.51L142.98 242.28L143.17 244.08L143.28 245.89L143.32 247.72L143.32 268.58L143.3 268.58L143.24 268.57L143.15 268.56L143.03 268.55L142.87 268.53L142.68 268.5L142.47 268.47L142.23 268.44L141.96 268.39L141.68 268.35L141.37 268.29L141.04 268.23L140.7 268.16L140.34 268.09L139.96 268L139.58 267.91L139.19 267.81L138.79 267.7L138.38 267.59L137.97 267.46L137.55 267.33L137.14 267.18L136.72 267.03L136.31 266.87L135.91 266.69L135.51 266.51L135.12 266.31L134.74 266.11L134.37 265.89L134.02 265.66L133.68 265.42L133.36 265.17L133.06 264.9L132.78 264.62L132.52 264.33L132.29 264.02L132.09 263.71L131.91 263.37L131.77 263.03L131.65 262.67L131.76 262.59L131.72 262.55L131.69 262.51L131.65 262.47L131.62 262.43L131.59 262.39L131.56 262.35L131.52 262.31L131.49 262.27L131.46 262.23L131.43 262.19L131.4 262.15L131.37 262.11L131.34 262.07L131.31 262.03L131.28 261.99L131.25 261.95L131.22 261.9L131.19 261.86L131.16 261.82L131.14 261.77L131.11 261.73L131.08 261.69L131.06 261.64L131.03 261.6L131.01 261.55L130.98 261.51L130.96 261.46L130.93 261.42L130.91 261.37L130.88 261.33L130.86 261.28L130.84 261.24L130.82 261.19L130.79 261.14L130.77 261.09L130.75 261.05L130.73 261L130.71 260.95L130.69 260.9L130.67 260.86L129.77 260.6L128.89 260.33L128.02 260.03L127.18 259.7L126.37 259.36L125.57 258.99L124.79 258.61L124.04 258.2L123.3 257.78L122.59 257.35L121.9 256.89L121.23 256.43L120.58 255.95L119.95 255.46L119.34 254.96L118.75 254.45L118.17 253.93L117.62 253.4L117.09 252.87L116.58 252.33L116.09 251.79L115.61 251.25L115.16 250.7L114.73 250.15L114.31 249.61L113.91 249.06L113.53 248.52L113.17 247.98L112.83 247.44L112.51 246.91L112.2 246.39L111.91 245.88L111.64 245.37L111.39 244.88L111.16 244.4L110.94 243.93L110.74 243.47L110.56 243.03L110.39 242.6L110.24 242.19L109.04 243.54L107.8 244.83L106.52 246.05L105.2 247.21L103.86 248.31L102.48 249.34L101.08 250.32L99.66 251.24L98.22 252.11L96.76 252.92L95.29 253.68L93.81 254.4L92.32 255.06L90.83 255.68L89.34 256.25L87.85 256.78L86.37 257.27L84.89 257.72L83.43 258.13L81.99 258.5L80.56 258.85L79.15 259.15L77.77 259.43L76.42 259.68L75.09 259.9L73.81 260.1L72.55 260.27L71.34 260.41L70.18 260.54L69.05 260.65L67.98 260.74L66.97 260.82L66 260.88L65.1 260.93L64.26 260.97L63.48 261L62.78 261.03L62.14 261.05L61.58 261.06L61.1 261.07L61.08 261.12L61.06 261.16L61.04 261.21L61.02 261.25L61 261.29L60.98 261.34L60.96 261.38L60.93 261.42L60.91 261.46L60.89 261.51L60.86 261.55L60.84 261.59L60.82 261.63L60.79 261.67L60.77 261.71L60.74 261.75L60.72 261.8L60.69 261.84L60.66 261.88L60.64 261.92L60.61 261.95L60.58 261.99L60.55 262.03L60.53 262.07L60.5 262.11L60.47 262.15L60.44 262.19L60.41 262.23L60.38 262.26L60.35 262.3L60.32 262.34L60.29 262.37L60.26 262.41L60.23 262.45L60.2 262.48L60.17 262.52L60.13 262.56L60.1 262.59L60.07 262.63L60.04 262.66L60.04 262.67L59.93 263.03L59.79 263.37L59.61 263.71L59.41 264.02L59.18 264.33L58.92 264.62L58.64 264.9L58.34 265.17L58.02 265.42L57.68 265.66L57.33 265.89L56.96 266.11L56.58 266.31L56.19 266.51L55.79 266.69L55.39 266.87L54.97 267.03L54.56 267.19L54.15 267.33L53.73 267.46L53.32 267.59L52.91 267.71L52.51 267.81L52.12 267.91L51.73 268L51.36 268.09L51 268.16L50.66 268.23L50.33 268.29L50.02 268.35L49.73 268.39L49.47 268.44L49.23 268.47L49.01 268.5L48.83 268.53L48.67 268.55L48.54 268.56L48.45 268.57L48.4 268.58L48.38 268.58L48.38 247.72L48.42 245.89L48.53 244.08L48.72 242.29L48.98 240.52L49.31 238.77L49.71 237.05L50.17 235.35L50.71 233.68L51.31 232.04L51.97 230.43L52.69 228.85L53.48 227.3L54.32 225.79L55.22 224.31L56.18 222.87L57.19 221.47L58.26 220.11L59.37 218.8L60.54 217.52L61.76 216.29L63.02 215.11L64.33 213.97L65.68 212.88L67.08 211.84L68.51 210.86L69.99 209.92L71.5 209.04L73.05 208.22L74.64 207.46L76.26 206.75L77.92 206.1L79.6 205.52L81.31 205L83.05 204.54L84.82 204.16L86.61 203.83L88.43 203.58L90.27 203.4L92.13 203.29L94.01 203.25L97.69 203.25L99.57 203.29L101.43 203.4ZM131.15 260.93L131.16 260.94L131.16 260.94L131.17 260.94L131.18 260.95L131.23 260.97L131.23 260.97L131.23 260.97L131.59 260.26L131.74 259.8L131.73 259.82L131.15 260.93ZM130.68 260.54L131.5 259.95L131.77 259.7L130.64 260.49L130.66 260.52L130.68 260.54ZM132.09 259.47L131.88 259.68L132.59 259.16L132.53 259.16L132.09 259.47ZM131.92 259.45L131.87 259.6L131.95 259.53L132.13 259.16L132.07 259.16L131.92 259.45Z" id="a1dblnw9pN"></path><path d="M56.42 253.65C56.42 250.09 56.42 248.11 56.42 247.72C56.42 223.91 75.72 204.42 99.87 203.31C99.15 203.27 98.42 203.25 97.69 203.25C97.32 203.25 94.38 203.25 94.01 203.25C68.85 203.25 48.38 223.2 48.38 247.72C48.38 248.11 48.38 250.09 48.38 253.65L48.38 259.2C48.38 264.83 48.38 267.95 48.38 268.58C48.38 268.58 52.97 268.13 56.42 266.4C56.42 265.92 56.42 263.52 56.42 259.2L56.42 253.65Z" id="a4KYzb0ha8"></path><path d="M132.72 262.97C131.25 264.02 130.38 265.69 130.38 267.48C130.38 269.07 130.38 281.83 130.38 283.43C130.38 285.21 131.25 286.88 132.72 287.94C133.72 288.66 134.92 289.03 136.13 289.03C136.7 289.03 137.28 288.95 137.84 288.78C138.94 288.44 140.02 287.96 141.05 287.34C141.66 286.98 142.19 286.51 142.62 285.95C143.26 285.64 143.83 285.21 144.3 284.68C146.62 282.13 147.9 278.85 147.9 275.45C147.9 269.31 143.86 263.96 137.84 262.13C136.09 261.6 134.2 261.91 132.72 262.97Z" id="f1inIWe5wW"></path><path d="M54.02 262.13C48.01 263.96 43.96 269.31 43.96 275.45C43.96 281.59 48.01 286.95 54.02 288.78C54.58 288.95 55.16 289.03 55.73 289.03C56.94 289.03 58.14 288.66 59.14 287.94C60.61 286.89 61.48 285.21 61.48 283.43C61.48 281.84 61.48 269.07 61.48 267.47C61.48 265.7 60.61 264.02 59.14 262.97C57.67 261.91 55.77 261.6 54.02 262.13Z" id="a57GbXUY6C"></path><path d="M107.4 309.69C107.38 309.69 107.22 309.7 107.2 309.7C106.85 309.72 106.5 309.76 106.16 309.83C103.94 310.31 101.68 310.56 99.44 310.56C98.74 310.56 93.12 310.56 92.42 310.56C90.12 310.56 87.79 310.3 85.5 309.79C83.8 309.41 82.01 309.8 80.64 310.87C79.27 311.93 78.47 313.54 78.47 315.25C78.47 316.33 78.47 321.76 78.47 331.53C78.47 331.56 78.47 331.58 78.47 331.59C78.38 333.2 79.01 334.78 80.2 335.91C81.35 337 90.59 345.77 91.74 346.86C92.81 347.88 94.25 348.45 95.75 348.45C95.78 348.45 95.81 348.45 95.84 348.45C97.37 348.43 98.83 347.81 99.89 346.74C101.08 345.53 110.59 335.91 111.78 334.71C112.81 333.66 113.39 332.27 113.39 330.82C113.39 329.27 113.39 316.84 113.39 315.29C113.39 313.76 112.75 312.3 111.62 311.24C110.49 310.19 108.97 309.64 107.4 309.69Z" id="e2RCMYo6zW"></path><path d="M85.37 334.23C84.18 333.1 83.55 331.52 83.64 329.9C83.64 329.9 83.64 329.88 83.65 329.85C83.65 320.08 83.65 314.65 83.65 313.56C83.65 312.13 84.21 310.77 85.21 309.74C83.59 309.46 81.93 309.86 80.64 310.86C79.27 311.93 78.48 313.54 78.48 315.24C78.48 316.33 78.48 321.76 78.48 331.53C78.47 331.56 78.47 331.58 78.47 331.58C78.38 333.2 79.01 334.77 80.2 335.9C81.35 337 90.59 345.77 91.74 346.86C92.81 347.88 94.25 348.45 95.75 348.45C95.78 348.45 95.81 348.45 95.84 348.45C97.37 348.42 98.83 347.81 99.89 346.73C99.89 346.73 99.93 346.69 99.94 346.68C98.81 346.49 97.75 345.98 96.91 345.18C94.6 342.99 86.52 335.32 85.37 334.23Z" id="cj32zZzj6"></path><path d="M127.53 256.7C117.87 252.31 113.87 246.6 112.25 243.2C112.16 243.07 112.06 242.93 111.96 242.75C110.81 240.68 109.01 241.99 109.01 241.99C109.01 241.99 109 241.99 109 241.99C99.99 248.73 90.14 252.67 81.96 254.96C78.77 255.88 75.71 256.54 72.95 257.02C67.47 258.01 63.94 258.13 63.94 258.13C60.93 258.35 58.6 260.78 58.6 263.72C58.6 266 58.6 284.28 58.6 286.56C58.6 304.73 73.77 319.52 92.42 319.52C93.12 319.52 98.74 319.52 99.44 319.52C118.09 319.52 133.25 304.74 133.25 286.56C133.25 284.19 133.25 265.19 133.25 262.81C133.26 260.47 131.76 258.38 129.52 257.56C128.82 257.31 128.17 257.02 127.53 256.7Z" id="bv5pj2uR2"></path><path d="M65.5 263.72C65.5 260.78 67.83 258.34 70.83 258.13C70.83 258.13 74.36 258 79.85 257.02C82.61 256.54 85.66 255.88 88.85 254.96C96.09 252.93 104.64 249.6 112.76 244.2C112.57 243.85 112.4 243.51 112.25 243.2C112.16 243.07 112.06 242.93 111.96 242.75C110.81 240.68 109.01 241.99 109.01 241.99C109.01 241.99 109 241.99 109 241.99C99.99 248.73 90.14 252.67 81.95 254.96C78.77 255.88 75.71 256.54 72.95 257.02C67.47 258 63.94 258.13 63.94 258.13C60.93 258.34 58.6 260.78 58.6 263.72C58.6 266 58.6 284.28 58.6 286.56C58.6 304.73 73.77 319.52 92.42 319.52C93.11 319.52 98.62 319.52 99.31 319.52C80.67 319.52 65.5 304.73 65.5 286.56C65.5 281.99 65.5 266 65.5 263.72Z" id="myhz8jCQj"></path><path d="M373.61 107.72C381.17 97.12 385.29 84.15 385.29 70.76C385.29 36.98 359.38 9.49 327.54 9.49C295.69 9.49 269.79 36.98 269.79 70.76C269.79 84.3 274.01 97.41 281.73 108.07C281.81 108.17 281.89 108.28 281.98 108.41C282.23 108.75 282.48 109.08 282.74 109.42C285.62 112.79 289.33 112.01 290.4 111.69C290.5 111.66 290.6 111.62 290.7 111.59C290.7 111.59 290.7 111.59 290.7 111.59C294.52 110.32 298.75 109.25 303.33 108.41C303.86 108.31 306.53 107.82 311.33 106.94C307.71 103.97 305.7 102.33 305.29 102C300.39 97.97 297.19 92.52 296.3 86.64C296.27 86.44 296.12 85.45 295.85 83.66C293.85 83.52 292.75 83.44 292.52 83.42C287.05 83.02 282.76 78.83 282.76 73.89C282.76 68.96 286.86 64.87 292.31 64.37C292.55 64.35 293.77 64.24 295.97 64.03C296 62.46 296.02 61.59 296.02 61.41C299.72 60.43 316.01 55.7 327.46 45.62C330.16 48.45 340.27 57.81 359.06 61.46C359.06 61.64 359.08 62.49 359.11 64.03C361.31 64.24 362.53 64.35 362.77 64.37C368.22 64.87 372.32 68.96 372.32 73.89C372.32 78.83 368.03 83.02 362.56 83.42C362.33 83.44 361.22 83.52 359.23 83.66C358.96 85.45 358.81 86.44 358.78 86.64C357.89 92.52 354.69 97.97 349.79 102C349.38 102.32 347.37 103.97 343.75 106.94C348.55 107.82 351.22 108.31 351.75 108.41C356.53 109.29 360.94 110.42 364.89 111.76C366.34 112.13 370.25 112.64 373.01 108.46C373.21 108.15 373.41 107.91 373.61 107.72Z" id="dvdLhepJl"></path><path d="M343.08 106.6C339.96 107.33 338.22 107.74 337.88 107.82C335.55 108.37 333.14 108.64 330.73 108.64C330.09 108.64 324.99 108.64 324.36 108.64C321.92 108.64 319.5 108.36 317.16 107.81C316.81 107.73 315.07 107.32 311.95 106.58L311.95 120.16L296.46 123.49L299.83 134.3C300.66 134.75 301.13 135.01 301.22 135.06C303.31 136.2 309.02 139.03 316.79 140.57C320.45 141.29 324.13 141.65 327.75 141.65C327.75 141.65 327.75 141.65 327.75 141.65C336.71 141.65 345.47 139.43 353.81 135.04C353.9 134.99 354.39 134.74 355.26 134.28L358.56 123.67L343.08 120.16L343.08 106.6Z" id="a1dj0Fp6E5"></path><path d="M306.21 135.06C306.21 135.06 306.21 135.06 306.21 135.06L302.89 124.11L315.59 121.36L315.59 108.3L311.95 106.58L311.95 120.15L296.46 123.49L299.83 134.3C300.66 134.75 301.13 135.01 301.22 135.06C303.31 136.2 309.02 139.03 316.79 140.56C320.45 141.29 324.13 141.65 327.75 141.65C327.75 141.65 327.75 141.65 327.75 141.65C328.57 141.65 329.38 141.63 330.19 141.59C327.4 141.46 324.58 141.12 321.77 140.56C314 139.03 308.3 136.2 306.21 135.06Z" id="c5gkdx1yS"></path><path d="M327.61 140.69C323.98 140.69 320.32 140.32 316.75 139.6C313.4 138.92 310.1 137.94 306.94 136.68C306.54 136.52 304.52 135.72 300.88 134.26L316.23 183.05L338.85 183.05L354.24 134.15L348.13 136.64C339.13 139.34 332.29 140.69 327.61 140.69Z" id="bah2IlnOB"></path><path d="M316.23 183.05L321.21 183.05L306.57 136.54L300.88 134.26L316.23 183.05Z" id="b3h4Fwsa8t"></path><path d="M374.24 128.52C374.14 128.49 373.35 128.19 373.25 128.15C366.53 125.68 359.15 123.82 355.26 122.92C354.01 126.92 347.77 146.97 336.52 183.05C368.26 183.05 385.88 183.05 389.41 183.05C395.3 183.05 396.35 178.88 396.51 176.87C396.51 175.08 396.51 160.74 396.51 158.95C396.51 144.3 387.77 135.45 380.37 131.2C378.52 130.25 376.43 129.36 374.24 128.52Z" id="abNgm7PaZ"></path><path d="M281.2 128.15C281.11 128.19 280.31 128.49 280.22 128.52C278.03 129.36 275.94 130.25 274.09 131.2C266.68 135.45 257.95 144.3 257.95 158.95C257.95 160.74 257.95 175.08 257.95 176.87C258.11 178.88 259.16 183.05 265.05 183.05C268.57 183.05 286.2 183.05 317.93 183.05L299.2 122.92C291.68 124.76 285.69 126.5 281.2 128.15Z" id="a2ngOIkOVf"></path><path d="M264.8 167.4C264.8 162.33 264.8 159.51 264.8 158.95C264.8 144.3 273.54 135.45 280.94 131.2C282.79 130.25 284.88 129.36 287.07 128.52C287.17 128.49 287.96 128.19 288.06 128.15C291.99 126.71 296.14 125.47 299.7 124.51C299.65 124.35 299.25 123.07 299.2 122.92C295.31 123.82 287.93 125.68 281.21 128.15C281.11 128.19 280.32 128.49 280.22 128.52C278.03 129.36 275.94 130.25 274.09 131.2C266.69 135.45 257.95 144.3 257.95 158.95C257.95 160.74 257.95 175.08 257.95 176.87C258.11 178.85 259.13 182.93 264.8 183.05C264.8 183.05 264.8 176.87 264.8 176.87C264.8 175.61 264.8 172.45 264.8 167.4Z" id="c7FdZJf67W"></path><path d="M360.01 62.86C358.6 63.8 357.76 65.28 357.76 66.85C357.76 68.27 357.76 79.56 357.76 80.97C357.76 82.54 358.6 84.02 360.01 84.96C360.97 85.59 362.11 85.92 363.27 85.92C363.82 85.92 364.38 85.85 364.91 85.69C365.97 85.4 367.01 84.97 368 84.43C368.58 84.11 369.09 83.69 369.5 83.2C370.11 82.92 370.65 82.54 371.11 82.08C373.33 79.82 374.56 76.92 374.56 73.91C374.56 68.48 370.68 63.74 364.91 62.13C363.24 61.66 361.42 61.93 360.01 62.86Z" id="b4JyiPSrLG"></path><path d="M290.11 62.12C284.34 63.74 280.46 68.48 280.46 73.91C280.46 79.34 284.34 84.08 290.11 85.69C290.65 85.85 291.2 85.92 291.75 85.92C292.91 85.92 294.05 85.59 295.01 84.96C296.43 84.02 297.26 82.54 297.26 80.97C297.26 79.56 297.26 68.26 297.26 66.85C297.26 65.28 296.43 63.8 295.01 62.86C293.6 61.93 291.78 61.66 290.11 62.12Z" id="cweoeOMbc"></path><path d="M361.12 62.05C361.12 62.03 361.12 61.83 361.12 61.8C361.09 61.21 360.8 60.24 359.43 59.64C359.28 59.61 358.09 59.35 357.94 59.32C343.52 56.21 334.89 49.93 330.81 46.18C330.81 46.18 330.81 46.18 330.81 46.18C327.33 43.32 323.73 46.18 323.73 46.18C323.73 46.18 323.73 46.18 323.73 46.18C313.91 53.86 301.73 57.86 296.86 59.24C296.79 59.26 296.27 59.41 296.21 59.43C296.2 59.43 296.2 59.43 296.2 59.43C294.54 59.92 294.07 60.87 293.96 61.55C293.96 63.71 293.96 81.02 293.96 83.18C293.96 98.25 307.59 110.51 324.36 110.51C324.99 110.51 330.09 110.51 330.73 110.51C347.49 110.51 361.12 98.25 361.12 83.18C361.12 81.79 361.12 74.83 361.12 62.29L361.09 62.32C361.11 62.25 361.12 62.16 361.12 62.05Z" id="e8g14fddX"></path><path d="M323.73 46.18C323.73 46.18 323.73 46.18 323.73 46.18C313.91 53.86 301.73 57.86 296.86 59.24C296.79 59.26 296.27 59.41 296.21 59.43C296.2 59.43 296.2 59.43 296.2 59.43C294.54 59.92 294.07 60.87 293.96 61.55C293.96 63.71 293.96 81.02 293.96 83.18C293.96 98.25 307.59 110.51 324.36 110.51C324.85 110.51 328.84 110.51 329.34 110.51C312.58 110.51 298.94 98.25 298.94 83.18C298.94 81.18 298.94 65.13 298.94 63.13C298.94 60.66 300.95 59.58 302.1 59.16C302.35 59.09 302.61 59.02 302.89 58.93C302.89 58.93 302.89 58.93 302.89 58.93C302.89 58.93 302.89 58.93 302.89 58.93C308.46 57.27 320.2 53.12 329.51 45.54C329.52 45.53 329.57 45.5 329.65 45.43C326.49 45.83 324.52 46.08 323.73 46.18Z" id="bkrKjLH0U"></path><path d="M282.74 109.42C285.74 112.92 289.62 111.94 290.51 111.66C290.58 111.63 290.64 111.61 290.7 111.59C290.65 111.53 290.25 111.04 290.2 110.98C281.05 99.85 276.01 85.56 276.01 70.76C276.01 38.09 300.25 11.31 330.65 9.58C329.62 9.52 328.58 9.49 327.54 9.49C295.69 9.49 269.79 36.98 269.79 70.76C269.79 84.3 274.01 97.41 281.73 108.07C281.81 108.17 281.89 108.29 281.98 108.41C282.23 108.75 282.48 109.08 282.74 109.42Z" id="j6D1LWg9V"></path><path d="M320.86 244.57L320.86 230.81L328.05 230.81L328.05 244.57L331.97 244.57L333.41 244.6L334.82 244.68L336.23 244.82L337.62 245L338.99 245.25L340.34 245.54L341.67 245.88L342.97 246.27L344.26 246.71L345.52 247.19L346.76 247.72L347.97 248.29L349.16 248.91L350.31 249.57L351.44 250.27L352.54 251.01L353.6 251.78L354.64 252.6L355.64 253.45L356.6 254.34L357.53 255.26L358.42 256.22L359.27 257.2L360.09 258.22L360.86 259.27L361.59 260.35L362.28 261.46L362.92 262.59L363.52 263.75L364.08 264.93L364.58 266.14L365.04 267.37L365.45 268.62L365.81 269.89L366.11 271.18L366.36 272.49L366.56 273.82L366.7 275.16L366.79 276.52L366.82 277.89L366.81 278.68L366.78 279.46L366.74 280.24L366.67 281.01L366.59 281.78L366.48 282.55L366.36 283.31L366.22 284.07L366.07 284.82L365.89 285.57L365.7 286.31L365.49 287.04L365.27 287.77L365.02 288.5L364.76 289.21L364.48 289.92L364.19 290.63L363.88 291.32L363.55 292.01L363.21 292.69L362.84 293.36L362.47 294.03L362.08 294.68L361.67 295.33L361.24 295.97L360.8 296.6L360.35 297.22L359.88 297.83L359.39 298.43L358.89 299.03L358.38 299.61L357.85 300.18L357.31 300.74L356.75 301.29L356.17 301.82L355.59 302.35L354.99 302.87L354.37 303.37L353.74 303.86L353.1 304.34L353.74 304.82L354.37 305.31L354.99 305.81L355.59 306.32L356.17 306.85L356.75 307.39L357.31 307.94L357.85 308.5L358.38 309.07L358.89 309.65L359.39 310.24L359.88 310.84L360.35 311.45L360.8 312.07L361.24 312.7L361.67 313.34L362.08 313.99L362.47 314.65L362.84 315.31L363.2 315.99L363.55 316.67L363.88 317.36L364.19 318.05L364.48 318.75L364.76 319.46L365.02 320.18L365.27 320.9L365.49 321.63L365.7 322.37L365.89 323.11L366.07 323.86L366.22 324.61L366.36 325.37L366.48 326.13L366.59 326.89L366.67 327.66L366.74 328.44L366.78 329.22L366.81 330L366.82 330.79L366.79 332.16L366.7 333.51L366.56 334.86L366.36 336.18L366.11 337.49L365.81 338.78L365.45 340.06L365.04 341.31L364.58 342.54L364.08 343.74L363.52 344.93L362.92 346.09L362.28 347.22L361.59 348.33L360.86 349.4L360.09 350.45L359.27 351.47L358.42 352.46L357.53 353.42L356.6 354.34L355.64 355.23L354.64 356.08L353.6 356.89L352.54 357.67L351.44 358.41L350.31 359.11L349.16 359.77L347.97 360.38L346.76 360.96L345.52 361.49L344.26 361.97L342.97 362.41L341.67 362.8L340.34 363.14L338.99 363.43L337.62 363.67L336.23 363.86L334.82 364L333.41 364.08L331.97 364.11L328.05 364.11L328.05 377.86L320.86 377.86L320.86 364.11L312.47 364.11L312.47 377.86L305.28 377.86L305.28 364.11L288.86 364.11L288.86 350.35L298.09 350.35L298.09 311.22L288.86 311.22L288.86 297.46L298.09 297.46L298.09 258.32L288.86 258.32L288.86 244.57L305.28 244.57L305.28 230.81L312.47 230.81L312.47 244.57L320.86 244.57ZM312.47 350.35L331.97 350.35L333.17 350.32L334.35 350.22L335.52 350.06L336.66 349.84L337.77 349.55L338.87 349.21L339.93 348.81L340.96 348.36L341.97 347.86L342.93 347.3L343.87 346.7L344.76 346.05L345.62 345.35L346.44 344.62L347.21 343.84L347.93 343.02L348.61 342.16L349.25 341.27L349.83 340.34L350.35 339.38L350.83 338.4L351.24 337.38L351.6 336.33L351.9 335.27L352.13 334.18L352.3 333.06L352.4 331.93L352.44 330.79L352.4 329.64L352.3 328.51L352.13 327.39L351.9 326.3L351.6 325.24L351.24 324.19L350.83 323.18L350.35 322.19L349.83 321.23L349.25 320.3L348.61 319.41L347.93 318.55L347.21 317.73L346.44 316.95L345.62 316.22L344.76 315.52L343.87 314.87L342.93 314.27L341.97 313.71L340.96 313.21L339.93 312.76L338.87 312.36L337.77 312.02L336.66 311.73L335.52 311.51L334.35 311.35L333.17 311.25L331.97 311.22L312.47 311.22L312.47 350.35ZM312.47 297.46L331.97 297.46L333.17 297.43L334.35 297.33L335.52 297.17L336.66 296.94L337.77 296.66L338.87 296.32L339.93 295.92L340.96 295.47L341.97 294.96L342.93 294.41L343.87 293.81L344.76 293.16L345.62 292.46L346.44 291.72L347.21 290.94L347.93 290.12L348.61 289.27L349.25 288.37L349.83 287.45L350.35 286.49L350.83 285.5L351.24 284.48L351.6 283.44L351.9 282.37L352.13 281.28L352.3 280.17L352.4 279.04L352.44 277.89L352.4 276.74L352.3 275.61L352.13 274.5L351.9 273.41L351.6 272.34L351.24 271.3L350.83 270.28L350.35 269.29L349.83 268.33L349.25 267.41L348.61 266.52L347.93 265.66L347.21 264.84L346.44 264.06L345.62 263.32L344.76 262.63L343.87 261.98L342.93 261.37L341.97 260.82L340.96 260.31L339.93 259.86L338.87 259.46L337.77 259.12L336.66 258.84L335.52 258.62L334.35 258.45L333.17 258.36L331.97 258.32L312.47 258.32L312.47 297.46Z" id="a3aZI6RQ2"></path></defs><g><g><g><use xlink:href="#ddDDyRyDN" opacity="1" fill="#005c83" fill-opacity="1"></use><g><use xlink:href="#ddDDyRyDN" opacity="1" fill-opacity="0" stroke="#000000" stroke-width="1" stroke-opacity="0"></use></g></g><g><use xlink:href="#a29IzkgAfZ" opacity="1" fill="#d9d8da" fill-opacity="1"></use><g><use xlink:href="#a29IzkgAfZ" opacity="1" fill-opacity="0" stroke="#000000" stroke-width="1" stroke-opacity="0"></use></g></g><g><use xlink:href="#asd4FHnI" opacity="1" fill="#d9d8da" fill-opacity="1"></use><g><use xlink:href="#asd4FHnI" opacity="1" fill-opacity="0" stroke="#000000" stroke-width="1" stroke-opacity="0"></use></g></g><g><use xlink:href="#i1aJ2MP17K" opacity="1" fill="#d9d8da" fill-opacity="1"></use><g><use xlink:href="#i1aJ2MP17K" opacity="1" fill-opacity="0" stroke="#000000" stroke-width="1" stroke-opacity="0"></use></g></g><g><use xlink:href="#foi9Um1" opacity="1" fill="#d9d8da" fill-opacity="1"></use><g><use xlink:href="#foi9Um1" opacity="1" fill-opacity="0" stroke="#000000" stroke-width="1" stroke-opacity="0"></use></g></g><g><use xlink:href="#b50Q0CSJ2k" opacity="1" fill="#6598cb" fill-opacity="1"></use><g><use xlink:href="#b50Q0CSJ2k" opacity="1" fill-opacity="0" stroke="#000000" stroke-width="1" stroke-opacity="0"></use></g></g><g><use xlink:href="#b1TzwPM7TT" opacity="1" fill="#4982aa" fill-opacity="1"></use><g><use xlink:href="#b1TzwPM7TT" opacity="1" fill-opacity="0" stroke="#000000" stroke-width="1" stroke-opacity="0"></use></g></g><g><use xlink:href="#ba8hgnMYEU" opacity="1" fill="#694b4b" fill-opacity="1"></use><g><use xlink:href="#ba8hgnMYEU" opacity="1" fill-opacity="0" stroke="#000000" stroke-width="1" stroke-opacity="0"></use></g></g><g><use xlink:href="#dVVLjxiuW" opacity="1" fill="#563b3b" fill-opacity="1"></use><g><use xlink:href="#dVVLjxiuW" opacity="1" fill-opacity="0" stroke="#000000" stroke-width="1" stroke-opacity="0"></use></g></g><g><use xlink:href="#b7Dt5bkNEa" opacity="1" fill="#fbcb99" fill-opacity="1"></use><g><use xlink:href="#b7Dt5bkNEa" opacity="1" fill-opacity="0" stroke="#000000" stroke-width="1" stroke-opacity="0"></use></g></g><g><use xlink:href="#csBQLmvpw" opacity="1" fill="#edba89" fill-opacity="1"></use><g><use xlink:href="#csBQLmvpw" opacity="1" fill-opacity="0" stroke="#000000" stroke-width="1" stroke-opacity="0"></use></g></g><g><use xlink:href="#e37chy3sVt" opacity="1" fill="#fbcb99" fill-opacity="1"></use><g><use xlink:href="#e37chy3sVt" opacity="1" fill-opacity="0" stroke="#000000" stroke-width="1" stroke-opacity="0"></use></g></g><g><use xlink:href="#e5xkel4gK" opacity="1" fill="#edba89" fill-opacity="1"></use><g><use xlink:href="#e5xkel4gK" opacity="1" fill-opacity="0" stroke="#000000" stroke-width="1" stroke-opacity="0"></use></g></g><g><use xlink:href="#b1xnsrXxE" opacity="1" fill="#fbcb99" fill-opacity="1"></use><g><use xlink:href="#b1xnsrXxE" opacity="1" fill-opacity="0" stroke="#000000" stroke-width="1" stroke-opacity="0"></use></g></g><g><use xlink:href="#l3Y3zIwSUa" opacity="1" fill="#edba89" fill-opacity="1"></use><g><use xlink:href="#l3Y3zIwSUa" opacity="1" fill-opacity="0" stroke="#000000" stroke-width="1" stroke-opacity="0"></use></g></g><g><use xlink:href="#c2f0rCYhvv" opacity="1" fill="#6598cb" fill-opacity="1"></use><g><use xlink:href="#c2f0rCYhvv" opacity="1" fill-opacity="0" stroke="#000000" stroke-width="1" stroke-opacity="0"></use></g></g><g><use xlink:href="#asQrfIVyN" opacity="1" fill="#4982aa" fill-opacity="1"></use><g><use xlink:href="#asQrfIVyN" opacity="1" fill-opacity="0" stroke="#000000" stroke-width="1" stroke-opacity="0"></use></g></g><g><use xlink:href="#aCYQn5QIh" opacity="1" fill="#694b4b" fill-opacity="1"></use><g><use xlink:href="#aCYQn5QIh" opacity="1" fill-opacity="0" stroke="#000000" stroke-width="1" stroke-opacity="0"></use></g></g><g><use xlink:href="#cOcxk3QhM" opacity="1" fill="#563b3b" fill-opacity="1"></use><g><use xlink:href="#cOcxk3QhM" opacity="1" fill-opacity="0" stroke="#000000" stroke-width="1" stroke-opacity="0"></use></g></g><g><use xlink:href="#h2YXkAsJdF" opacity="1" fill="#fbcb99" fill-opacity="1"></use><g><use xlink:href="#h2YXkAsJdF" opacity="1" fill-opacity="0" stroke="#000000" stroke-width="1" stroke-opacity="0"></use></g></g><g><use xlink:href="#ahdw7bYob" opacity="1" fill="#edba89" fill-opacity="1"></use><g><use xlink:href="#ahdw7bYob" opacity="1" fill-opacity="0" stroke="#000000" stroke-width="1" stroke-opacity="0"></use></g></g><g><use xlink:href="#buwiT0Dm" opacity="1" fill="#fbcb99" fill-opacity="1"></use><g><use xlink:href="#buwiT0Dm" opacity="1" fill-opacity="0" stroke="#000000" stroke-width="1" stroke-opacity="0"></use></g></g><g><use xlink:href="#ajk1Cn5Qu" opacity="1" fill="#edba89" fill-opacity="1"></use><g><use xlink:href="#ajk1Cn5Qu" opacity="1" fill-opacity="0" stroke="#000000" stroke-width="1" stroke-opacity="0"></use></g></g><g><use xlink:href="#d2qphoDE" opacity="1" fill="#fbcb99" fill-opacity="1"></use><g><use xlink:href="#d2qphoDE" opacity="1" fill-opacity="0" stroke="#000000" stroke-width="1" stroke-opacity="0"></use></g></g><g><use xlink:href="#a12ZPaIz8h" opacity="1" fill="#edba89" fill-opacity="1"></use><g><use xlink:href="#a12ZPaIz8h" opacity="1" fill-opacity="0" stroke="#000000" stroke-width="1" stroke-opacity="0"></use></g></g><g><use xlink:href="#a7t1DAQs7L" opacity="1" fill="#6598cb" fill-opacity="1"></use><g><use xlink:href="#a7t1DAQs7L" opacity="1" fill-opacity="0" stroke="#000000" stroke-width="1" stroke-opacity="0"></use></g></g><g><use xlink:href="#dsqPpQ3A" opacity="1" fill="#4982aa" fill-opacity="1"></use><g><use xlink:href="#dsqPpQ3A" opacity="1" fill-opacity="0" stroke="#000000" stroke-width="1" stroke-opacity="0"></use></g></g><g><use xlink:href="#a1dblnw9pN" opacity="1" fill="#694b4b" fill-opacity="1"></use><g><use xlink:href="#a1dblnw9pN" opacity="1" fill-opacity="0" stroke="#000000" stroke-width="1" stroke-opacity="0"></use></g></g><g><use xlink:href="#a4KYzb0ha8" opacity="1" fill="#563b3b" fill-opacity="1"></use><g><use xlink:href="#a4KYzb0ha8" opacity="1" fill-opacity="0" stroke="#000000" stroke-width="1" stroke-opacity="0"></use></g></g><g><use xlink:href="#f1inIWe5wW" opacity="1" fill="#fbcb99" fill-opacity="1"></use><g><use xlink:href="#f1inIWe5wW" opacity="1" fill-opacity="0" stroke="#000000" stroke-width="1" stroke-opacity="0"></use></g></g><g><use xlink:href="#a57GbXUY6C" opacity="1" fill="#edba89" fill-opacity="1"></use><g><use xlink:href="#a57GbXUY6C" opacity="1" fill-opacity="0" stroke="#000000" stroke-width="1" stroke-opacity="0"></use></g></g><g><use xlink:href="#e2RCMYo6zW" opacity="1" fill="#fbcb99" fill-opacity="1"></use><g><use xlink:href="#e2RCMYo6zW" opacity="1" fill-opacity="0" stroke="#000000" stroke-width="1" stroke-opacity="0"></use></g></g><g><use xlink:href="#cj32zZzj6" opacity="1" fill="#edba89" fill-opacity="1"></use><g><use xlink:href="#cj32zZzj6" opacity="1" fill-opacity="0" stroke="#000000" stroke-width="1" stroke-opacity="0"></use></g></g><g><use xlink:href="#bv5pj2uR2" opacity="1" fill="#fbcb99" fill-opacity="1"></use><g><use xlink:href="#bv5pj2uR2" opacity="1" fill-opacity="0" stroke="#000000" stroke-width="1" stroke-opacity="0"></use></g></g><g><use xlink:href="#myhz8jCQj" opacity="1" fill="#edba89" fill-opacity="1"></use><g><use xlink:href="#myhz8jCQj" opacity="1" fill-opacity="0" stroke="#000000" stroke-width="1" stroke-opacity="0"></use></g></g><g><use xlink:href="#dvdLhepJl" opacity="1" fill="#694b4b" fill-opacity="1"></use><g><use xlink:href="#dvdLhepJl" opacity="1" fill-opacity="0" stroke="#000000" stroke-width="1" stroke-opacity="0"></use></g></g><g><use xlink:href="#a1dj0Fp6E5" opacity="1" fill="#fbcb99" fill-opacity="1"></use><g><use xlink:href="#a1dj0Fp6E5" opacity="1" fill-opacity="0" stroke="#000000" stroke-width="1" stroke-opacity="0"></use></g></g><g><use xlink:href="#c5gkdx1yS" opacity="1" fill="#edba89" fill-opacity="1"></use><g><use xlink:href="#c5gkdx1yS" opacity="1" fill-opacity="0" stroke="#000000" stroke-width="1" stroke-opacity="0"></use></g></g><g><use xlink:href="#bah2IlnOB" opacity="1" fill="#f5f5f7" fill-opacity="1"></use><g><use xlink:href="#bah2IlnOB" opacity="1" fill-opacity="0" stroke="#000000" stroke-width="1" stroke-opacity="0"></use></g></g><g><use xlink:href="#b3h4Fwsa8t" opacity="1" fill="#d2d2d7" fill-opacity="1"></use><g><use xlink:href="#b3h4Fwsa8t" opacity="1" fill-opacity="0" stroke="#000000" stroke-width="1" stroke-opacity="0"></use></g></g><g><use xlink:href="#abNgm7PaZ" opacity="1" fill="#4b86b7" fill-opacity="1"></use><g><use xlink:href="#abNgm7PaZ" opacity="1" fill-opacity="0" stroke="#000000" stroke-width="1" stroke-opacity="0"></use></g></g><g><use xlink:href="#a2ngOIkOVf" opacity="1" fill="#6598cb" fill-opacity="1"></use><g><use xlink:href="#a2ngOIkOVf" opacity="1" fill-opacity="0" stroke="#000000" stroke-width="1" stroke-opacity="0"></use></g></g><g><use xlink:href="#c7FdZJf67W" opacity="1" fill="#4982aa" fill-opacity="1"></use><g><use xlink:href="#c7FdZJf67W" opacity="1" fill-opacity="0" stroke="#000000" stroke-width="1" stroke-opacity="0"></use></g></g><g><use xlink:href="#b4JyiPSrLG" opacity="1" fill="#fbcb99" fill-opacity="1"></use><g><use xlink:href="#b4JyiPSrLG" opacity="1" fill-opacity="0" stroke="#000000" stroke-width="1" stroke-opacity="0"></use></g></g><g><use xlink:href="#cweoeOMbc" opacity="1" fill="#edba89" fill-opacity="1"></use><g><use xlink:href="#cweoeOMbc" opacity="1" fill-opacity="0" stroke="#000000" stroke-width="1" stroke-opacity="0"></use></g></g><g><use xlink:href="#e8g14fddX" opacity="1" fill="#fbcb99" fill-opacity="1"></use><g><use xlink:href="#e8g14fddX" opacity="1" fill-opacity="0" stroke="#000000" stroke-width="1" stroke-opacity="0"></use></g></g><g><use xlink:href="#bkrKjLH0U" opacity="1" fill="#edba89" fill-opacity="1"></use><g><use xlink:href="#bkrKjLH0U" opacity="1" fill-opacity="0" stroke="#000000" stroke-width="1" stroke-opacity="0"></use></g></g><g><use xlink:href="#j6D1LWg9V" opacity="1" fill="#563b3b" fill-opacity="1"></use><g><use xlink:href="#j6D1LWg9V" opacity="1" fill-opacity="0" stroke="#000000" stroke-width="1" stroke-opacity="0"></use></g></g><g><use xlink:href="#a3aZI6RQ2" opacity="1" fill="#e4a915" fill-opacity="1"></use><g><use xlink:href="#a3aZI6RQ2" opacity="1" fill-opacity="0" stroke="#000000" stroke-width="1" stroke-opacity="0"></use></g></g></g></g></svg>